<svg width="128" height="128" viewBox="0 0 128 128" fill="none" xmlns="http://www.w3.org/2000/svg">
<g clip-path="url(#clip0_403_193)">
<path d="M127.323 44.9673C127.263 44.5022 127.192 44.0377 127.096 43.5819C127.006 43.1113 126.914 42.6738 126.765 42.164L126.41 41.6001C124.946 40.4503 123.366 39.5808 121.762 38.8128C120.438 38.1877 119.092 37.6432 117.732 37.1411C113.939 26.6153 107.42 17.2823 98.8475 10.7792C89.9873 4.05807 79.5663 0.5 68.7134 0.5C57.8599 0.5 47.4389 4.05807 38.5782 10.7797C30.0066 17.2823 23.4863 26.6159 19.6943 37.1439C18.3371 37.6437 16.9898 38.1905 15.6673 38.8128C14.0607 39.5808 12.4817 40.4498 11.0168 41.6001L10.6604 42.164C10.5186 42.6738 10.4259 43.1113 10.3299 43.5819C10.2378 44.0377 10.1688 44.5022 10.1032 44.9673C9.97186 45.8854 9.88469 46.8139 9.83614 47.743C9.7429 49.6034 9.79531 51.4672 9.99945 53.3171C10.1964 55.1643 10.5407 56.9949 11.0317 58.8101C11.2894 59.711 11.5818 60.6026 11.9288 61.487C12.101 61.9301 12.2891 62.3698 12.4977 62.8095C12.6003 63.028 12.7128 63.2415 12.8276 63.465C13.0819 63.9108 13.1283 63.9979 13.2353 64.1563L13.7164 64.5993C14.0298 64.7604 14.2897 64.8829 14.5732 65.0175L15.4014 65.3888C15.5548 65.4517 15.6988 65.5141 15.8554 65.577C12.0932 69.0556 8.00717 73.5742 4.46841 79.1593L0 86.2092L6.27365 80.703C6.38014 80.6098 11.6403 76.0559 20.4132 70.8967L20.5363 71.9052C19.9625 72.2037 17.2039 73.6515 16.384 74.3372C15.0251 75.4661 14.9594 77.2172 15.323 80.4851C15.5095 82.1596 16.1374 85.4109 16.9843 88.3919C18.4436 93.5212 19.5128 94.4283 20.4519 94.6407C20.8756 94.7422 21.4223 94.7891 22.037 94.7891C23.7175 94.7891 25.8698 94.4619 27.2745 94.0377C28.9219 99.161 31.2557 103.786 34.1004 107.845C33.963 107.882 33.8273 107.926 33.6899 107.965C31.979 107.172 25.9961 104.4 23.9846 103.496L19.7826 101.605L22.2681 105.485C22.4491 105.766 26.7393 112.455 30.2422 116.965C33.5183 121.169 38.0044 125.474 46.4695 125.474C47.4886 125.474 48.5545 125.408 49.653 125.287C52.1771 124.997 54.0739 124.769 55.5161 124.584C64.4022 127.85 74.2003 128.05 83.499 124.527C86.0436 123.56 88.3625 122.388 90.4916 121.073C94.0767 120.213 97.9978 119.278 99.9349 118.734C100.246 118.65 100.634 118.557 101.039 118.462C103.738 117.841 108.249 116.795 110.654 111.983C113.078 107.128 117.031 99.6901 117.072 99.6139L118.92 96.1436L115.319 97.7094C115.127 97.7971 110.563 99.7839 108.193 101.026C109.84 97.2343 110.81 94.0956 111.149 92.8901C112.476 93.2095 114.444 93.1687 115.891 93.1687C116.603 93.1687 117.335 93.0451 117.81 92.9237C118.751 92.6848 119.478 92.0597 120.844 86.767C121.639 83.6906 122.21 80.3406 122.366 78.6186C122.669 75.2674 122.57 73.4716 121.203 72.3378C120.521 71.775 118.521 70.6981 117.505 70.1679C118.073 69.9246 118.353 69.9957 118.374 70.0018L119.298 66.5005C119.623 66.3615 119.966 66.2219 120.358 66.0719C120.915 65.8501 121.473 65.6294 122.03 65.3888L122.854 65.0175C123.141 64.8829 123.399 64.761 123.713 64.5993L124.194 64.1563C124.298 63.9979 124.354 63.9108 124.418 63.7899C124.722 63.2415 124.83 63.028 124.931 62.8095C125.14 62.3698 125.325 61.9295 125.5 61.487C125.847 60.6026 126.139 59.711 126.396 58.8101C126.886 56.9949 127.235 55.1648 127.43 53.3171C127.637 51.4672 127.683 49.6034 127.591 47.743C127.546 46.8139 127.455 45.8854 127.323 44.9673Z" fill="#0E0F0D"/>
<path d="M74.5327 117.073C73.853 117.176 73.1727 117.259 72.5007 117.312C72.0632 117.334 71.6041 117.377 71.1859 117.377L71.0298 117.381C71.5545 116.211 71.9539 115.301 72.2541 114.613C72.8692 115.301 73.651 116.153 74.5327 117.073Z" fill="#E1C5A2"/>
<path d="M73.7081 64.7609C72.6449 65.6238 71.5249 66.4271 70.3585 67.1322L66.4678 69.4793C64.0275 69.7772 61.91 70.3802 61.7892 70.4172C61.718 70.4327 61.6507 70.4658 61.5878 70.5038C61.3985 70.6131 61.2545 70.7962 61.1856 71.0131L57.2231 84.0674L36.0446 88.7775L29.3721 84.1055L27.4316 68.3858C31.2214 67.6895 36.2874 66.8862 42.3718 66.2031C41.7213 66.9822 41.0885 67.8009 40.4865 68.6622L36.8645 73.8616L42.1401 70.3455C42.2195 70.2903 45.5767 68.0801 51.0719 65.3916C56.5483 64.9816 62.5941 64.7168 69.0614 64.7168C70.6416 64.7168 72.1886 64.7356 73.7081 64.7609ZM40.7425 82.4707C42.2482 81.6575 43.9475 81.7767 46.6096 81.7827C46.8932 81.7882 47.1883 81.7849 47.494 81.7767C47.7572 81.7767 48.0192 81.7722 48.2978 81.764C51.041 81.7364 53.3196 81.9957 53.2783 77.6928C53.2374 73.3893 51.3246 69.9091 48.5836 69.9361C45.8432 69.9604 43.1905 73.4876 43.3544 77.7888C43.398 78.9088 43.5641 79.7182 43.8272 80.2997C41.4388 80.9005 40.7778 82.378 40.7425 82.4707Z" fill="#A89983"/>
<path d="M110.415 68.3337L108.508 81.7003L101.781 86.411L80.6302 84.0071L76.6837 71.0118C76.5938 70.7221 76.3698 70.5003 76.0796 70.4165C75.9494 70.3773 73.3309 69.6286 70.5552 69.3886L71.0633 69.355C71.5008 69.3224 78.7946 68.4292 87.5069 65.4272C97.1521 66.1671 105.031 67.3506 110.415 68.3337ZM96.9011 80.7061C96.8735 80.6024 96.2931 78.8733 93.7469 79.1768C94.0393 78.5368 94.1712 77.6733 94.0785 76.4882C93.7425 72.193 91.2415 68.7795 88.5033 68.8761C85.7623 68.971 84.0095 72.5318 84.1612 76.8408C84.3119 81.1403 86.6092 81.1105 89.3502 81.0129C93.0313 80.9428 95.0523 79.8123 96.9011 80.7061Z" fill="#A89983"/>
<path d="M89.6648 72.9738C89.678 73.7474 89.0645 74.3835 88.2905 74.3995C87.518 74.4133 86.8775 73.7959 86.867 73.0246C86.851 72.2516 87.4662 71.6128 88.2391 71.599C89.0149 71.5824 89.6538 72.2003 89.6648 72.9738Z" fill="white"/>
<path d="M50.4063 74.0041C50.4256 74.7743 49.816 75.4187 49.0452 75.4386C48.2689 75.4606 47.6245 74.8521 47.603 74.0752C47.5837 73.3045 48.1922 72.6568 48.9691 72.6402C49.7387 72.6187 50.3848 73.2278 50.4063 74.0041Z" fill="white"/>
<path d="M119.647 74.2139C119.317 73.9408 118.212 73.3096 117.136 72.7275L115.363 85.1524C115.327 85.3891 115.193 85.6109 114.991 85.7527L112.455 87.5264C112.395 87.8266 112.348 88.0771 112.303 88.3115C114.795 88.9251 117.215 87.1281 118.574 85.8315C119.203 83.3835 119.75 80.4776 119.94 78.3976C120.229 75.1733 119.973 74.4815 119.647 74.2139Z" fill="#E1C5A2"/>
<path d="M80.4762 121.417C78.8304 120.832 77.3219 119.877 76.0088 118.579C75.8996 118.468 75.7953 118.36 75.6855 118.251C74.6693 118.459 73.6315 118.608 72.5738 118.698C72.128 118.718 71.7026 118.756 71.2375 118.756L70.5495 118.762L70.2847 118.756C68.7117 121.092 66.0673 122.376 63.9956 123.06C70.1506 124.116 76.9231 122.5 80.4762 121.417Z" fill="#E1C5A2"/>
<path d="M26.2923 90.9882C26.2371 90.8006 26.1792 90.6152 26.1256 90.4271L22.8308 88.1209C22.6239 87.9741 22.4925 87.7529 22.4594 87.5013L20.8528 74.4541C19.6639 75.0886 18.2895 75.872 17.9237 76.1782C17.6059 76.4409 17.3632 77.1095 17.7069 80.2185C17.9679 82.5556 18.7888 86.1462 19.6274 88.837C21.2959 90.1131 23.7532 91.4582 26.2923 90.9882Z" fill="#E1C5A2"/>
<path d="M75.5507 90.393C75.2003 90.3538 74.9051 90.1078 74.802 89.7662L70.7358 76.3671C70.0538 76.2777 69.4486 76.228 68.9377 76.228C68.4246 76.228 67.8232 76.2777 67.1418 76.3671L63.1893 89.3811C63.096 89.684 62.845 89.9185 62.5327 89.9869L60.6431 90.4079C60.4831 91.0755 59.9385 92.0548 58.1862 92.5922C55.3581 93.4545 37.4558 98.7908 35.4144 98.5006C34.2221 98.3334 31.9545 97.0821 30.2767 96.0702C29.6053 94.4895 29.234 93.4148 29.149 93.1599V93.1549L29.144 93.1599C29.3813 93.854 31.7173 100.578 36.4638 107.156C41.5523 105.656 45.9474 104.258 47.3526 103.814C50.2149 99.3999 54.2927 95.0203 57.1887 94.8708C57.6914 94.846 58.2083 94.8305 58.7209 94.8305C60.1399 94.8305 61.4944 94.9315 62.7518 95.0804C61.6836 94.1111 61.4646 92.9773 61.3096 92.4741C61.3096 92.4741 65.0083 95.3668 69.7129 94.7582C74.4246 94.1552 77.3476 91.4418 77.3476 91.4418L77.4403 90.6076L75.5507 90.393Z" fill="#E1C5A2"/>
<path d="M79.3745 92.089C78.3985 91.8363 77.7839 91.4335 77.3949 91.0137L77.3464 91.4418C77.3464 91.4418 77.3304 93.4192 75.2812 94.9513C79.2272 93.7563 80.8586 93.3519 81.9759 93.3519C83.2057 93.3519 83.8142 93.865 84.3477 94.3157C84.4487 94.4001 84.5497 94.4884 84.6705 94.5828C87.7055 96.9712 91.3535 99.8705 92.4189 100.723C93.6542 100.865 97.5748 101.314 100.042 101.539C101.463 101.671 102.749 101.778 104.01 101.778C104.413 101.778 104.796 101.765 105.157 101.74C106.458 99.2482 107.656 96.4917 108.722 93.4528C107.263 94.4763 103.938 96.7163 102.381 97.0048C100.354 97.3844 82.2319 92.8299 79.3745 92.089Z" fill="#E1C5A2"/>
<path d="M124.977 45.2292C124.943 44.8 124.896 44.3713 124.843 43.9476C124.808 43.6441 124.76 43.3296 124.708 43.0383C123.563 42.0756 122.262 41.2182 120.908 40.4425C119.441 39.5812 117.906 38.816 116.338 38.1031C114.784 37.3683 113.184 36.704 111.578 36.0563C110.775 35.7291 109.966 35.414 109.153 35.1139C108.343 34.7972 107.527 34.502 106.706 34.2041C108.425 34.4894 110.13 34.8822 111.821 35.3169C112.922 35.5978 114.016 35.9172 115.102 36.2593C107.369 16.0557 88.8907 2.90039 68.7125 2.90039C48.5321 2.90039 30.0549 16.0563 22.328 36.2593C23.4126 35.9172 24.5089 35.5978 25.6041 35.3169C27.2946 34.8822 29 34.4894 30.7219 34.2041C29.8965 34.502 29.0816 34.7972 28.2678 35.1139C27.459 35.4146 26.6502 35.7291 25.8469 36.0563C24.2402 36.704 22.6435 37.3683 21.0844 38.1031C19.5219 38.816 17.9864 39.5812 16.5183 40.4425C15.1638 41.2182 13.8651 42.0756 12.718 43.0383C12.6711 43.3302 12.6215 43.6447 12.5834 43.9476C12.5326 44.3713 12.4857 44.8 12.4477 45.2292C12.3732 46.0905 12.344 46.9534 12.3379 47.8201C12.3191 49.552 12.4366 51.2838 12.6546 52.9953C12.8929 54.7139 13.2074 56.4209 13.6725 58.0723C13.9009 58.8965 14.163 59.7109 14.4648 60.5004C14.6171 60.8938 14.7815 61.2844 14.9536 61.6596C15.038 61.8477 15.1257 62.0336 15.2168 62.2113L15.3277 62.4215C15.454 62.4849 15.5881 62.5522 15.7128 62.6129L16.4808 62.9793C16.9095 63.1763 17.5037 63.4576 17.9942 63.6767C18.0217 63.6518 18.0493 63.627 18.0714 63.6027L16.6452 58.1705C16.9481 58.0888 19.656 57.3887 24.323 56.4982C23.9484 56.4276 23.5688 56.3487 23.1947 56.2582C22.1321 55.9923 21.0833 55.67 20.0659 55.2601C19.5627 55.0466 19.0662 54.8149 18.5933 54.5473C18.1205 54.2742 17.656 53.968 17.2946 53.558C22.4212 55.2331 33.0176 54.4761 42.4377 53.5012C51.0502 52.6129 59.6885 52.0392 68.3682 52.0198C77.0458 52.0392 85.6874 52.6129 94.2954 53.5012C103.719 54.4761 114.315 55.2331 119.441 53.558C119.084 53.968 118.616 54.2742 118.148 54.5473C117.671 54.8149 117.173 55.0471 116.67 55.2601C115.654 55.67 114.609 55.9923 113.545 56.2582C113.387 56.2957 113.227 56.3288 113.069 56.3641C118.189 57.3131 121.169 58.0855 121.484 58.1699L120.122 63.3445C120.399 63.2248 120.677 63.1051 120.944 62.9787L121.714 62.6124C121.84 62.5517 121.972 62.4844 122.102 62.4209L122.205 62.2107C122.299 62.0331 122.389 61.8471 122.473 61.659C122.645 61.2838 122.81 60.8932 122.96 60.4998C123.26 59.7103 123.523 58.896 123.753 58.0717C124.219 56.4204 124.534 54.7128 124.768 52.9947C124.991 51.2833 125.109 49.5514 125.092 47.8196C125.085 46.9534 125.055 46.0899 124.977 45.2292Z" fill="#E0D896"/>
<path d="M89.9435 35.1797C90.0224 37.4909 89.9656 41.6851 88.8886 45.6089C88.845 45.759 88.8506 45.9151 88.8886 46.0602C87.5176 45.9151 86.1454 45.7921 84.7744 45.6807C86.3121 42.4553 86.6481 39.0213 86.7231 37.8109C87.9055 36.9722 89.0806 35.9637 89.9435 35.1797Z" fill="#D7C184"/>
<path d="M50.7067 37.8108C50.7785 39.0207 51.1145 42.4469 52.6521 45.6723C51.2805 45.781 49.9089 45.9068 48.5407 46.0525C48.5776 45.9134 48.5804 45.7595 48.5407 45.6094C47.4659 41.6911 47.4085 37.4974 47.4825 35.1802C48.3492 35.9636 49.5216 36.9722 50.7067 37.8108Z" fill="#D7C184"/>
<path d="M106.786 49.2616C106.78 49.2997 106.77 49.3388 106.758 49.3763C106.909 49.4199 107.056 49.4641 107.207 49.5132C108.475 49.9286 109.744 50.3628 110.956 50.9228C108.933 49.6081 107.649 45.8144 106.934 42.9146C107.131 46.7104 106.805 49.1181 106.786 49.2616Z" fill="#D7C184"/>
<path d="M45.7945 34.4502L32.7027 38.1738C31.9187 43.2662 32.1576 47.1553 32.2839 48.5048L32.3501 48.4651C32.3501 48.4651 32.7766 42.9175 33.6461 40.789C34.0941 39.696 36.8345 38.9986 38.9239 38.4993C41.0177 38.0022 44.3562 37.0052 45.0045 39.9448C45.4045 41.7611 45.9551 43.2717 46.4831 44.3856C45.6423 40.347 45.6958 36.3983 45.7945 34.4502Z" fill="#D7C184"/>
<path d="M91.6297 34.4502C91.7367 36.4745 91.7864 40.6576 90.8374 44.8579C91.4322 43.717 92.0931 42.0336 92.5533 39.9448C93.2004 37.0052 96.5389 38.0022 98.6322 38.4993C100.726 38.9992 103.463 39.696 103.911 40.789C104.649 42.5909 105.066 46.8392 105.176 48.1026C105.3 46.4783 105.438 42.827 104.725 38.1732L91.6297 34.4502Z" fill="#D7C184"/>
<path d="M50.6029 35.584C51.068 35.9558 51.5547 36.3189 52.0275 36.6389C52.2564 36.7978 52.3966 37.0565 52.4015 37.3357C52.4043 37.3793 52.5025 41.6927 54.4093 45.3655C54.4369 45.4207 54.4562 45.4808 54.4749 45.5376C59.2159 45.2154 63.9707 45.0847 68.7138 45.0819C73.4598 45.0847 78.2118 45.2243 82.9505 45.5487C82.9693 45.4863 82.9869 45.4256 83.0206 45.3655C84.9246 41.6927 85.0266 37.3793 85.0266 37.3357C85.0316 37.0565 85.1745 36.7972 85.4035 36.6389C85.8609 36.3299 86.3227 35.9796 86.7745 35.6204L86.8341 35.4521C87.8255 25.8036 86.0076 16.9125 84.8518 12.5192C84.7911 15.5233 84.0788 41.2623 77.6915 41.2623H69.5547H68.2002H60.0633C53.281 41.2623 52.7353 12.2422 52.7353 12.2422L52.3861 13.2728C51.2291 17.9001 49.6402 26.4055 50.6029 35.584Z" fill="#D7C184"/>
<path d="M30.6687 49.3744C30.6626 49.3369 30.6521 49.3005 30.6433 49.2619C30.6223 49.1184 30.2957 46.7079 30.4927 42.9082C29.7765 45.8103 28.4894 49.6105 26.4629 50.9248C27.675 50.3625 28.9501 49.9267 30.2201 49.5107C30.368 49.4643 30.5203 49.4202 30.6687 49.3744Z" fill="#D7C184"/>
<path d="M112.303 88.3116C112.195 88.8677 112.105 89.3146 111.929 90.0148C113.383 90.3535 115.759 90.6167 116.896 90.3949C117.383 89.8664 118.011 88.033 118.575 85.8311C117.216 87.1282 114.795 88.9251 112.303 88.3116Z" fill="#9F8F78"/>
<path d="M60.2017 123.899C63.6742 124.85 67.2212 125.262 70.7159 125.031C74.2215 124.792 78.7732 124.036 83.6047 122.075C82.52 121.994 81.4728 121.773 80.4759 121.418C76.9228 122.501 70.1504 124.117 63.9953 123.061C62.3661 123.597 61.0888 123.764 60.9641 123.779C60.707 123.809 60.4946 123.844 60.2017 123.899Z" fill="#9F8F78"/>
<path d="M26.5217 91.7665C26.4417 91.5083 26.3683 91.2479 26.2921 90.988C23.7526 91.4581 21.2952 90.113 19.6284 88.8374C20.168 90.5649 20.7126 91.9221 21.1203 92.3348C22.3777 92.5544 25.1595 92.1687 26.5217 91.7665Z" fill="#9F8F78"/>
<path d="M30.2765 96.0701C31.9537 97.0819 34.2213 98.3338 35.4141 98.5004C37.4555 98.7906 55.3578 93.4543 58.186 92.592C59.9383 92.0546 60.4828 91.0753 60.6428 90.4077L34.8155 96.1594C34.7498 96.1705 34.6842 96.1787 34.6218 96.1787H34.6202H34.6191C34.4409 96.1787 34.2627 96.1241 34.1104 96.0182L33.1046 95.3164L30.0878 93.2033V93.1989L28.8701 92.3487C28.8911 92.4176 28.9159 92.4861 28.9385 92.5545C29.0075 92.7547 29.0754 92.9578 29.1482 93.1548V93.1597C29.2337 93.4146 29.605 94.4894 30.2765 96.0701Z" fill="#9F8F78"/>
<path d="M109.503 91.1083C109.669 90.4986 109.83 89.8813 109.978 89.2578L109.081 89.8873L106.668 91.5773L104.057 93.4079C103.923 93.5 103.767 93.5557 103.607 93.5679C103.553 93.5712 103.501 93.5701 103.448 93.564L77.4401 90.6073L77.396 91.0128C77.785 91.4333 78.3996 91.8355 79.375 92.0882C82.2324 92.8291 100.354 97.3836 102.381 97.0035C103.938 96.7149 107.264 94.4749 108.722 93.4515C108.734 93.4162 108.747 93.3819 108.758 93.3466C108.871 93.0217 108.983 92.6956 109.093 92.3668C109.232 91.9513 109.368 91.5331 109.503 91.1083Z" fill="#9F8F78"/>
<path d="M81.985 56.0684C81.7803 56.3337 81.5558 56.6234 81.3152 56.9263C80.0799 58.4871 78.369 60.4783 76.3426 62.4319C73.9817 62.358 71.558 62.3172 69.0631 62.3172C64.9395 62.3172 60.9859 62.4259 57.2319 62.6063C62.5384 60.4071 68.9103 58.257 75.8124 56.9671C77.8267 56.5848 79.8885 56.2791 81.985 56.0684Z" fill="#6E6A67"/>
<path d="M50.9414 58.4429C49.0452 59.7742 46.9089 61.4702 44.835 63.5303C39.5263 64.0633 34.8923 64.7049 31.0728 65.3223C36.9464 62.6238 43.6515 60.1367 50.9414 58.4429Z" fill="#6E6A67"/>
<path d="M115.82 69.4057L113.658 84.5141L103.311 91.7643L76.3259 88.6956L72.2658 75.3174C72.1692 74.9935 71.8945 74.7546 71.5585 74.6978C70.5593 74.5361 69.676 74.4573 68.9378 74.4573C68.1979 74.4573 67.3146 74.5361 66.3094 74.6978C65.9778 74.7552 65.7047 74.9935 65.6037 75.3174L61.6429 88.3701L34.8103 94.3403L24.1764 86.8915L22.0776 69.9353C22.5367 69.6793 23.0018 69.4217 23.468 69.1646C24.1273 69.0228 24.8677 68.8727 25.687 68.7171L27.6622 84.7177C27.6892 84.9659 27.8294 85.1872 28.0346 85.3306L35.3521 90.4573C35.4994 90.5588 35.6798 90.6161 35.8564 90.6161C35.9221 90.6161 35.9849 90.6073 36.0539 90.5941L58.1146 85.6859C58.1913 85.6672 58.2641 85.6401 58.3353 85.6054C58.5378 85.4956 58.7011 85.3091 58.7673 85.0774L62.743 71.9977C63.8084 71.7251 66.5389 71.0851 68.9372 71.0851C71.3312 71.0851 74.0611 71.7251 75.1292 71.9977L79.1022 85.0774C79.2037 85.4156 79.5011 85.6622 79.8503 85.703L101.915 88.2095C102.127 88.2344 102.345 88.1759 102.52 88.0528L109.84 82.9356C110.037 82.7932 110.173 82.572 110.207 82.3315L112.161 68.6592C113.628 68.94 114.854 69.1977 115.82 69.4057Z" fill="#6E6A67"/>
<path d="M118.544 59.9295L116.644 67.135C112.76 66.2776 104.229 64.5965 92.6162 63.4649C96.4088 61.8473 100.272 59.8208 103.803 57.2817C110.713 58.2577 115.786 59.306 118.544 59.9295Z" fill="#6E6A67"/>
<path d="M19.5879 59.9294L20.1159 61.9239C21.594 60.7465 22.9468 59.7716 24.0883 58.9932C22.2279 59.3501 20.7106 59.6751 19.5879 59.9294Z" fill="#6E6A67"/>
<path d="M94.0919 55.9106C91.1838 55.7462 88.2773 55.6066 85.3675 55.4863C85.2004 55.7352 84.8566 56.235 84.365 56.9076C82.8059 59.0168 79.7328 62.8618 75.7935 66.1605C78.7573 65.2215 90.5151 61.2772 96.471 56.0574C95.6776 56.0061 94.8853 55.9564 94.0919 55.9106Z" fill="#93232C"/>
<path d="M72.7825 55.1427C72.7869 55.1416 72.7919 55.1411 72.7947 55.1399C71.3199 55.1206 69.8435 55.1052 68.3709 55.0991H68.3682C66.1988 55.1052 64.0344 55.1328 61.865 55.1703L57.865 57.0666C57.8589 57.0666 57.8347 57.0804 57.806 57.0997C57.204 57.3921 51.9533 60.042 47.0093 64.7692C47.4418 64.5413 47.9003 64.3052 48.3726 64.0657C51.0766 62.2489 58.2882 57.9466 69.502 55.1107C70.5955 55.1173 71.6896 55.1239 72.7825 55.1427Z" fill="#93232C"/>
<path d="M48.2023 55.626C46.3502 55.7115 44.4975 55.8064 42.647 55.9112C40.5013 56.0309 38.3623 56.1755 36.2249 56.3366C35.159 56.4188 34.0914 56.5098 33.0343 56.6207C32.7275 56.6505 32.4274 56.6836 32.1267 56.7223C29.3339 58.3918 18.6448 65.1018 11.3008 73.8842C11.4271 73.7319 11.5579 73.5813 11.6875 73.4307C25.2837 61.8312 40.1902 57.3159 48.2023 55.626Z" fill="#93232C"/>
<path d="M109.714 103.329C109.633 103.371 109.546 103.415 109.469 103.455C108.105 104.172 106.319 104.523 104.01 104.523C102.636 104.523 101.288 104.407 99.7936 104.272C96.8104 103.999 91.7605 103.405 91.7092 103.396L91.323 103.355L91.0173 103.109C90.971 103.078 86.5494 99.5515 82.9743 96.741C82.8286 96.6229 82.6973 96.5104 82.5776 96.4155C82.2002 96.0933 82.2002 96.0933 81.9756 96.0933C80.8281 96.0933 77.4945 97.1283 70.1941 99.3898L69.7461 99.5333L69.3025 99.365C69.2529 99.3523 64.4634 97.5763 58.7227 97.5763C58.2521 97.5763 57.7836 97.5879 57.3274 97.6105C56.753 97.6397 53.5265 99.173 49.3974 105.7L49.1332 106.121L48.6576 106.273C48.5892 106.296 41.4857 108.588 33.9519 110.742L33.4659 110.88L33.0013 110.665C32.9522 110.649 30.0104 109.281 27.2065 107.995C27.4129 108.091 27.6209 108.185 27.8278 108.281C30.5958 110.67 35.8962 115.265 36.4849 115.902C36.5665 115.993 36.6802 116.105 36.8154 116.232C36.6785 116.078 36.5461 115.918 36.4159 115.758C36.4143 115.757 36.4126 115.755 36.411 115.753L36.4115 115.753L36.411 115.753C37.6325 116.911 38.9952 117.911 40.4843 118.615C41.2275 118.964 42.0065 119.235 42.7983 119.366C43.1977 119.432 43.5856 119.464 43.99 119.464C44.3994 119.464 44.8181 119.452 45.2358 119.432C46.8921 119.347 48.5632 119.22 50.2311 119.058C51.8956 118.908 53.5624 118.742 55.2259 118.54C56.8876 118.361 58.5489 118.152 60.1958 117.896C61.0212 117.776 61.841 117.64 62.6421 117.462C63.0355 117.369 63.4454 117.267 63.7572 117.127C64.0413 116.991 64.3861 116.717 64.689 116.457C65.3086 115.923 65.9072 115.331 66.4998 114.742C67.0934 114.152 67.6722 113.545 68.2521 112.93C69.2275 111.908 70.0634 110.823 71.0079 109.772C71.1287 109.641 71.2523 109.502 71.3776 109.367C71.3776 109.369 71.3776 109.369 71.3798 109.369L71.3908 109.382C71.5878 109.523 71.7842 109.667 71.9767 109.818C73.1133 110.665 74.2874 111.582 75.419 112.375C76.8783 113.4 78.3558 114.428 79.8846 115.283C80.2659 115.495 80.6603 115.694 81.0372 115.819C81.0857 115.836 81.1265 115.845 81.1646 115.851C81.1922 115.867 81.2932 115.883 81.3047 115.883C81.3787 115.894 81.4785 115.899 81.5745 115.906C81.7803 115.908 81.9933 115.899 82.2068 115.889C83.0692 115.83 83.9436 115.704 84.8187 115.567C86.5665 115.294 88.3188 114.98 90.0612 114.631C91.8068 114.297 93.5508 113.939 95.2838 113.553C97.0256 113.185 98.7597 112.777 100.48 112.344C101.336 112.114 102.192 111.901 102.956 111.535C103.735 111.172 104.459 110.674 105.125 110.103C106.47 108.957 107.601 107.537 108.54 105.991C108.539 105.993 108.539 105.994 108.538 105.996C109.114 104.925 109.492 103.968 109.714 103.329Z" fill="#93232C"/>
<path d="M77.1211 21.1673H80.1953V14.9224H57.7158V21.1673H60.79V17.9955H67.147V37.2832H64.5302V40.8628H73.3798V37.2832H70.7624V17.9955H77.1211V21.1673Z" fill="#93232C"/>
<path d="M100.381 56.3335C100.376 56.3308 100.37 56.328 100.363 56.328C99.0893 56.2315 97.8165 56.1443 96.5425 56.0615C96.5188 56.0599 96.494 56.0588 96.4697 56.0571C90.5138 61.277 78.7566 65.2213 75.7922 66.1603C75.7348 66.2094 75.678 66.2585 75.6206 66.3065C79.4369 65.6196 85.1367 64.2574 91.0529 61.6378C93.9621 60.3501 96.9238 58.7595 99.7409 56.7926C99.9583 56.642 100.169 56.4842 100.381 56.3335Z" fill="#731B2A"/>
<path d="M69.5019 55.1099C58.2881 57.9452 51.0766 62.2475 48.3726 64.0643C50.5403 62.9609 53.1091 61.7438 55.9963 60.535C56.0101 60.5294 56.0255 60.5228 56.0399 60.5168C56.3334 60.3948 56.6324 60.2712 56.9326 60.1488C57.0308 60.1085 57.1273 60.0682 57.2261 60.029C57.4854 59.9237 57.748 59.8205 58.0117 59.7151C58.1585 59.6583 58.3036 59.6003 58.4515 59.543C58.6887 59.4503 58.9281 59.3576 59.1692 59.2654C59.3497 59.197 59.5301 59.1281 59.7127 59.0602C59.9334 58.9758 60.1563 58.8925 60.3808 58.8103C60.5899 58.733 60.8023 58.6563 61.0131 58.5802C61.2211 58.5046 61.4275 58.4301 61.6371 58.3557C61.8755 58.2718 62.116 58.1885 62.3582 58.1041C62.5491 58.0384 62.7389 57.9722 62.9309 57.9066C63.2139 57.8111 63.4992 57.7168 63.7855 57.6224C63.9433 57.5706 64.0989 57.5187 64.2572 57.4668C64.7052 57.3217 65.1582 57.1783 65.6139 57.0387C66.6087 56.733 67.6255 56.4417 68.6589 56.1609C70.0062 55.7951 71.3795 55.4514 72.7825 55.1419C71.6895 55.1237 70.5955 55.117 69.5019 55.1099Z" fill="#731B2A"/>
<path d="M48.2023 55.6261C40.1902 57.316 25.2837 61.8313 11.6875 73.4308C11.5579 73.5814 11.4271 73.7315 11.3008 73.8843C18.2122 69.0799 30.0925 61.9373 44.7794 57.5925C45.2528 57.4529 45.7306 57.316 46.21 57.1809C48.647 56.4967 51.1612 55.8998 53.7339 55.3999C51.8911 55.4656 50.0467 55.5417 48.2023 55.6261Z" fill="#731B2A"/>
<path d="M112.36 102.048C112.314 102.069 112.268 102.09 112.221 102.112C112.127 102.156 112.032 102.2 111.939 102.244C111.863 102.279 111.789 102.314 111.713 102.349C111.653 102.378 111.592 102.406 111.531 102.436C111.438 102.48 111.345 102.524 111.253 102.568C111.215 102.587 111.174 102.606 111.135 102.626C111.029 102.676 110.925 102.725 110.823 102.775C110.801 102.787 110.778 102.798 110.754 102.809C110.643 102.864 110.532 102.917 110.424 102.971C110.413 102.977 110.402 102.982 110.39 102.987C110.151 103.105 109.925 103.22 109.714 103.328C109.492 103.966 109.113 104.924 108.536 105.993C108.535 105.994 108.534 105.996 108.534 105.998C108.536 105.994 108.539 105.991 108.539 105.991C108.536 105.994 108.534 105.996 108.533 106C107.595 107.54 106.465 108.956 105.123 110.1C104.457 110.672 103.733 111.169 102.954 111.532C102.189 111.899 101.333 112.111 100.478 112.342C98.7577 112.775 97.0242 113.182 95.2818 113.551C93.5494 113.936 91.8054 114.294 90.0598 114.628C88.3169 114.979 86.5651 115.292 84.8162 115.564C83.9417 115.701 83.0678 115.827 82.2049 115.887C81.9908 115.898 81.7789 115.905 81.5731 115.903C81.4766 115.898 81.3767 115.892 81.3022 115.881C81.2912 115.881 81.1903 115.865 81.1632 115.848C81.1246 115.843 81.0832 115.834 81.0352 115.816C80.6578 115.692 80.2645 115.492 79.8827 115.28C78.3544 114.425 76.8763 113.398 75.4165 112.373C74.2865 111.58 73.1108 110.663 71.9748 109.815L71.8755 109.956L71.8827 109.963C71.9533 110.027 72.0245 110.086 72.0951 110.148C72.0934 110.147 72.0923 110.146 72.0901 110.145C72.0382 110.106 71.9886 110.068 71.9406 110.033L72.8929 111.169C72.8956 111.173 72.9315 111.216 73.0016 111.298C73.4876 111.869 75.5213 114.229 77.9367 116.624C79.7751 118.447 81.993 119.368 84.5376 119.368C85.406 119.368 86.3191 119.253 87.2416 119.034C88.0945 118.825 89.0231 118.603 89.9742 118.373C92.7947 117.702 95.9191 116.954 97.993 116.416C98.1309 116.379 98.2656 116.345 98.3947 116.31C98.6882 116.233 98.9541 116.161 99.1919 116.096C99.566 115.989 99.9787 115.892 100.417 115.793C102.933 115.21 106.372 114.411 108.194 110.76C108.698 109.753 109.265 108.639 109.849 107.502C110.661 105.923 111.505 104.299 112.256 102.866C112.375 102.639 112.493 102.412 112.608 102.196C112.608 102.195 112.609 102.195 112.609 102.195C112.669 102.078 112.731 101.961 112.79 101.849C112.648 101.914 112.504 101.981 112.36 102.048Z" fill="#731B2A"/>
<path d="M71.1713 109.925L71.008 109.77C70.0634 110.821 69.2265 111.907 68.2521 112.928C67.6723 113.544 67.0935 114.15 66.4998 114.74C65.9073 115.33 65.3087 115.924 64.6891 116.456C64.3856 116.716 64.0408 116.99 63.7572 117.125C63.4461 117.265 63.0356 117.368 62.6422 117.461C61.8416 117.638 61.0212 117.775 60.1958 117.895C58.5495 118.15 56.8877 118.361 55.2259 118.538C53.5625 118.74 51.8957 118.907 50.2312 119.056C48.5638 119.218 46.8921 119.345 45.2358 119.431C44.8182 119.45 44.3994 119.463 43.9901 119.463C43.5856 119.463 43.1972 119.431 42.7983 119.365C42.0061 119.233 41.227 118.963 40.4844 118.614C38.9958 117.91 37.6331 116.909 36.4116 115.752C36.4127 115.753 36.4143 115.755 36.416 115.756C36.581 115.959 36.7625 116.149 36.9357 116.343C36.8938 116.304 36.8541 116.266 36.8149 116.23C36.6803 116.104 36.5666 115.992 36.4844 115.9C35.8957 115.263 30.5947 110.668 27.8273 108.28C27.6204 108.183 27.4124 108.089 27.2061 107.993C27.6965 108.719 28.2334 109.506 28.7912 110.309C29.6016 111.476 30.4552 112.676 31.2905 113.804C31.6684 114.314 32.0436 114.811 32.4066 115.278C35.4152 119.149 39.2022 122.726 46.4695 122.726C47.3793 122.726 48.3481 122.671 49.3418 122.558C49.5735 122.533 49.7986 122.507 50.0198 122.48C50.2328 122.457 50.4425 122.433 50.6455 122.409C56.965 121.683 58.6985 121.372 59.6607 121.206C59.9095 121.163 60.1219 121.126 60.352 121.092C60.4414 121.08 60.533 121.065 60.6301 121.052C60.6654 121.049 62.8022 120.774 64.891 119.758C66.331 119.059 67.7467 118.008 68.4397 116.454C70.1887 112.542 70.544 111.607 70.5578 111.572L71.1713 109.925Z" fill="#731B2A"/>
<path d="M88.2906 74.3999C89.0635 74.3833 89.6782 73.7472 89.6649 72.9742C89.6533 72.2007 89.0144 71.5828 88.2382 71.5999C87.4657 71.6137 86.85 72.2526 86.866 73.0255C86.8776 73.7963 87.5176 74.4137 88.2906 74.3999ZM96.9013 80.7061C95.0525 79.8129 93.0315 80.9439 89.3504 81.0128C86.6095 81.1105 84.3121 81.1403 84.1615 76.8407C84.0097 72.5317 85.7626 68.9709 88.5035 68.876C91.2417 68.7795 93.7422 72.193 94.0787 76.4882C94.1714 77.6733 94.0401 78.5367 93.7471 79.1767C96.2933 78.8727 96.8738 80.6018 96.9013 80.7061Z" fill="#0E0F0D"/>
<path d="M49.0457 75.4382C49.8159 75.4189 50.4261 74.7739 50.4068 74.0037C50.3853 73.2274 49.7392 72.6183 48.9696 72.6398C48.1933 72.6564 47.5842 73.3041 47.6035 74.0749C47.6245 74.8506 48.2689 75.4602 49.0457 75.4382ZM53.2774 77.692C53.3183 81.9949 51.0396 81.7361 48.297 81.7631C48.0184 81.772 47.7563 81.7758 47.4931 81.7758C47.1875 81.7841 46.8923 81.7874 46.6087 81.7819C43.9467 81.7758 42.2474 81.6567 40.7417 82.4699C40.777 82.3772 41.4385 80.8997 43.8269 80.2978C43.5632 79.7162 43.3977 78.9069 43.3541 77.7874C43.1897 73.4867 45.8429 69.9596 48.5834 69.9347C51.3238 69.9077 53.2366 73.3885 53.2774 77.692Z" fill="#0E0F0D"/>
<path d="M105.177 48.1024C105.147 48.4809 105.119 48.7501 105.102 48.8958C104.021 48.6017 102.929 48.333 101.829 48.0759C98.2089 47.2809 94.5449 46.6911 90.8622 46.2701C90.7353 46.2541 90.6056 46.2453 90.476 46.2293C90.5008 46.1747 90.5234 46.12 90.54 46.0654C90.6498 45.6638 90.7458 45.261 90.8373 44.8583C91.7863 40.658 91.7367 36.4748 91.6296 34.4505L104.725 38.1741C105.438 42.8274 105.3 46.4781 105.177 48.1024ZM88.8887 45.6086C88.8451 45.7587 88.8506 45.9148 88.8887 46.0599C87.5176 45.9148 86.1455 45.7918 84.7745 45.6803C86.3121 42.4549 86.6481 39.021 86.7231 37.8105C87.9055 36.9719 89.0801 35.9634 89.9436 35.1794C90.0225 37.4905 89.9656 41.6847 88.8887 45.6086ZM48.5405 46.0516C48.5775 45.9126 48.5802 45.7587 48.5405 45.6086C47.4658 41.6903 47.4084 37.4966 47.4823 35.1794C48.3485 35.9634 49.5209 36.9719 50.7066 37.8105C50.7783 39.0205 51.1143 42.4467 52.652 45.6721C51.2804 45.7802 49.9093 45.9065 48.5405 46.0516ZM46.5626 46.2674C44.7259 46.4914 42.887 46.7231 41.0569 47.0265C39.2318 47.3388 37.4062 47.6709 35.5971 48.0732C34.4991 48.328 33.4117 48.5984 32.3231 48.8925C32.3132 48.8064 32.3 48.674 32.2845 48.5035C32.1582 47.154 31.9193 43.2654 32.7033 38.1725L45.7951 34.4489C45.6964 36.3976 45.6429 40.3463 46.4842 44.3843C46.6012 44.9449 46.7342 45.506 46.8876 46.0643C46.9041 46.1189 46.9262 46.1736 46.9505 46.2232C46.8186 46.2398 46.6928 46.2508 46.5626 46.2674ZM112.195 51.5545C112.084 51.501 111.974 51.4464 111.869 51.3945C111.706 51.3167 111.527 51.2274 111.321 51.1275C111.309 51.1214 111.3 51.117 111.3 51.117C111.184 51.0602 111.069 50.9945 110.957 50.9223C109.745 50.3623 108.475 49.9286 107.207 49.5126C107.057 49.4635 106.909 49.4194 106.759 49.3758C106.77 49.3383 106.781 49.2991 106.787 49.261C106.806 49.1176 107.131 46.7093 106.935 42.914C106.852 41.293 106.672 39.4194 106.333 37.3598C106.278 37.0309 106.038 36.7645 105.722 36.6734L103.855 36.1454C103.454 21.7024 97.5071 14.9151 97.3212 14.7049C102.633 23.2549 102.587 33.3945 102.494 35.7576L90.9223 32.4682C90.914 32.4682 90.9063 32.4682 90.8953 32.4632C90.8484 32.4516 90.796 32.4461 90.7469 32.4412C90.7358 32.4412 90.7231 32.4389 90.7044 32.4389C90.6442 32.4356 90.578 32.4412 90.5151 32.4549C90.5063 32.4549 90.4964 32.4638 90.4842 32.4638C90.4329 32.4743 90.386 32.4908 90.3347 32.5151C90.3165 32.5234 90.3 32.5349 90.2834 32.5399C90.2442 32.5664 90.2062 32.5885 90.1681 32.6161C90.1598 32.6221 90.1488 32.6271 90.1405 32.6348C90.1289 32.6431 90.1251 32.6514 90.1185 32.6569C90.1074 32.6685 90.0942 32.6762 90.0854 32.6845C90.0743 32.6961 89.7626 33.0012 89.2787 33.458C89.3129 32.3755 89.3212 30.7192 89.1982 28.6966C89.186 28.5046 89.1739 28.3098 89.1607 28.1129C88.7971 23.0315 87.596 15.8938 84.0065 9.64557C84.0374 9.7355 84.3921 10.7722 84.8511 12.5184C86.0065 16.9118 87.8255 25.8028 86.834 35.4514C86.8291 35.4955 86.8258 35.5391 86.8214 35.5838C86.8065 35.5959 86.7899 35.6075 86.7745 35.6196C86.322 35.9788 85.8603 36.3292 85.4029 36.6381C85.1739 36.797 85.031 37.0558 85.0255 37.3349C85.0255 37.3785 84.924 41.6919 83.0205 45.3647C82.9863 45.4249 82.9687 45.4856 82.9494 45.5479C78.2111 45.2235 73.4597 45.0845 68.7132 45.0812C63.97 45.0839 59.2153 45.2147 54.4743 45.5369C54.4556 45.4795 54.4362 45.4194 54.4087 45.3647C52.5019 41.6919 52.4037 37.3785 52.4009 37.3349C52.396 37.0558 52.2558 36.7965 52.0269 36.6381C51.554 36.3181 51.0674 35.9556 50.6023 35.5832C49.6396 26.4047 51.2285 17.8994 52.3849 13.2715C52.9339 11.0745 53.3869 9.74654 53.4227 9.64502C48.2145 18.7082 48.034 29.6434 48.1493 33.4574C47.6567 33.0006 47.3516 32.6961 47.3433 32.6839C47.3345 32.6756 47.3185 32.6679 47.3074 32.6563C47.3019 32.6508 47.2964 32.6425 47.2887 32.6343C47.2798 32.6265 47.2694 32.6216 47.2583 32.6155C47.2202 32.5879 47.1811 32.5658 47.143 32.5449C47.1242 32.5344 47.1105 32.5228 47.0884 32.5145C47.0387 32.4903 46.9962 32.4737 46.9466 32.4682C46.9328 32.4632 46.9223 32.4544 46.9135 32.4544C46.8478 32.4412 46.7822 32.4351 46.7215 32.4384C46.7055 32.4384 46.6884 32.4406 46.6724 32.4406C46.6255 32.4456 46.5797 32.4511 46.5306 32.4627C46.5196 32.4676 46.514 32.4676 46.503 32.4676L34.9344 35.757C34.8412 33.3934 34.7916 23.2538 40.1036 14.7043C39.9193 14.9162 33.9739 21.7035 33.5695 36.1465L31.7118 36.674C31.3869 36.765 31.1485 37.0315 31.095 37.3609C30.7557 39.4177 30.5775 41.2892 30.4925 42.9085C30.2961 46.7082 30.6222 49.1187 30.6431 49.2621C30.652 49.3002 30.6624 49.3366 30.6685 49.3747C30.5201 49.4205 30.3678 49.4646 30.22 49.5109C28.9499 49.9269 27.6754 50.3628 26.4627 50.925C26.3513 50.9962 26.2371 51.0618 26.1207 51.1181C26.1207 51.1181 26.1129 51.122 26.1019 51.1286C25.8956 51.2285 25.7157 51.3173 25.554 51.3956C25.4619 51.4409 25.3648 51.4878 25.2693 51.5347C25.2092 51.5694 25.1474 51.5998 25.0884 51.6351C25.9469 51.298 26.8346 51.0519 27.7218 50.834C28.6128 50.6122 29.5093 50.4158 30.4048 50.2458C32.2062 49.9109 34.012 49.6202 35.8288 49.3989C37.6407 49.1612 39.4602 48.9647 41.2826 48.8119C43.106 48.6563 44.9256 48.5029 46.7529 48.3976C54.0594 47.965 61.3847 47.8287 68.7132 47.826C76.0434 47.8315 83.3681 47.9457 90.6735 48.3948C92.5014 48.5007 94.3209 48.653 96.1466 48.8075C97.9722 48.9625 99.7852 49.1617 101.597 49.3995C103.414 49.618 105.224 49.9076 107.022 50.2442C107.92 50.4169 108.815 50.6072 109.701 50.834C110.595 51.0525 111.478 51.2985 112.339 51.6356C112.291 51.6064 112.242 51.5816 112.195 51.5545Z" fill="#0E0F0D"/>
<path d="M70.7623 17.9957V37.2835H73.3796V40.863H64.53V37.2835H67.1468V17.9957H60.7898V21.1681H57.7162V14.9226H80.1951V21.1676H77.1214V17.9952H70.7623V17.9957ZM82.5096 23.4771V12.6104H55.4072V23.4771H63.1038V20.3047H64.8329V34.9695H62.2216V43.1692H75.6914V34.9695H73.0718V20.3047H74.8075V23.4771H82.5096Z" fill="#0E0F0D"/>
</g>
<defs>
<clipPath id="clip0_403_193">
<rect width="128" height="128" fill="white"/>
</clipPath>
</defs>
</svg>
