<svg width="30" height="30" viewBox="0 0 30 30" fill="none" xmlns="http://www.w3.org/2000/svg">
<path d="M3.75 15C3.75 8.78681 8.78681 3.75 15 3.75V5C9.47712 5 5 9.47712 5 15C5 20.5229 9.47712 25 15 25C20.5229 25 25 20.5229 25 15C25 14.0009 24.8535 13.0361 24.5808 12.1257L25.7784 11.7665C26.0852 12.7906 26.25 13.8761 26.25 15C26.25 21.2132 21.2132 26.25 15 26.25C8.78681 26.25 3.75 21.2132 3.75 15Z" fill="#3F3F3F"/>
<path d="M11.5813 8.71974C11.2824 8.89237 11.1799 9.27462 11.3525 9.57356C11.5251 9.87249 11.9074 9.97487 12.2063 9.80231L12.7916 9.46437L12.5092 11.8084C12.4809 12.0434 12.5877 12.2742 12.7853 12.4047C12.9829 12.5351 13.2372 12.5427 13.4422 12.4244L15.3184 11.3411C15.6174 11.1685 15.7198 10.7863 15.5473 10.4874C15.3746 10.1884 14.9924 10.086 14.6934 10.2586L13.8997 10.7169L14.1821 8.37287C14.2104 8.13787 14.1035 7.90699 13.9059 7.77656C13.7084 7.64612 13.4541 7.63849 13.2491 7.75687L11.5813 8.71974Z" fill="#3F3F3F"/>
<path d="M16.1358 5.8088C16.0464 5.47538 16.2443 5.13267 16.5778 5.04333L18.9926 4.39629C19.2212 4.33502 19.4649 4.4082 19.6219 4.58532C19.779 4.76245 19.8225 5.0131 19.7343 5.2328L18.4539 8.42294L19.9631 8.0185C20.2965 7.92919 20.6393 8.12706 20.7286 8.46044C20.8179 8.79387 20.6201 9.13656 20.2866 9.22594L17.5699 9.95387C17.3413 10.0151 17.0976 9.94194 16.9406 9.76481C16.7835 9.58769 16.74 9.337 16.8282 9.11731L18.1086 5.92722L16.9013 6.25075C16.5678 6.34006 16.2251 6.14222 16.1358 5.8088Z" fill="#3F3F3F"/>
<path d="M22.8472 3.75C22.5021 3.75 22.2222 4.02983 22.2222 4.375C22.2222 4.72018 22.5021 5 22.8472 5H24.4974L21.97 9.04375C21.8496 9.23644 21.8432 9.47925 21.9534 9.678C22.0635 9.87669 22.2728 10 22.5 10H25.625C25.9702 10 26.25 9.72019 26.25 9.375C26.25 9.02981 25.9702 8.75 25.625 8.75H23.6276L26.155 4.70625C26.2754 4.51358 26.2818 4.27074 26.1716 4.07202C26.0615 3.8733 25.8522 3.75 25.625 3.75H22.8472Z" fill="#3F3F3F"/>
<path d="M8.05525 16.941C8.10269 17.4056 8.51931 17.7518 9.00244 17.9054C9.50725 18.0659 10.162 18.0522 10.8569 17.7515C11.5793 17.439 12.0021 16.8784 12.1894 16.3169C12.3704 15.7744 12.3454 15.1797 12.0941 14.8014C12.035 14.7125 11.9347 14.6599 11.828 14.6619C11.7213 14.6638 11.623 14.72 11.5673 14.811C10.7589 16.1307 9.60231 16.7116 8.39538 16.5982C8.30231 16.5894 8.21019 16.6228 8.14431 16.6892C8.07844 16.7556 8.04575 16.848 8.05525 16.941Z" fill="#3F3F3F"/>
<path d="M20.1751 13.6936C20.3664 14.1196 20.1787 14.6277 19.8371 15.0023C19.4801 15.3937 18.9062 15.7092 18.1541 15.7963C17.3722 15.8868 16.7257 15.6127 16.2828 15.2201C15.8548 14.8408 15.5791 14.3132 15.6076 13.8599C15.6143 13.7534 15.6749 13.6577 15.7682 13.6061C15.8616 13.5544 15.9749 13.554 16.0687 13.6049C17.4286 14.3436 18.7206 14.2683 19.7091 13.5667C19.7854 13.5126 19.8819 13.4954 19.9721 13.5199C20.0624 13.5446 20.1368 13.6082 20.1751 13.6936Z" fill="#3F3F3F"/>
<path d="M20.2799 19.9094C18.8731 17.9818 16.7882 16.9627 14.8379 17.4853C12.8877 18.0078 11.5917 19.9328 11.3372 22.3056C11.2656 22.9736 11.9142 23.445 12.5632 23.2711L19.7009 21.3586C20.3499 21.1847 20.6759 20.4521 20.2799 19.9094Z" fill="#3F3F3F"/>
</svg>
