<svg width="30" height="30" viewBox="0 0 30 30" fill="none" xmlns="http://www.w3.org/2000/svg">
<path fill-rule="evenodd" clip-rule="evenodd" d="M3.75 3.75H23.125V6.875H21.875V5H5V19.375H18.3669V20.625H3.75V3.75ZM22.5 11.875C23.5356 11.875 24.375 11.0356 24.375 10C24.375 8.96444 23.5356 8.125 22.5 8.125C21.4644 8.125 20.625 8.96444 20.625 10C20.625 11.0356 21.4644 11.875 22.5 11.875ZM23.7696 13.1317C24.5812 13.1317 25.2239 13.4961 25.6439 14.0599C26.0372 14.5878 26.2036 15.2415 26.2413 15.8442C26.2795 16.4561 26.191 17.0975 25.9934 17.6688C25.8051 18.2129 25.4884 18.7754 25 19.1612V25.3125C25 25.8003 24.6259 26.2066 24.1398 26.2468C23.6537 26.2871 23.2179 25.9478 23.1378 25.4666L22.3308 20.625H22.1453L21.2339 25.4853C21.1448 25.9611 20.7078 26.2908 20.2257 26.246C19.7437 26.2012 19.375 25.7966 19.375 25.3125V16.3955C19.3046 16.5027 19.2394 16.6033 19.1819 16.6926C19.1079 16.8076 19.047 16.9033 19.0049 16.97L18.9564 17.0469L18.9441 17.0666L18.9404 17.0725C18.7693 17.3472 18.4683 17.5144 18.1446 17.5144H15.0196C14.5019 17.5144 14.0821 17.0947 14.0821 16.5769C14.0821 16.0591 14.5019 15.6394 15.0196 15.6394H17.63C17.7816 15.4045 17.9816 15.0996 18.1917 14.7931C18.4106 14.4736 18.652 14.1356 18.8664 13.8709C18.9712 13.7415 19.0883 13.6062 19.2058 13.4952C19.2633 13.441 19.3436 13.3708 19.4406 13.3084C19.5099 13.264 19.7234 13.1317 20.0196 13.1317H23.7696Z" fill="#3F3F3F"/>
</svg>
