<svg width="30" height="30" viewBox="0 0 30 30" fill="none" xmlns="http://www.w3.org/2000/svg">
<path fill-rule="evenodd" clip-rule="evenodd" d="M7.5 4.375C7.5 4.02983 7.77981 3.75 8.125 3.75H21.875C22.2202 3.75 22.5 4.02983 22.5 4.375V5H25.625C25.9702 5 26.25 5.27982 26.25 5.625V9.375C26.25 11.1009 24.8509 12.5 23.125 12.5H22.0732C21.1779 15.0331 18.9604 16.9416 16.25 17.3963V21.25H20C20.3452 21.25 20.625 21.5298 20.625 21.875V25.625C20.625 25.9702 20.3452 26.25 20 26.25H10C9.65481 26.25 9.375 25.9702 9.375 25.625V21.875C9.375 21.5298 9.65481 21.25 10 21.25H13.75V17.3963C11.0396 16.9416 8.82206 15.0331 7.92675 12.5H6.875C5.14911 12.5 3.75 11.1009 3.75 9.375V5.625C3.75 5.27982 4.02983 5 4.375 5H7.5V4.375ZM22.5 10V6.25H25V9.375C25 10.4106 24.1606 11.25 23.125 11.25H22.5V10ZM7.5 6.25H5V9.375C5 10.4106 5.83947 11.25 6.875 11.25H7.5V10V6.25Z" fill="#3F3F3F"/>
</svg>
