<svg width="25" height="25" viewBox="0 0 25 25" fill="none" xmlns="http://www.w3.org/2000/svg">
<path fill-rule="evenodd" clip-rule="evenodd" d="M12.5 5.62499C14.7189 5.62499 16.5177 4.3658 16.5177 2.81249C16.5177 1.2592 14.7189 0 12.5 0C10.2811 0 8.48228 1.2592 8.48228 2.81249C8.48228 4.3658 10.2811 5.62499 12.5 5.62499ZM24.9282 7.15024C25.2042 7.81298 24.6603 8.50692 23.7135 8.70004C21.5927 9.13273 19.6764 9.45854 17.8569 9.67573V16.8715V16.875V23.75C17.8569 24.4183 17.106 24.9684 16.1522 24.9987C15.1985 25.0289 14.3794 24.5287 14.293 23.8631L13.4001 16.9882C13.3952 16.9503 13.3928 16.9126 13.3928 16.875H11.6072C11.6072 16.9126 11.6048 16.9503 11.5998 16.9882L10.707 23.8631C10.6206 24.5287 9.80152 25.0289 8.84781 24.9987C7.89409 24.9684 7.14305 24.4183 7.14305 23.75V9.65267C5.32829 9.43361 3.4189 9.11436 1.30871 8.70448C0.358387 8.51992 -0.1982 7.83098 0.0654513 7.1658C0.329192 6.50055 1.31326 6.11092 2.26358 6.29549C6.37799 7.09467 9.46957 7.4903 12.5078 7.4998C15.5398 7.5093 18.6236 7.13448 22.7143 6.29992C23.6611 6.10674 24.6523 6.48742 24.9282 7.15024Z" fill="#3F3F3F"/>
</svg>
