<svg width="30" height="30" viewBox="0 0 30 30" fill="none" xmlns="http://www.w3.org/2000/svg">
<path fill-rule="evenodd" clip-rule="evenodd" d="M6.30285 4.35784C6.2736 4.01389 5.97112 3.75876 5.62718 3.78799L4.38167 3.8938C4.03773 3.92302 3.7826 4.22552 3.81182 4.56946L4.01723 6.98731C3.81955 7.12537 3.71158 7.372 3.76225 7.6235C3.80285 7.825 3.93616 7.98419 4.10883 8.06556L4.32772 10.6421C4.35694 10.986 4.65945 11.2411 5.00338 11.2119L6.24889 11.1061C6.59284 11.0769 6.84797 10.7744 6.81872 10.4304L6.58797 7.71419C6.90603 7.65737 7.21897 7.60344 7.52722 7.55237C7.59335 8.58269 7.78316 10.3324 8.13516 11.98C8.35953 13.03 8.66753 14.1264 9.09472 14.9886C9.30785 15.4186 9.58353 15.859 9.94916 16.2064C10.2727 16.5139 10.7098 16.7857 11.25 16.8569V19.5642C11.1818 19.5399 11.114 19.5156 11.0465 19.4914L10.9071 19.4414H10.907C10.279 19.2162 9.64072 18.9873 9.15341 18.8643C8.91666 18.8046 8.5586 18.7262 8.20766 18.7572C8.02916 18.7731 7.69453 18.8291 7.38591 19.0801C7.01866 19.3788 6.87497 19.7968 6.87497 20.1645C6.87497 20.6789 7.0506 22.0016 7.19966 23.059C7.27847 23.6179 7.35722 24.1507 7.41616 24.5434C7.4456 24.7398 7.47022 24.9015 7.48747 25.0142L7.50747 25.1449L7.51285 25.1794L7.51422 25.1884L7.5146 25.1907L7.51466 25.1914L7.51472 25.1916C7.51472 25.1916 7.51472 25.1916 8.74997 25.0001L7.51472 25.1916C7.61222 25.8201 8.16603 26.2752 8.80153 26.2489C9.43697 26.2227 9.95147 25.7235 9.99678 25.0891L10.2278 21.8537C10.9222 22.1024 11.7326 22.3896 12.5328 22.6146C13.3285 22.8382 14.202 23.0264 15 23.0264C15.7979 23.0264 16.6714 22.8381 17.467 22.6146C18.2606 22.3915 19.0643 22.1071 19.7547 21.8599L20.0036 25.0959C20.0523 25.7287 20.5675 26.2246 21.2018 26.2491C21.836 26.2736 22.3879 25.8188 22.4852 25.1916L21.25 25.0001C22.4852 25.1916 22.4852 25.1916 22.4852 25.1916L22.4852 25.1914L22.4853 25.1907L22.4857 25.1884L22.487 25.1794L22.4924 25.1449L22.5124 25.0142C22.5297 24.9015 22.5543 24.7398 22.5837 24.5434C22.6427 24.1507 22.7214 23.6179 22.8002 23.059C22.9493 22.0016 23.125 20.6789 23.125 20.1645C23.125 19.7968 22.9812 19.3788 22.614 19.0801C22.3054 18.8291 21.9708 18.7731 21.7923 18.7572C21.4413 18.7262 21.0832 18.8046 20.8465 18.8643C20.3592 18.9873 19.7209 19.2162 19.0928 19.4414L18.9534 19.4914C18.8859 19.5156 18.818 19.5399 18.75 19.5642V16.8597C19.9307 16.7281 20.6467 15.7708 21.0415 15.0086C21.4986 14.1262 21.797 13.0104 22 11.9548C22.3172 10.3058 22.4428 8.57344 22.4834 7.56C22.788 7.61006 23.0972 7.66287 23.4115 7.7185L23.1812 10.4304C23.1519 10.7744 23.407 11.0769 23.751 11.1061L24.9965 11.2119C25.3404 11.2411 25.643 10.986 25.6722 10.6421L25.891 8.06556C26.0642 7.984 26.1977 7.82419 26.2379 7.62212C26.2879 7.371 26.1799 7.12512 25.9827 6.98731L26.188 4.56946C26.2173 4.22552 25.9622 3.92302 25.6182 3.8938L24.3727 3.78799C24.0288 3.75876 23.7263 4.01389 23.697 4.35784L23.5178 6.46806C23.1192 6.39812 22.7285 6.33262 22.3448 6.2715C22.1319 5.88606 21.7214 5.62503 21.25 5.62503C20.9063 5.62503 20.5951 5.76368 20.3691 5.98809C16.5712 5.50877 13.3558 5.50968 9.62397 5.98139C9.3986 5.76092 9.0901 5.62503 8.74997 5.62503C8.28128 5.62503 7.87285 5.88295 7.65884 6.26462C7.2736 6.32644 6.88153 6.39275 6.48172 6.46356L6.30285 4.35784ZM10.58 11.4576C10.222 9.78237 10.0516 8.0005 10.0102 7.19275C13.4668 6.77187 16.4758 6.77181 19.9945 7.20094C19.9709 8.0335 19.8643 9.82219 19.545 11.4827C19.3573 12.4584 19.1133 13.2957 18.8217 13.8587C18.6232 14.2417 18.487 14.3492 18.4418 14.3751H18.4294H18.4152H18.401H18.3867H18.3725H18.3582H18.344H18.3297H18.3155H18.3013H18.287H18.2728H18.2585H18.2443H18.2301H18.2158H18.2016H18.1873H18.1731H18.1588H18.1447H18.1304H18.1162H18.1019H18.0877H18.0735H18.0592H18.045H18.0308H18.0165H18.0023H17.988H17.9738H17.9596H17.9453H17.9311H17.9169H17.9027H17.8884H17.8742H17.86H17.8458H17.8315H17.8173H17.8031H17.7888H17.7747H17.7604H17.7462H17.732H17.7177H17.7035H17.6893H17.6751H17.6608H17.6467H17.6325H17.6182H17.604H17.5898H17.5756H17.5614H17.5472H17.533H17.5188H17.5045H17.4903H17.4762H17.4619H17.4477H17.4335H17.4193H17.4052H17.391H17.3767H17.3625H17.3483H17.3342H17.32H17.3058H17.2916H17.2774H17.2632H17.249H17.2348H17.2207H17.2065H17.1923H17.1782H17.164H17.1498H17.1356H17.1214H17.1073H17.0931H17.0789H17.0648H17.0506H17.0364H17.0223H17.0081H16.994H16.9798H16.9657H16.9515H16.9373H16.9232H16.909H16.8949H16.8807H16.8666H16.8525H16.8383H16.8242H16.81H16.7959H16.7818H16.7677H16.7535H16.7394H16.7253H16.7112H16.697H16.6829H16.6688H16.6547H16.6405H16.6265H16.6123H16.5982H16.5841H16.57H16.5559H16.5418H16.5277H16.5137H16.4995H16.4855H16.4713H16.4573H16.4432H16.4291H16.415H16.401H16.3868H16.3728H16.3587H16.3447H16.3306H16.3165H16.3025H16.2884H16.2743H16.2603H16.2463H16.2322H16.2182H16.2041H16.1901H16.176H16.162H16.148H16.1339H16.1199H16.1058H16.0918H16.0778H16.0638H16.0498H16.0358H16.0218H16.0078H15.9938H15.9798H15.9658H15.9518H15.9378H15.9238H15.9098H15.8958H15.8818H15.8678H15.8538H15.8399H15.8259H15.812H15.798H15.784H15.77H15.7561H15.7422H15.7282H15.7142H15.7003H15.6863H15.6724H15.6585H15.6445H15.6306H15.6167H15.6028H15.5888H15.5749H15.561H15.5471H15.5332H15.5193H15.5054H15.4915H15.4776H15.4637H15.4498H15.436H15.422H15.4082H15.3943H15.3804H15.3666H15.3527H15.3388H15.325H15.3112H15.2973H15.2834H15.2696H15.2558H15.2419H15.2281H15.2143H15.2004H15.1866H15.1728H15.159H15.1452H15.1313H15.1175H15.1037H15.09H15.0762H15.0623H15.0486H15.0348H15.021H15.0073H14.9935H14.9797H14.966H14.9522H14.9385H14.9247H14.911H14.8972H14.8835H14.8697H14.856H14.8423H14.8285H14.8148H14.8011H14.7874H14.7737H14.76H14.7463H14.7326H14.7189H14.7052H14.6915H14.6778H14.6642H14.6505H14.6368H14.6232H14.6095H14.5959H14.5822H14.5686H14.555H14.5413H14.5277H14.514H14.5005H14.4868H14.4732H14.4596H14.446H14.4324H14.4188H14.4052H14.3916H14.378H14.3645H14.3509H14.3373H14.3238H14.3102H14.2967H14.2831H14.2695H14.256H14.2425H14.229H14.2154H14.2019H14.1884H14.1748H14.1613H14.1478H14.1343H14.1208H14.1073H14.0939H14.0804H14.0669H14.0535H14.04H14.0265H14.0131H13.9997H13.9862H13.9728H13.9593H13.9459H13.9325H13.919H13.9057H13.8922H13.8788H13.8654H13.852H13.8387H13.8253H13.8119H13.7985H13.7852H13.7718H13.7584H13.7451H13.7317H13.7184H13.705H13.6917H13.6784H13.665H13.6517H13.6384H13.6252H13.6118H13.5985H13.5853H13.572H13.5587H13.5454H13.5322H13.5189H13.5057H13.4924H13.4792H13.4659H13.4527H13.4395H13.4262H13.413H13.3998H13.3866H13.3734H13.3602H13.347H13.3338H13.3207H13.3075H13.2943H13.2812H13.268H13.2548H13.2417H13.2286H13.2155H13.2023H13.1892H13.1761H13.163H13.1499H13.1368H13.1237H13.1107H13.0975H13.0845H13.0714H13.0583H13.0453H13.0323H13.0192H13.0062H12.9932H12.9802H12.9672H12.9541H12.9411H12.9281H12.9152H12.9022H12.8892H12.8762H12.8632H12.8503H12.8373H12.8243H12.8114H12.7985H12.7856H12.7727H12.7597H12.7468H12.7339H12.721H12.7082H12.6953H12.6824H12.6695H12.6567H12.6438H12.631H12.6181H12.6053H12.5924H12.5796H12.5668H12.554H12.5412H12.5284H12.5156H12.5028H12.49H12.4773H12.4645H12.4517H12.439H12.4263H12.4135H12.4008H12.3881H12.3753H12.3627H12.35H12.3373H12.3246H12.3119H12.2992H12.2865H12.2739H12.2612H12.2486H12.236H12.2233H12.2107H12.1981H12.1855H12.1728H12.1603H12.1477H12.1351H12.1225H12.11H12.0974H12.0848H12.0723H12.0598H12.0472H12.0347H12.0222H12.0097H11.9972H11.9847H11.9722H11.9597H11.9472H11.9348H11.9223H11.9099H11.8974H11.885H11.8726H11.8602H11.8477H11.8353H11.8229H11.8105H11.7982H11.7858H11.7734H11.7611H11.7487H11.7363H11.724H11.7117H11.6994H11.6871H11.6748H11.6625H11.6521C11.5795 14.2992 11.4675 14.1464 11.3348 13.8786C11.0459 13.2956 10.7897 12.4388 10.58 11.4576ZM17.8125 10.3126C17.8125 11.8658 16.5532 13.1251 15 13.1251C13.4467 13.1251 12.1875 11.8658 12.1875 10.3126C12.1875 8.75925 13.4467 7.50006 15 7.50006C16.5532 7.50006 17.8125 8.75925 17.8125 10.3126Z" fill="#3F3F3F"/>
</svg>
