<svg width="130" height="100" viewBox="0 0 130 100" fill="none" xmlns="http://www.w3.org/2000/svg">
<g clip-path="url(#clip0_330_38)">
<path fill-rule="evenodd" clip-rule="evenodd" d="M27.2982 70.198C60.9356 69.6659 44.2938 8.71188 26.7623 1.21213C15.9846 -2.6905 9.17017 6.731 4.96423 15.0586C-0.566181 26.0076 -0.839163 37.7254 1.07171 49.5515C3.23534 63.2797 10.8081 69.2421 24.9222 70.1093L27.2982 70.198Z" fill="#B3C5C7"/>
<path fill-rule="evenodd" clip-rule="evenodd" d="M32.7679 33.3202C21.5049 7.48992 6.77399 33.5075 11.354 50.9215C13.1436 57.6427 17.673 60.1163 24.5279 60.1163C34.6384 60.2149 36.2459 52.2322 35.4169 44.013C35.0344 40.3611 34.1433 36.777 32.7679 33.3596V33.3202Z" fill="#9CAAAB"/>
<path fill-rule="evenodd" clip-rule="evenodd" d="M85.4635 29.181C88.1327 19.4047 98.2431 -5.81454 112.58 1.22202C123.701 7.47017 128.524 28.4517 129.767 40.0709C131.527 56.4305 124.237 68.7198 106.433 69.8827L104.785 69.9517C96.2716 70.07 89.9829 68.641 85.9387 60.4218C81.5205 51.424 83.1381 38.5828 85.4939 29.181H85.4635Z" fill="#B3C5C7"/>
<path fill-rule="evenodd" clip-rule="evenodd" d="M97.0602 32.8668C110.709 3.19303 126.269 43.4217 116.664 55.1098C113.702 58.707 109.769 59.4658 105.31 59.6235C91.641 60.609 92.9351 42.8698 97.0602 32.8668Z" fill="#9CAAAB"/>
<path fill-rule="evenodd" clip-rule="evenodd" d="M29.391 30.748C35.0124 17.9856 46.7608 8.08124 60.9558 5.71601C77.2842 3.00584 94.118 14.6645 100.478 28.8066L101.074 30.1666C106.129 42.4362 113.581 68.9169 106.301 81.226C96.858 97.2209 73.5332 97.7432 56.9824 96.0875C41.3517 94.4122 21.8385 90.7362 21.2319 71.8045C20.9589 58.0073 24.265 43.5597 29.3708 30.748H29.391Z" fill="#D3DEE0"/>
<path fill-rule="evenodd" clip-rule="evenodd" d="M101.104 30.1665C106.16 42.3968 113.581 68.8184 106.412 81.1077C94.9471 99.4481 67.7096 98.0191 48.7829 94.9049C51.816 88.5089 45.1027 84.1825 52.827 88.6173C57.2251 91.1599 60.9659 90.2335 64.1912 86.6463C67.3557 82.5761 65.3741 91.7611 69.6609 92.2834C77.6785 93.2689 89.1842 89.1002 95.0785 83.739C100.781 78.5355 103.389 72.4943 102.955 65.0143C100.821 44.3481 96.0491 14.9896 73.4321 6.23828C79.5819 7.96561 85.2581 11.0105 90.0458 15.1504C94.8335 19.2904 98.6117 24.4207 101.104 30.1665ZM22.0408 76.87C26.0142 85.5031 35.1843 85.3651 43.2019 82.4283C43.4648 82.3199 44.0815 86.9124 44.2129 87.5727C44.8297 91.0417 45.5576 90.066 40.1688 90.7657C41.1884 91.5384 42.029 92.5123 42.6357 93.6237C39.8452 92.9043 40.6136 93.1014 38.5915 90.953C38.4904 90.8544 35.8415 91.3275 35.5584 91.288C33.3644 90.9825 27.8745 86.8631 26.2871 85.0793C23.4057 81.9749 22.6575 79.7378 21.6667 75.9633L22.0408 76.87Z" fill="#B3C5C7"/>
<path fill-rule="evenodd" clip-rule="evenodd" d="M70.035 76.1801C70.6113 74.6132 70.308 74.7905 68.8521 73.0856C61.6737 64.9748 54.5054 61.7818 44.0512 66.5319C42.4032 76.663 35.154 91.6527 22.5463 89.7506C15.3274 88.6863 16.8844 96.462 19.1087 97.7826C24.8515 101.202 40.2294 100.118 46.7102 98.1571C58.3979 94.6092 65.7178 87.1784 70.035 76.1801Z" fill="#D3DEE0"/>
<path fill-rule="evenodd" clip-rule="evenodd" d="M81.4193 41.9237C78.7704 41.9237 76.627 45.1956 76.627 49.2461C76.627 53.2965 78.7704 56.5783 81.4193 56.5783C84.0683 56.5783 86.2117 53.2965 86.2117 49.2461C86.2117 45.1956 84.0683 41.9237 81.4193 41.9237Z" fill="#323334"/>
<path fill-rule="evenodd" clip-rule="evenodd" d="M81.4193 60.4218C76.5967 60.4218 72.6839 61.8606 72.6839 63.6148C74.2005 69.4491 95.1898 66.4827 89.174 62.1464C87.152 60.7174 83.7852 60.5006 81.4193 60.4218Z" fill="#EC6D58"/>
<path d="M88.3147 41.3915C88.3518 41.2498 88.36 41.1023 88.3387 40.9575C88.3174 40.8127 88.2671 40.6735 88.1906 40.5476C88.0361 40.2935 87.7843 40.1096 87.4907 40.0364C87.3453 40.0002 87.194 39.9922 87.0455 40.013C86.8969 40.0337 86.754 40.0828 86.6249 40.1574C86.3642 40.308 86.1756 40.5534 86.1005 40.8396C86.1005 40.8396 85.3018 44.0031 82.7539 44.0425C82.5955 44.028 82.4358 44.0458 82.2849 44.0949C82.134 44.144 81.9953 44.2233 81.8776 44.3276C81.76 44.432 81.666 44.5592 81.6016 44.701C81.5373 44.8428 81.5041 44.9962 81.5041 45.1512C81.5041 45.3063 81.5373 45.4597 81.6016 45.6015C81.666 45.7433 81.76 45.8705 81.8776 45.9749C81.9953 46.0792 82.134 46.1585 82.2849 46.2076C82.4358 46.2567 82.5955 46.2745 82.7539 46.2599C87.061 46.191 88.2843 41.4014 88.2843 41.3915H88.3147Z" fill="#323334"/>
<path d="M89.1033 45.7771C89.216 45.6729 89.3058 45.5475 89.3671 45.4084C89.4285 45.2693 89.46 45.1194 89.4599 44.968C89.4598 44.8166 89.4281 44.6668 89.3666 44.5278C89.305 44.3887 89.2151 44.2634 89.1022 44.1594C88.9893 44.0554 88.8559 43.9749 88.71 43.9229C88.5641 43.8709 88.4089 43.8484 88.2538 43.8568C88.0987 43.8653 87.947 43.9045 87.808 43.972C87.6689 44.0395 87.5455 44.1339 87.4452 44.2495C87.4452 44.2495 85.6354 46.1516 83.8661 45.2351C83.5979 45.0965 83.2843 45.0675 82.9942 45.1544C82.7041 45.2412 82.4613 45.4369 82.3192 45.6982C82.1771 45.9596 82.1473 46.2653 82.2364 46.5481C82.3255 46.8309 82.5262 47.0676 82.7944 47.2061C86.1207 48.9307 89.1033 45.7771 89.1033 45.7771Z" fill="#323334"/>
<path fill-rule="evenodd" clip-rule="evenodd" d="M80.1859 43.8652C79.2759 43.8652 78.5379 44.9887 78.5379 46.3783C78.5379 47.7679 79.2759 48.8815 80.1859 48.8815C81.0958 48.8815 81.8238 47.758 81.8238 46.3783C81.8238 44.9986 81.0857 43.8652 80.1859 43.8652Z" fill="white"/>
<path fill-rule="evenodd" clip-rule="evenodd" d="M44.0411 41.9237C41.3921 41.9237 39.2487 45.1956 39.2487 49.2461C39.2487 53.2965 41.3921 56.5783 44.0411 56.5783C46.69 56.5783 48.8334 53.2965 48.8334 49.2756C48.8334 45.2547 46.69 41.9533 44.0411 41.9533V41.9237Z" fill="#323334"/>
<path fill-rule="evenodd" clip-rule="evenodd" d="M44.0411 60.4218C48.8637 60.4218 52.7765 61.8606 52.7765 63.6148C51.2902 69.3505 30.119 66.5714 36.256 62.1563C38.2781 60.7174 41.6449 60.5006 44.0411 60.4218Z" fill="#EC6D58"/>
<path d="M37.1457 41.3916C37.0925 41.2458 37.0711 41.0908 37.0827 40.9365C37.0944 40.7822 37.1389 40.632 37.2134 40.4954C37.2879 40.3588 37.3909 40.2388 37.5156 40.1432C37.6403 40.0475 37.7841 39.9782 37.9379 39.9397C38.0916 39.9012 38.2519 39.8943 38.4085 39.9196C38.5651 39.9448 38.7146 40.0016 38.8474 40.0863C38.9803 40.1709 39.0935 40.2817 39.18 40.4114C39.2665 40.5411 39.3244 40.687 39.3498 40.8397C39.3498 40.8397 40.1587 44.0032 42.7065 44.0426C42.9896 44.0687 43.2527 44.1967 43.4441 44.4018C43.6355 44.6068 43.7416 44.8741 43.7416 45.1513C43.7416 45.4285 43.6355 45.6958 43.4441 45.9009C43.2527 46.1059 42.9896 46.234 42.7065 46.26C38.359 46.1615 37.1457 41.3916 37.1457 41.3916Z" fill="#323334"/>
<path d="M36.3369 45.7771C36.1342 45.5565 36.0272 45.2678 36.0385 44.9718C36.0499 44.6758 36.1786 44.3957 36.3976 44.1904C36.5076 44.0905 36.6369 44.0127 36.7778 43.9616C36.9188 43.9105 37.0687 43.887 37.219 43.8925C37.3693 43.898 37.517 43.9324 37.6536 43.9936C37.7903 44.0549 37.9132 44.1419 38.0152 44.2495C38.0152 44.2495 39.825 46.1516 41.5943 45.235C41.8625 45.0965 42.1761 45.0675 42.4662 45.1544C42.7563 45.2412 42.9991 45.4369 43.1412 45.6982C43.2833 45.9596 43.3131 46.2653 43.224 46.5481C43.1349 46.8309 42.9342 47.0675 42.666 47.2061C39.3397 48.9307 36.3571 45.7771 36.3369 45.7771Z" fill="#323334"/>
<path fill-rule="evenodd" clip-rule="evenodd" d="M42.7975 43.8652C41.8977 43.8652 41.1596 44.9887 41.1596 46.3783C41.1596 47.7679 41.8977 48.8815 42.7975 48.8815C43.6973 48.8815 44.4859 47.758 44.4859 46.3783C44.4859 44.9986 43.7479 43.8652 42.8379 43.8652H42.7975Z" fill="white"/>
<path d="M35.4674 33.5074C35.3943 33.7558 35.224 33.9661 34.9933 34.0933C34.7627 34.2205 34.4899 34.2543 34.2339 34.1874C33.9811 34.1141 33.7676 33.9473 33.6392 33.7227C33.5107 33.498 33.4774 33.2333 33.5464 32.9851C35.5605 26.6918 39.2723 21.0417 44.2938 16.6256C46.5687 14.6546 47.145 16.7044 46.1845 17.6111C41.2708 22.0558 37.4086 27.072 35.4674 33.5074ZM48.7728 14.2111C48.3784 12.723 53.3224 10.1606 53.737 11.8951C54.01 13.0186 49.7636 15.2065 49.0356 14.5856C48.9193 14.4824 48.8293 14.3542 48.7728 14.2111Z" fill="white"/>
<path d="M59.2674 74.623C59.3046 74.6767 59.3303 74.7372 59.343 74.8008C59.3557 74.8644 59.3551 74.9298 59.3413 74.9932C59.3276 75.0566 59.3009 75.1166 59.2628 75.1697C59.2247 75.2228 59.176 75.2679 59.1197 75.3023C59.0634 75.3367 59.0005 75.3597 58.9349 75.37C58.8693 75.3802 58.8022 75.3774 58.7377 75.3619C58.6731 75.3463 58.6125 75.3182 58.5593 75.2793C58.5062 75.2404 58.4616 75.1915 58.4282 75.1355C52.2406 67.3007 44.769 75.1848 45.679 72.4253C46.0935 71.1737 53.9695 68.9366 57.9126 72.9772L59.2674 74.623Z" fill="#9CAAAB"/>
<path d="M41.6348 79.9251C41.5741 78.0132 51.3307 78.2497 51.5834 82.2607C51.5827 82.3667 51.5496 82.47 51.4883 82.5575C51.427 82.645 51.3403 82.7126 51.2393 82.7518C51.1383 82.7909 51.0277 82.7998 50.9214 82.7773C50.8152 82.7548 50.7184 82.7019 50.6432 82.6254C50.6432 82.6254 49.3592 78.2793 42.3021 80.2996C42.2332 80.3254 42.1593 80.3359 42.0857 80.3304C42.0121 80.3248 41.9408 80.3033 41.8768 80.2674C41.8128 80.2315 41.7579 80.1822 41.7161 80.1229C41.6742 80.0637 41.6464 79.9961 41.6348 79.9251Z" fill="#9CAAAB"/>
</g>
<defs>
<clipPath id="clip0_330_38">
<rect width="130" height="100" fill="white"/>
</clipPath>
</defs>
</svg>
