<svg width="130" height="100" viewBox="0 0 130 100" fill="none" xmlns="http://www.w3.org/2000/svg">
<g clip-path="url(#clip0_330_209)">
<path d="M110.838 27.7273C112.967 28.7666 120.513 32.2694 126.282 33.2024C127.283 33.3445 128.192 33.7297 128.865 34.2972C129.538 34.8647 129.937 35.5823 130 36.3368C130.122 37.2582 129.972 38.1883 129.559 39.0621C129.111 40.048 128.452 40.9738 127.606 41.8037C126.103 43.2795 124.133 44.4582 121.87 45.2361C119.608 46.0139 117.122 46.3669 114.633 46.264C116.862 51.5983 118.54 57.051 119.652 62.5747C121.197 70.4067 121.241 77.5268 119.288 81.8397C119.288 81.8397 119.288 81.9052 119.288 81.9379C114.986 90.392 103.998 95.376 91.0905 97.8885C74.2117 101.162 53.9571 100.278 41.2704 97.4548C35.0594 96.0717 27.8776 94.0093 22.141 90.9076C16.2279 87.6913 11.8703 83.3538 11.6276 77.4777C11.4732 73.7212 12.8411 67.2231 14.7497 60.5614C16.261 55.3564 18.0592 50.0122 19.8133 45.7811C12.9625 47.156 7.61202 45.6011 4.22523 43.2441C2.89049 42.3139 1.80826 41.2027 1.037 39.9705C0.30872 38.9043 -0.0478054 37.7198 4.76396e-06 36.5251C0.0136532 35.7476 0.382168 34.9966 1.04538 34.3946C1.70859 33.7926 2.62732 33.3752 3.65157 33.2105H3.73982C9.333 32.2939 16.6582 28.9303 18.9969 27.8255C18.8701 25.7195 19.7705 23.6502 21.5333 21.9968C23.2961 20.3434 25.803 19.2166 28.5947 18.8231C29.4111 16.6544 32.2242 11.302 40.1672 12.7506C41.7999 10.099 47.0842 3.74823 58.4471 7.79112C60.146 5.32774 64.9559 -2.90256e-05 74.4654 -2.90256e-05C78.7064 -0.0979867 82.8417 0.991799 86.0489 3.05259C88.9101 5.0408 90.9398 7.59768 91.8958 10.4182C94.6648 9.99261 100.236 9.64888 103.722 12.7588C104.969 13.8253 105.743 15.1514 105.936 16.5561C106.13 17.9608 105.734 19.3756 104.803 20.6072C107.921 22.3604 110.083 24.888 110.893 27.7273H110.838Z" fill="#75251C"/>
<path d="M19.5816 30.3215C16.3714 31.7946 9.76324 34.6263 4.44586 35.502H4.41276C4.05863 35.5751 3.74774 35.7341 3.52977 35.9537C3.31179 36.1732 3.1993 36.4407 3.21029 36.7132C3.17594 37.4942 3.39938 38.2697 3.86117 38.972C4.46289 39.9226 5.30561 40.7784 6.34335 41.4927C9.2999 43.5959 14.3415 44.8726 20.9606 42.9985C21.4129 41.9919 21.8432 41.0998 22.2514 40.3305L22.9022 39.0948C23.4428 38.1782 24.0054 37.2206 24.6563 36.2385C24.9873 35.7311 25.3072 35.2401 25.6382 34.7572C24.2805 34.362 23.0465 33.7645 22.0124 33.0016C20.9782 32.2387 20.166 31.3265 19.6258 30.3215H19.5816Z" fill="#FFCFB5"/>
<path d="M19.5816 30.3215L18.7101 30.7225C22.0969 37.2697 18.3902 41.7136 10.2928 40.7888C7.50878 40.4427 5.00959 39.3179 3.30957 37.6462C3.42251 38.1126 3.61529 38.5664 3.88323 38.9965C4.48495 39.9471 5.32767 40.8029 6.36541 41.5172C9.2999 43.5959 14.3415 44.8726 20.9606 42.9985C21.4129 41.9919 21.8432 41.0998 22.2514 40.3305L22.9022 39.0948C23.4428 38.1782 24.0054 37.2206 24.6563 36.2385C24.9873 35.7311 25.3072 35.2401 25.6382 34.7572C24.2805 34.362 23.0465 33.7645 22.0124 33.0016C20.9782 32.2387 20.166 31.3265 19.6258 30.3215H19.5816Z" fill="#FCA187"/>
<path d="M113.529 43.8335C115.682 44.0791 117.885 43.8904 119.905 43.287C121.926 42.6837 123.69 41.688 125.014 40.4044C125.654 39.7809 126.153 39.0843 126.492 38.342C126.764 37.7901 126.865 37.2001 126.79 36.6152C126.781 36.354 126.654 36.1025 126.43 35.9008C126.207 35.6991 125.898 35.5587 125.554 35.5022C120.513 34.6838 114.335 32.1058 110.948 30.5918C110.915 30.8863 110.856 31.1788 110.771 31.4675C110.577 32.3599 110.205 33.2259 109.668 34.0372C109.369 34.4417 109.026 34.8276 108.642 35.1912C108.929 35.6168 109.238 36.0096 109.536 36.4761C109.977 37.1472 110.429 37.8592 110.838 38.5794C111.775 40.2653 112.669 42.0166 113.496 43.8171L113.529 43.8335Z" fill="#FCA187"/>
<path d="M107.804 28.6439C107.799 28.5948 107.799 28.5456 107.804 28.4966C107.076 24.2654 101.858 21.9494 101.847 21.9494L101.703 21.8757C101.372 21.6876 101.154 21.4097 101.099 21.103C101.043 20.7962 101.153 20.4855 101.405 20.2389C101.405 20.2389 104.56 17.2272 101.306 14.3137C98.195 11.523 92.2268 12.7997 91.3773 12.9961L91.0905 13.0698C90.6754 13.1277 90.2462 13.0624 89.8955 12.8879C89.5447 12.7134 89.3003 12.4437 89.215 12.1368C88.5533 9.34517 86.7101 6.78247 83.9528 4.82032C81.3208 3.14374 77.932 2.2668 74.4654 2.36512C64.3491 2.35694 60.6755 9.82073 60.6755 9.82073L60.5652 9.98441C60.4621 10.1229 60.3225 10.2446 60.1547 10.3423C59.9869 10.4399 59.7943 10.5115 59.5884 10.5527C59.3825 10.594 59.1675 10.604 58.9563 10.5823C58.745 10.5606 58.5418 10.5076 58.3588 10.4263C46.7974 5.51595 42.8038 14.06 42.5832 14.5183V14.5674C42.4386 14.8601 42.1447 15.0988 41.7649 15.232C41.3851 15.3653 40.9499 15.3823 40.5533 15.2794C32.9523 13.258 31.452 20.0671 31.452 20.0916C31.3886 20.3571 31.2035 20.5982 30.9281 20.7742C30.6528 20.9501 30.3039 21.0501 29.9406 21.0573C29.8082 21.0573 29.6869 21.0573 29.5545 21.0573C27.6208 21.2373 25.8351 21.9185 24.5129 22.9806C23.7097 23.6165 23.0876 24.3661 22.6839 25.1845C22.2802 26.0029 22.103 26.8733 22.1631 27.7436C22.1631 27.8991 22.1631 28.0464 22.1631 28.2019C22.1684 28.2482 22.1684 28.2948 22.1631 28.3411C22.5933 31.2055 25.947 32.4331 28.1314 32.9323C28.2005 32.9412 28.2674 32.9578 28.3299 32.9814C28.8889 33.1062 29.4608 33.1966 30.0399 33.2515C30.2842 33.2729 30.518 33.3376 30.7216 33.4401C30.9251 33.5427 31.0924 33.6801 31.2093 33.8407C40.0348 45.1919 53.0745 35.5839 53.1076 35.5511C53.2031 35.4868 53.3065 35.4292 53.4165 35.3793C53.5975 35.2971 53.7989 35.2426 54.0088 35.2191C54.2187 35.1956 54.4328 35.2035 54.6385 35.2424C54.8441 35.2813 55.0372 35.3504 55.2063 35.4456C55.3754 35.5408 55.517 35.6602 55.6229 35.7967C61.1388 42.6303 72.3252 36.525 73.3953 35.9358V35.8867C73.7243 35.7 74.1382 35.6153 74.5497 35.6505C74.9612 35.6856 75.3383 35.8377 75.6017 36.0749C83.0813 43.1541 91.0463 35.9685 91.0463 35.9522C91.2729 35.7453 91.5897 35.6034 91.9421 35.5512C92.2945 35.4989 92.6605 35.5394 92.9769 35.6657C93.7686 35.9549 94.6118 36.1588 95.4812 36.2713C97.5933 36.559 99.7695 36.4407 101.802 35.9276C103.886 35.4195 105.623 34.3309 106.645 32.8914C107.06 32.2915 107.35 31.6486 107.506 30.9845C107.755 30.2188 107.855 29.4306 107.804 28.6439Z" fill="#FFF6F1"/>
<path d="M107.804 28.6439C107.799 28.5948 107.799 28.5456 107.804 28.4966C107.076 24.2654 101.858 21.9494 101.847 21.9494L101.703 21.8757C101.372 21.6876 101.154 21.4097 101.099 21.103C101.043 20.7962 101.153 20.4855 101.405 20.2389C101.405 20.2389 104.56 17.2272 101.306 14.3137C100.124 13.3033 98.4495 12.6823 96.6506 12.5869C96.6506 12.5869 100.368 13.2826 98.8569 17.4073C97.3456 21.532 89.9101 19.4778 88.3656 20.1489C86.8211 20.82 91.2449 25.0593 90.3182 27.5145C89.3916 29.9697 83.8425 27.3754 83.4564 27.8255C83.0703 28.2756 81.25 31.5164 77.7088 29.184C74.1675 26.8516 72.3142 31.0009 69.5783 31.4101C66.8423 31.8193 60.3997 33.2023 58.4691 28.5211C56.5385 23.8399 45.7162 40.2488 32.8751 35.6494C41.5572 44.128 53.1517 35.6494 53.1848 35.5839C53.2803 35.5195 53.3837 35.462 53.4937 35.412C53.6748 35.3298 53.8762 35.2753 54.086 35.2518C54.2959 35.2283 54.51 35.2363 54.7157 35.2752C54.9214 35.3141 55.1145 35.3832 55.2835 35.4784C55.4526 35.5736 55.5943 35.6929 55.7001 35.8294C61.2161 42.663 72.4024 36.5578 73.4725 35.9685V35.9194C73.8016 35.7328 74.2154 35.6481 74.6269 35.6832C75.0384 35.7183 75.4155 35.8705 75.6789 36.1077C83.1585 43.1868 91.1236 36.0013 91.1236 35.9849C91.3502 35.778 91.667 35.6362 92.0194 35.5839C92.3718 35.5316 92.7377 35.5721 93.0542 35.6985C93.8458 35.9877 94.6891 36.1916 95.5584 36.3041C97.6705 36.5917 99.8467 36.4734 101.88 35.9603C103.963 35.4522 105.7 34.3636 106.723 32.9241C107.137 32.3242 107.427 31.6814 107.583 31.0172C107.811 30.2381 107.885 29.4387 107.804 28.6439Z" fill="#FFCFB5"/>
<path d="M28.9036 35.5186H28.6388C28.2417 36.0996 27.8445 36.6889 27.4695 37.2863C26.9289 38.1047 26.3663 39.0458 25.7816 40.0607L25.1638 41.2228C24.7004 42.0412 24.215 43.0969 23.6965 44.259C23.6965 44.259 23.6965 44.259 23.6965 44.3C21.7549 48.6866 19.5375 54.9391 17.7834 61.0526C15.908 67.5997 14.5732 73.8687 14.7166 77.4205C14.9262 82.4209 18.7542 86.1855 23.9392 89.009C29.3228 91.9471 36.1516 93.9194 42.0978 95.2288C54.3321 97.9459 73.9138 98.8216 90.2079 95.638C102.222 93.3056 112.371 88.7553 116.254 81.1115C118.03 77.1586 117.953 70.4723 116.475 62.9349C115.283 56.9678 113.408 51.0868 110.871 45.3557C110.837 45.307 110.815 45.2544 110.804 45.2002C109.911 43.2442 108.973 41.3374 107.958 39.5205C107.55 38.8494 107.142 38.1947 106.712 37.54C106.568 37.3436 106.447 37.139 106.303 36.9426C105.292 37.4877 104.176 37.918 102.994 38.2193C100.435 38.8753 97.6895 39.0248 95.0289 38.653C94.2761 38.5504 93.5376 38.397 92.8225 38.1947C90.2851 40.077 82.1767 45.0283 74.2116 38.473C70.6704 40.2162 60.4549 44.4063 54.0012 38.2274C49.9084 40.6826 37.8064 46.4114 28.9257 35.5595L28.9036 35.5186Z" fill="#FFCFB5"/>
<path d="M28.9036 35.5186H28.6388C28.2417 36.0996 27.8445 36.6889 27.4695 37.2863C26.9289 38.1047 26.3663 39.0458 25.7816 40.0607L25.1638 41.2228C24.7004 42.0412 24.215 43.0969 23.6965 44.259C23.6965 44.259 23.6965 44.259 23.6965 44.3C21.7549 48.6866 19.5375 54.9391 17.7834 61.0526C15.908 67.5997 14.5732 73.8687 14.7166 77.4205C14.8434 80.4087 16.333 83.2766 18.9418 85.5554C13.0838 72.2401 26.3552 45.593 28.5947 42.4176C29.1034 41.7104 29.8285 41.1014 30.7116 40.6395C31.5948 40.1777 32.6116 39.8757 33.6804 39.7579C31.7649 38.5638 30.1479 37.1288 28.9036 35.5186Z" fill="white"/>
<path d="M92.8997 95.0487C103.722 92.5936 112.669 88.1497 116.243 81.0869C118.019 77.134 117.942 70.4477 116.464 62.9103C115.272 56.9432 113.397 51.0622 110.86 45.3311C110.826 45.2824 110.804 45.2298 110.793 45.1756C109.9 43.2196 108.962 41.3128 107.947 39.4959C107.539 38.8248 107.131 38.1701 106.701 37.5154C106.557 37.319 106.436 37.1144 106.292 36.918C105.281 37.4631 104.165 37.8934 102.983 38.1947C100.424 38.8507 97.6785 39.0002 95.0178 38.6284C94.2651 38.5258 93.5265 38.3724 92.8114 38.1701C90.7589 39.7309 88.2034 40.8773 85.387 41.501C90.3293 41.3701 100.49 42.4585 104.351 53.0731C108.488 64.3998 114.555 83.7303 92.9107 95.0651L92.8997 95.0487Z" fill="#FCA187"/>
<path d="M28.9036 35.5184H28.6388C28.2417 36.0995 27.8445 36.6887 27.4695 37.2862C26.9289 38.1046 26.3663 39.0457 25.7816 40.0605L25.1638 41.2227C24.7004 42.0411 24.215 43.0968 23.6965 44.2589C23.6965 44.2589 23.6965 44.2589 23.6965 44.2998C21.7549 48.6864 19.5375 54.939 17.7834 61.0524C15.908 67.5996 14.5732 73.8685 14.7166 77.4204C14.9262 82.4208 18.7542 86.1854 23.9392 89.0089C29.3228 91.9469 36.1516 93.9193 42.0978 95.2287C54.3321 97.9458 73.9138 98.8215 90.2079 95.6379C102.222 93.3055 112.371 88.7552 116.254 81.1114C118.03 77.1585 117.953 70.4722 116.475 62.9347C115.283 56.9677 113.408 51.0867 110.871 45.3556C110.837 45.3068 110.815 45.2543 110.804 45.2001C109.911 43.2441 108.973 41.3372 107.958 39.5204C107.55 38.8493 107.142 38.1946 106.712 37.5399C106.568 37.3435 106.447 37.1389 106.303 36.9424C105.292 37.4876 104.176 37.9179 102.994 38.2191C100.435 38.8751 97.6895 39.0246 95.0289 38.6529C94.2761 38.5503 93.5376 38.3969 92.8225 38.1946C90.2851 40.0769 82.1767 45.0282 74.2116 38.4728C70.6704 40.216 60.4549 44.4062 54.0012 38.2273C49.9084 40.6825 37.8064 46.4113 28.9257 35.5593L28.9036 35.5184ZM107.804 28.6439C107.799 28.5949 107.799 28.5456 107.804 28.4966C107.076 24.2655 101.858 21.9494 101.847 21.9494L101.703 21.8757C101.372 21.6876 101.154 21.4097 101.099 21.103C101.043 20.7962 101.153 20.4855 101.405 20.2389C101.405 20.2389 104.56 17.2272 101.306 14.3137C98.195 11.523 92.2268 12.7997 91.3773 12.9961L91.0905 13.0698C90.6754 13.1277 90.2463 13.0624 89.8955 12.8879C89.5447 12.7134 89.3003 12.4437 89.215 12.1368C88.5533 9.34518 86.7101 6.78249 83.9528 4.82033C81.3208 3.14376 77.932 2.26681 74.4654 2.36514C64.3491 2.35696 60.6755 9.82074 60.6755 9.82074L60.5652 9.98442C60.4621 10.1229 60.3225 10.2447 60.1547 10.3423C59.9869 10.4399 59.7943 10.5115 59.5884 10.5528C59.3825 10.594 59.1675 10.6041 58.9563 10.5823C58.745 10.5606 58.5418 10.5076 58.3588 10.4264C46.7974 5.51597 42.8038 14.06 42.5832 14.5183V14.5674C42.4386 14.8601 42.1447 15.0988 41.7649 15.232C41.3851 15.3653 40.9499 15.3823 40.5533 15.2795C32.9523 13.258 31.452 20.0671 31.452 20.0916C31.3886 20.3571 31.2035 20.5982 30.9281 20.7742C30.6528 20.9501 30.3039 21.0502 29.9406 21.0573C29.8082 21.0573 29.6869 21.0573 29.5545 21.0573C27.6208 21.2373 25.8351 21.9185 24.5129 22.9806C23.7097 23.6165 23.0877 24.3661 22.6839 25.1845C22.2802 26.0029 22.103 26.8733 22.1631 27.7437C22.1631 27.8991 22.1631 28.0465 22.1631 28.202C22.1684 28.2482 22.1684 28.2948 22.1631 28.3411C22.5934 31.2055 25.9471 32.4331 28.1314 32.9323C28.2005 32.9412 28.2674 32.9578 28.3299 32.9814C28.8889 33.1063 29.4608 33.1966 30.0399 33.2515C30.2842 33.2729 30.518 33.3376 30.7216 33.4402C30.9251 33.5427 31.0924 33.6801 31.2093 33.8407C40.0348 45.1919 53.0745 35.5839 53.1076 35.5512C53.2031 35.4868 53.3065 35.4293 53.4165 35.3793C53.5975 35.2971 53.7989 35.2426 54.0088 35.2191C54.2187 35.1956 54.4328 35.2035 54.6385 35.2425C54.8441 35.2814 55.0372 35.3505 55.2063 35.4456C55.3754 35.5408 55.517 35.6602 55.6229 35.7967C61.1388 42.6303 72.3252 36.5251 73.3953 35.9358V35.8867C73.7243 35.7 74.1382 35.6154 74.5497 35.6505C74.9612 35.6856 75.3383 35.8377 75.6017 36.0749C83.0813 43.1541 91.0463 35.9685 91.0463 35.9522C91.273 35.7453 91.5897 35.6035 91.9421 35.5512C92.2945 35.4989 92.6605 35.5394 92.9769 35.6657C93.7686 35.9549 94.6118 36.1589 95.4812 36.2714C97.5933 36.559 99.7695 36.4407 101.802 35.9276C103.886 35.4195 105.623 34.3309 106.645 32.8914C107.06 32.2915 107.35 31.6486 107.506 30.9845C107.755 30.2188 107.855 29.4306 107.804 28.6439ZM110.838 27.7437C112.967 28.783 120.513 32.2858 126.282 33.2187C127.283 33.3609 128.192 33.746 128.865 34.3136C129.538 34.8811 129.937 35.5987 130 36.3532C130.122 37.2746 129.972 38.2047 129.559 39.0785C129.111 40.0644 128.452 40.9902 127.606 41.8201C126.103 43.2959 124.133 44.4746 121.87 45.2524C119.608 46.0303 117.122 46.3833 114.633 46.2804C116.862 51.6146 118.54 57.0674 119.652 62.591C121.197 70.4231 121.241 77.5431 119.288 81.8561C119.288 81.8561 119.288 81.9216 119.288 81.9543C114.986 90.4084 103.998 95.3924 91.0905 97.9049C74.2117 101.178 53.9571 100.295 41.2704 97.4711C35.0594 96.088 27.8776 94.0257 22.141 90.9239C16.2279 87.7076 11.8703 83.3701 11.6276 77.494C11.4732 73.7376 12.8411 67.2395 14.7497 60.5778C16.261 55.3727 18.0592 50.0286 19.8133 45.7975C12.9625 47.1724 7.61202 45.6175 4.22522 43.2605C2.89049 42.3303 1.80826 41.2191 1.037 39.9869C0.305105 38.9158 -0.0515217 37.7253 3.98794e-06 36.5251C0.0136524 35.7476 0.382167 34.9966 1.04538 34.3946C1.70859 33.7926 2.62732 33.3752 3.65157 33.2105H3.73982C9.333 32.2939 16.6582 28.9303 18.9969 27.8255C18.8701 25.7195 19.7705 23.6502 21.5333 21.9968C23.2961 20.3434 25.803 19.2166 28.5947 18.8231C29.4111 16.6544 32.2242 11.302 40.1672 12.7506C41.7999 10.099 47.0842 3.74823 58.4471 7.79112C60.146 5.32774 64.9559 -2.90256e-05 74.4654 -2.90256e-05C78.7064 -0.0979867 82.8417 0.991799 86.0489 3.05259C88.9101 5.0408 90.9398 7.59768 91.8958 10.4182C94.6648 9.99261 100.236 9.64888 103.722 12.7588C104.969 13.8253 105.743 15.1514 105.936 16.5561C106.13 17.9608 105.734 19.3756 104.803 20.6072C107.921 22.3604 110.083 24.888 110.893 27.7273L110.838 27.7437ZM113.529 43.8497C115.682 44.0954 117.885 43.9066 119.905 43.3033C121.926 42.6999 123.69 41.7042 125.014 40.4206C125.654 39.7971 126.153 39.1006 126.492 38.3583C126.764 37.8064 126.865 37.2163 126.79 36.6314C126.781 36.3702 126.654 36.1187 126.43 35.917C126.207 35.7153 125.898 35.575 125.554 35.5184C120.513 34.7 114.335 32.1221 110.948 30.608C110.915 30.9025 110.856 31.1951 110.771 31.4837C110.577 32.3761 110.205 33.2421 109.668 34.0535C109.368 34.4524 109.025 34.8328 108.642 35.1911C108.929 35.6166 109.238 36.0095 109.536 36.476C109.977 37.147 110.429 37.859 110.838 38.5792C111.775 40.2651 112.669 42.0165 113.496 43.817L113.529 43.8497ZM19.5816 30.3216C16.3714 31.7947 9.76324 34.6264 4.44586 35.5021H4.41277C4.05864 35.5751 3.74775 35.7342 3.52977 35.9537C3.31179 36.1733 3.19931 36.4407 3.21029 36.7133C3.17595 37.4943 3.39939 38.2697 3.86117 38.9721C4.46289 39.9226 5.30562 40.7784 6.34335 41.4927C9.2999 43.596 14.3415 44.8727 20.9606 42.9986C21.4129 41.992 21.8432 41.0999 22.2514 40.3306L22.9022 39.0948C23.4428 38.1782 24.0054 37.2207 24.6563 36.2386C24.9873 35.7312 25.3072 35.2402 25.6382 34.7573C24.2805 34.3621 23.0465 33.7646 22.0124 33.0017C20.9782 32.2387 20.166 31.3266 19.6258 30.3216H19.5816Z" fill="#75251C"/>
<path fill-rule="evenodd" clip-rule="evenodd" d="M92.668 50.3396C89.535 50.3396 86.9756 53.3022 86.9756 56.9686C86.9756 60.635 89.535 63.5813 92.668 63.5813C100.324 62.8611 100.324 51.0598 92.668 50.3396Z" fill="#75251C"/>
<path fill-rule="evenodd" clip-rule="evenodd" d="M92.668 67.0432C86.9425 67.0432 82.3091 68.3445 82.3091 69.9322C82.3091 71.5198 86.9314 72.8375 92.668 72.8375C106.491 72.4774 106.579 67.4442 92.668 67.0596V67.0432Z" fill="#EC6D58"/>
<path fill-rule="evenodd" clip-rule="evenodd" d="M91.2008 52.0991C90.0976 52.0991 89.2592 53.1139 89.2592 54.3579C89.2592 55.6019 90.1197 56.6249 91.2008 56.6249C92.2819 56.6249 93.1314 55.61 93.1314 54.3579C93.1314 53.1057 92.2709 52.0991 91.2008 52.0991Z" fill="white"/>
<path fill-rule="evenodd" clip-rule="evenodd" d="M39.6045 50.3396C42.7597 50.3396 45.297 53.3022 45.297 56.9686C45.297 60.635 42.7597 63.5813 39.6045 63.5813C31.9484 62.8611 31.9484 51.0598 39.6045 50.3396Z" fill="#75251C"/>
<path fill-rule="evenodd" clip-rule="evenodd" d="M39.6046 67.0432C45.3301 67.0432 49.9745 68.3445 49.9745 69.9322C49.9745 71.5198 45.3301 72.8375 39.6046 72.8375C25.7816 72.4774 25.7044 67.4442 39.6046 67.0596V67.0432Z" fill="#EC6D58"/>
<path fill-rule="evenodd" clip-rule="evenodd" d="M41.0718 52.0991C42.175 52.0991 43.0245 53.1139 43.0245 54.3579C43.0245 55.6019 42.1529 56.6249 41.0718 56.6249C39.9907 56.6249 39.1302 55.651 39.1302 54.3579C39.1302 53.0648 40.0017 52.0991 41.0718 52.0991Z" fill="white"/>
<path fill-rule="evenodd" clip-rule="evenodd" d="M74.1896 69.1463C75.1273 70.1366 74.3992 74.6868 66.1363 75.6935C57.8734 74.6787 57.1343 70.1284 58.072 69.1463C59.6164 67.5095 72.6451 67.5095 74.1896 69.1463Z" fill="#75251C"/>
<path fill-rule="evenodd" clip-rule="evenodd" d="M62.6061 79.0245C62.6061 80.0884 63.0805 82.6418 66.1363 82.6418C69.1921 82.6418 69.6113 80.0884 69.6665 79.0245C68.2935 78.4271 67.1854 77.5454 66.4783 76.4875C66.3471 76.2744 66.2329 76.0558 66.1363 75.8328C65.5352 77.1852 64.2767 78.3231 62.6061 79.0245Z" fill="#EC6D58"/>
<path d="M80.0586 79.6874C79.434 79.8667 78.7818 79.9876 78.1169 80.0475C76.1369 80.2525 74.1193 80.022 72.3142 79.3846H72.1928C72.1928 79.3846 72.1928 79.3846 72.1046 79.3846C70.4329 78.8205 69.0488 77.874 68.1551 76.6838C67.7825 76.1372 67.5364 75.5479 67.427 74.9407C67.427 74.8343 67.427 74.7361 67.427 74.6297C67.427 74.0813 67.7469 72.1008 67.3608 71.9453C66.9747 71.7898 66.4783 72.4855 66.2576 73.1975C66.0149 72.4855 65.6509 71.8389 65.1544 71.9453C64.658 72.0517 65.1544 74.0813 65.0993 74.6297C65.0993 74.7361 65.0993 74.8343 65.0993 74.9407C64.9951 75.5487 64.7487 76.1386 64.3712 76.6838C63.4785 77.8716 62.099 78.8176 60.4328 79.3846H60.3666C60.3666 79.3846 60.3666 79.3846 60.2894 79.3846H60.157C58.357 80.0346 56.3386 80.2765 54.3542 80.0802C53.6927 80.0213 53.044 79.9003 52.4236 79.7201C52.1478 79.6383 51.9162 79.5564 51.6404 79.4582C51.0667 79.2209 49.2795 78.1651 48.9044 78.3125C48.1653 78.7871 50.5592 80.2357 50.9012 80.4157C51.1772 80.5633 51.473 80.6895 51.7838 80.7922C52.5174 81.0496 53.2921 81.2366 54.0894 81.3487C56.418 81.632 58.8075 81.3927 60.9513 80.6613C61.0049 80.6489 61.0567 80.6325 61.1057 80.6122H61.183H61.2712C63.2908 79.8975 64.9298 78.7019 65.9267 77.2158C66.0874 76.9492 66.2273 76.6759 66.3459 76.3974C66.4562 76.6593 66.5996 76.9212 66.7541 77.2158C67.7606 78.6967 69.3968 79.8903 71.4095 80.6122C71.4425 80.6156 71.4759 80.6156 71.5088 80.6122H71.5861C71.6314 80.6322 71.6795 80.6486 71.7295 80.6613C73.8733 81.3927 76.2628 81.632 78.5913 81.3487C79.3894 81.239 80.1646 81.0519 80.897 80.7922C81.21 80.6876 81.5091 80.5616 81.7906 80.4157C82.1215 80.2357 84.5265 78.7789 83.7763 78.3125C83.4123 78.1651 81.6361 79.2209 81.0404 79.4582C80.7867 79.5564 80.5329 79.6383 80.2682 79.7201L80.0586 79.6874Z" fill="#75251C"/>
<path fill-rule="evenodd" clip-rule="evenodd" d="M111.422 79.3845C112.261 79.3845 112.415 78.9016 113.254 77.895C114.875 75.939 115.129 73.3447 115.129 70.955C115.129 63.704 113.938 63.0902 112.404 56.9604C112.195 56.142 112.195 53.6868 111.113 53.4249C110.806 53.9095 110.68 54.4467 110.749 54.9799C110.749 57.3368 111.742 60.0703 112.327 62.3454C113.194 65.1312 113.631 67.9812 113.629 70.8404C113.629 77.183 111.544 78.0259 111.422 79.3926V79.3845ZM10.7451 38.5137C11.0319 37.1879 8.3291 37.6462 8.14155 38.0718C7.72234 39.062 9.92872 39.062 10.7451 38.5137ZM108.819 49.4229C108.819 50.0613 110.86 52.5001 111.158 50.9042C111.411 49.6112 108.819 48.2444 108.819 49.4229ZM56.6819 38.5137C56.9908 37.7853 55.8987 36.8769 55.5788 36.0012C55.0492 34.6754 55.7222 33.5051 55.3691 32.8095C52.4236 32.7522 53.7916 38.751 56.693 38.5382L56.6819 38.5137ZM88.509 15.7622C89.546 15.8604 89.4136 15.5986 89.7004 14.8538C90.947 11.5148 93.1534 12.4886 93.9477 11.6457C93.8374 11.2447 93.7712 11.1874 93.1314 11.1056C92.658 11.0429 92.1717 11.0597 91.7083 11.1547C90.9445 11.2912 90.2647 11.614 89.7777 12.0713C89.1786 12.5641 88.7501 13.1576 88.5291 13.8006C88.3081 14.4436 88.3012 15.1168 88.509 15.7622ZM31.9925 37.0324C32.4669 36.4268 31.3858 35.3956 31.5733 34.2498C31.8491 32.613 34.7836 30.9108 32.7537 31.1317C32.1902 31.2518 31.6946 31.5046 31.3417 31.8519C28.6499 33.988 30.2385 37.0406 31.9925 37.0324ZM44.1276 18.7085C44.3152 17.8001 43.201 16.0487 42.6825 15.4349C40.3547 12.6933 35.6772 13.839 38.8434 14.6901C42.6163 15.6722 41.9213 18.823 44.1276 18.7085ZM97.0808 36.9096C96.6175 36.214 95.6025 36.615 94.5876 36.4186C92.2157 35.9439 91.631 33.145 89.7887 33.145C89.2812 33.8161 91.3883 37.2861 94.4111 37.5316C95.5143 37.6135 96.7167 37.417 97.0808 36.8933V36.9096ZM70.3836 38.5464C72.1266 38.7347 74.2447 37.1633 74.7963 36.4923C75.4693 35.6739 76.5173 33.2187 75.2045 32.4003C74.3882 32.6949 74.5536 33.2187 74.2447 34.2253C73.3953 37.147 70.4167 37.2206 70.3725 38.5301L70.3836 38.5464ZM111.422 36.2795C110.667 35.993 109.972 35.6263 109.359 35.191C108.719 34.7409 108.488 33.988 107.473 34.0943C106.601 36.2549 113.143 38.882 116.067 37.9981C116.067 36.9506 114.235 37.2861 111.444 36.2549L111.422 36.2795ZM96.121 22.915C96.9374 23.7989 100.688 23.1196 102.244 21.4583C102.497 21.1882 105.344 18.0783 103.766 18.0456C103.215 18.0456 102.542 18.954 102.155 19.4123C101.163 20.5744 100.412 21.4992 98.537 22.0475C97.5331 22.3585 96.452 22.2849 96.121 22.915ZM26.0243 21.5647C26.8296 22.0966 28.8484 20.8118 31.5402 21.8593C32.2814 22.208 32.9925 22.5907 33.6694 23.0051C34.1879 23.2833 36.4605 24.0608 35.4345 22.825C34.2989 21.8174 32.894 20.9953 31.3086 20.4107C29.378 19.9361 26.278 20.4107 25.9912 21.5647H26.0243ZM56.7592 7.93018H54.9168C54.7733 8.09487 54.6862 8.28312 54.6631 8.4785C56.6599 9.2969 57.3328 9.06775 58.4691 10.8028C59.7488 12.7096 59.2193 14.2891 60.3556 14.5756C61.6353 13.8881 60.9182 9.66518 57.4542 8.2248L56.7592 7.93018ZM13.7347 37.949C17.0443 38.4237 26.0353 35.2728 25.8698 33.5869C24.7339 33.7314 23.6667 34.0892 22.7699 34.6263C21.7923 35.0357 20.7829 35.4019 19.7471 35.723C18.6439 36.0258 17.5407 36.3204 16.4375 36.6396C15.3344 36.9587 14.0105 37.0979 13.7568 37.949H13.7347Z" fill="#75251C"/>
</g>
<defs>
<clipPath id="clip0_330_209">
<rect width="130" height="100" fill="white"/>
</clipPath>
</defs>
</svg>
