<svg width="130" height="100" viewBox="0 0 130 100" fill="none" xmlns="http://www.w3.org/2000/svg">
<g clip-path="url(#clip0_330_277)">
<path d="M31.5344 16.6577C29.4123 10.3512 30.6007 5.42833 32.4894 2.70525C33.0481 1.85603 33.8276 1.12249 34.7707 0.558715C35.1928 0.286573 35.6899 0.107412 36.2164 0.0376714C36.7429 -0.032069 37.2819 0.00984462 37.784 0.159566C38.3919 0.401963 38.91 0.777244 39.2836 1.24568C39.6572 1.71412 39.8723 2.25828 39.9061 2.82056C40.4101 5.63503 41.919 8.25669 44.2352 10.3423C48.0635 8.51185 52.2307 7.22875 56.5646 6.54594C56.5646 6.54594 56.5646 6.54594 56.6283 6.54594C59.2443 6.13341 61.9031 5.94027 64.565 5.96939C71.9892 6.08274 79.2591 7.76072 85.7011 10.8479C87.9307 8.78626 89.3782 6.2179 89.8604 3.46806C89.8909 2.90505 90.1046 2.35967 90.4786 1.89074C90.8525 1.4218 91.3726 1.04711 91.9825 0.807074C92.4846 0.657352 93.0236 0.615439 93.5502 0.685179C94.0767 0.754919 94.5738 0.93408 94.9959 1.20622C95.9317 1.77155 96.704 2.50504 97.256 3.35275C99.1022 6.01374 100.291 10.7148 98.4019 16.7819C102.54 15.3272 110.222 13.775 117.713 18.3785C122.784 21.6718 126.608 26.1195 128.727 31.1867C129.446 32.8526 129.868 34.598 129.979 36.3668C130.148 37.7858 129.749 39.2118 128.843 40.4203C128.354 40.9881 127.664 41.4131 126.87 41.6355C123.726 42.6369 120.355 43.0399 117.002 42.8152C115.099 42.6532 113.264 42.1348 111.633 41.2985C113.66 46.9449 115.189 52.7082 116.206 58.5417C117.713 67.252 117.755 75.1463 115.877 79.9272C115.881 79.9596 115.881 79.9923 115.877 80.0247C111.633 89.3914 101.023 94.9174 88.4492 97.7026C72.0242 101.366 52.278 100.364 39.9274 97.2147C34.6764 95.9402 29.6229 94.1539 24.871 91.8928C19.9478 89.4535 15.6611 86.2869 13.1995 82.1801C12.5665 81.1025 12.0687 79.9729 11.714 78.8096C11.3455 77.5875 11.1391 76.3352 11.0986 75.0753C10.95 70.8975 12.2658 63.6863 14.1438 56.271C15.4701 51.0022 17.0829 45.627 18.6214 41.192C16.937 42.0976 15.0216 42.6596 13.0297 42.833C9.67785 43.0374 6.3137 42.6131 3.18315 41.5912C2.38618 41.3693 1.69232 40.9444 1.19899 40.376C0.278084 39.1879 -0.143735 37.7774 -6.799e-08 36.3668C0.133198 34.6059 0.569171 32.8702 1.29448 31.2133C3.40625 26.1309 7.23113 21.6674 12.3082 18.3607C15.0345 16.6595 18.2586 15.6036 21.6418 15.3039C25.0249 15.0043 28.4422 15.4719 31.5344 16.6577Z" fill="#75251C"/>
<path d="M88.0673 12.0365C90.715 13.4709 93.201 15.1038 95.4946 16.915C97.5 11.185 96.5557 6.82984 94.8792 4.49704C94.5058 3.94576 93.9913 3.47024 93.3725 3.10446C93.1497 2.97141 92.9905 2.91819 92.9269 2.93593C92.8632 2.95367 92.6722 3.25525 92.5661 3.82292C92.0071 6.85668 90.4494 9.7006 88.0673 12.0365Z" fill="#ED9376"/>
<path d="M108.832 34.2646C110.511 35.1386 112.372 35.7404 114.318 36.0386C116.578 36.3757 118.318 36.1894 119.008 35.7016C119.336 35.4443 119.177 34.646 118.636 33.5284C117.652 31.7605 116.373 30.1181 114.838 28.6499C114.47 28.2833 114.116 27.9463 113.777 27.6388C110.912 25.0399 106.275 25.1552 103.76 25.4568C105.244 27.469 106.552 29.5677 107.675 31.7367V31.7899C108.068 32.5882 108.461 33.4042 108.821 34.2292L108.832 34.2646Z" fill="#ED9376"/>
<path d="M102.508 23.9488C105.033 23.5496 111.389 22.9908 115.241 26.5299C115.676 26.9114 116.047 27.2662 116.376 27.6032C118.06 29.196 119.452 30.9897 120.504 32.9252C121.395 34.6992 121.416 36.216 120.366 37.0231L120.302 37.0852C119.241 37.848 116.769 38.2206 113.936 37.7948C112.595 37.5856 111.288 37.2463 110.042 36.7836C110.846 37.8136 111.917 38.6797 113.175 39.3183C114.432 39.9568 115.845 40.3516 117.31 40.4735C120.25 40.6525 123.201 40.2922 125.957 39.418C126.214 39.3392 126.436 39.1969 126.594 39.01C127.127 38.2245 127.343 37.3162 127.209 36.42C127.081 34.9037 126.695 33.4105 126.064 31.985C124.141 27.3559 120.659 23.29 116.037 20.2766C108.79 15.8416 101.299 18.1124 98.2427 19.3896C99.777 20.832 101.195 22.3581 102.487 23.9577L102.508 23.9488Z" fill="#FFEADE"/>
<path d="M57.9122 8.69247C57.0846 11.0519 55.1004 19.6469 67.4616 23.8512L67.642 23.9222C83.5578 29.324 88.5766 31.0182 92.7041 39.0012C93.2693 40.105 94.0041 41.1426 94.8898 42.0879C96.2815 43.6442 98.2461 44.7754 100.482 45.3077C102.675 45.7612 104.988 45.5766 107.039 44.7844C107.92 44.4616 108.76 44.0633 109.543 43.5958C108.821 41.4493 108.026 39.3205 107.166 37.2715C107.141 37.2315 107.12 37.19 107.103 37.1473C106.466 35.6217 105.797 34.1227 105.097 32.7123C102.69 27.9965 99.3063 23.6727 95.102 19.9396L94.9641 19.8154C92.092 17.2909 88.8265 15.1011 85.2555 13.3049C85.2555 13.3049 85.2555 13.3049 85.1812 13.2516C83.4746 12.4003 81.7023 11.6447 79.8759 10.9898C75.0271 9.25243 69.8186 8.32437 64.5438 8.25785C62.322 8.23423 60.1024 8.3797 57.9122 8.69247Z" fill="#9C3F34"/>
<path d="M102.922 45.5827C104.385 45.5728 105.83 45.3101 107.166 44.811C108.048 44.4882 108.887 44.0899 109.67 43.6224C108.949 41.4759 108.153 39.3471 107.294 37.2981C107.269 37.2581 107.247 37.2166 107.23 37.1739C106.593 35.6483 105.925 34.1493 105.224 32.739C102.817 28.0232 99.4336 23.6993 95.2294 19.9662L95.0914 19.842C92.1822 17.3005 88.8732 15.1014 85.2555 13.3049C85.2555 13.3049 85.2555 13.3049 85.1812 13.2516C83.4746 12.4003 81.7023 11.6447 79.8759 10.9898C77.4592 10.1321 74.9511 9.46691 72.3849 9.00293C72.5229 9.00293 89.1283 12.5066 98.3595 32.8543C100.237 37.002 101.761 41.2554 102.922 45.5827Z" fill="#8A3329"/>
<path d="M34.3993 16.6135C36.6409 14.7111 39.1122 13.0078 41.7736 11.531C39.3127 9.16218 37.7051 6.25899 37.1368 3.15776C37.0413 2.62556 36.914 2.35947 36.776 2.27077C36.6381 2.18207 36.5532 2.31512 36.3198 2.4393C35.7416 2.81293 35.2643 3.28446 34.9192 3.82301C33.264 6.20903 32.2453 10.6795 34.4205 16.5692L34.3993 16.6135Z" fill="#ED9376"/>
<path d="M27.4282 23.8958C28.687 22.2728 30.0618 20.7147 31.5451 19.2302C28.8047 17.9744 25.6913 17.4014 22.5735 17.579C19.4556 17.7566 16.464 18.6775 13.9528 20.2325C9.33262 23.2457 5.84797 27.3074 3.91528 31.932C3.28631 33.3576 2.90401 34.851 2.77995 36.3669C2.63045 37.2853 2.84276 38.2194 3.38475 39.0279C3.54428 39.2171 3.7706 39.3597 4.03199 39.4359C6.78422 40.3108 9.7323 40.6711 12.669 40.4915C14.1324 40.3714 15.5448 39.9773 16.8012 39.3385C18.0576 38.6998 19.1258 37.8326 19.9265 36.8016C18.6806 37.2654 17.3735 37.6048 16.0325 37.8127C13.1783 38.2385 10.7272 37.866 9.66618 37.1031L9.54946 37.0144C8.48841 36.2073 8.48841 34.726 9.41153 32.9165C10.4596 30.9792 11.8511 29.1851 13.539 27.5945C13.8786 27.2575 14.2499 26.9027 14.685 26.5213C18.5578 22.9733 24.8392 23.5321 27.4176 23.9224L27.4282 23.8958Z" fill="#FFEADE"/>
<path d="M111.559 82.1625C108.471 76.6011 101.914 70.4542 91.5793 66.1966C83.0909 62.7373 72.109 60.5731 58.4427 61.1141C30.8554 62.1785 18.2607 77.8251 15.7884 81.311C17.9848 84.859 21.8152 87.6442 26.2186 89.8262C30.7828 91.9933 35.6371 93.7022 40.6807 94.9176C52.6281 97.96 71.7695 98.9357 87.6959 95.3877C98.0199 93.0992 106.943 88.886 111.559 82.0827V82.1625Z" fill="#FCB187"/>
<path d="M17.6453 78.9958C16.7858 79.9982 16.1704 80.7698 15.7884 81.3464C16.7202 82.8262 17.9032 84.1856 19.3005 85.3822C18.3718 83.3341 17.8139 81.1816 17.6453 78.9958Z" fill="white"/>
<path d="M111.559 82.1626C109.823 79.1217 107.476 76.3525 104.62 73.9756C102.296 85.0542 95.3673 94.1548 80.6399 96.6827C83.0275 96.368 85.3934 95.9475 87.7277 95.4232C98.0518 93.1347 106.975 88.9215 111.591 82.1182L111.559 82.1626Z" fill="#ED9376"/>
<path d="M14.8547 79.4129C18.7488 74.357 31.9589 60.44 58.3578 59.4289C72.4274 58.8878 83.823 61.1053 92.5237 64.6888C102.572 68.7867 109.246 74.6852 112.747 80.2289C112.928 79.883 113.087 79.5282 113.257 79.1734C115.007 74.7384 114.922 67.2167 113.479 58.8434C112.714 54.5123 111.669 50.2189 110.349 45.982C109.671 46.3441 108.962 46.6642 108.227 46.9399C105.61 47.9349 102.667 48.16 99.8768 47.5786C97.0527 46.9175 94.5663 45.4996 92.7995 43.5428C91.744 42.4338 90.8665 41.2142 90.1894 39.9149C86.5075 32.819 81.7009 31.1869 66.6022 26.0512L66.4218 25.9802C53.4982 21.5896 53.9332 13.0301 54.8776 9.19824C52.9195 9.61236 51.0037 10.1551 49.1479 10.8214C39.3544 14.3694 30.5264 21.6428 24.6376 33.2359L24.0434 34.593C21.9213 39.161 18.9928 48.0842 16.8177 56.7147C14.982 63.9792 13.6876 71.013 13.7937 74.9868C13.8309 76.0793 14.0123 77.1651 14.3348 78.2243C14.4837 78.6277 14.6572 79.0244 14.8547 79.4129Z" fill="#FFEADE"/>
<path d="M14.8547 79.4128C15.6719 78.3327 16.5537 77.2877 17.4967 76.2817C17.1996 62.2228 24.4042 41.1389 29.5715 29.7676C35.8423 16.0192 48.2672 11.1407 49.1267 10.8657C39.3544 14.4137 30.5477 21.6782 24.7225 33.2535L24.0434 34.5929C21.9213 39.1609 18.9928 48.0841 16.8177 56.7146C14.982 63.9791 13.6876 71.013 13.7937 74.9867C13.8309 76.0793 14.0123 77.165 14.3348 78.2242C14.4837 78.6276 14.6572 79.0243 14.8547 79.4128Z" fill="white"/>
<path d="M105.044 71.8468C108.144 74.2686 110.756 77.0931 112.779 80.2111C112.96 79.8652 113.119 79.5104 113.288 79.1556C115.039 74.7206 114.954 67.1989 113.511 58.8256C112.734 54.5 111.679 50.2125 110.349 45.9819C109.671 46.344 108.962 46.6642 108.227 46.9399C106.721 47.4958 105.107 47.8203 103.463 47.8978C105.341 55.7212 106.19 64.1831 104.991 71.8468H105.044Z" fill="#FFC8B5"/>
<path d="M22.1229 32.3311C23.3145 29.9771 24.6934 27.6924 26.2504 25.4924C23.7251 25.1908 19.0883 25.0755 16.2341 27.6744C15.8804 27.9878 15.5267 28.3249 15.173 28.6856C13.6305 30.1491 12.3509 31.7925 11.3745 33.5641C10.8227 34.6817 10.6636 35.48 11.0031 35.7372C11.6716 36.2251 13.4329 36.4113 15.6823 36.0743C17.6492 35.7461 19.5268 35.1177 21.221 34.2205C21.2847 34.0608 21.359 33.9011 21.4226 33.7592L22.0486 32.411L22.1229 32.3311Z" fill="#ED9376"/>
<path d="M22.1229 32.3309C23.3145 29.9769 24.6934 27.6922 26.2504 25.4922C23.7251 25.1906 19.0883 25.0753 16.2341 27.6742C15.8804 27.9876 15.5267 28.3247 15.173 28.6854C13.6305 30.1489 12.3509 31.7923 11.3745 33.5639C10.8227 34.6815 10.6636 35.4798 11.0031 35.737C11.6716 36.2248 13.4329 36.4111 15.6823 36.0741C17.6492 35.7459 19.5268 35.1174 21.221 34.2202C21.2847 34.0606 21.359 33.9009 21.4226 33.759L22.0486 32.4108L22.1229 32.3309ZM14.8547 79.4127C18.7488 74.3568 31.9589 60.4399 58.3578 59.4287C72.4274 58.8876 83.823 61.1051 92.5237 64.6886C102.572 68.7865 109.246 74.685 112.747 80.2288C112.928 79.8828 113.087 79.528 113.257 79.1732C115.007 74.7382 114.922 67.2165 113.479 58.8433C112.714 54.5121 111.669 50.2187 110.349 45.9818C109.671 46.3439 108.962 46.6641 108.227 46.9398C105.61 47.9347 102.667 48.1598 99.8767 47.5784C97.0526 46.9173 94.5663 45.4994 92.7995 43.5426C91.744 42.4336 90.8665 41.214 90.1894 39.9148C86.5075 32.8188 81.7009 31.1867 66.6022 26.051L66.4218 25.98C53.4982 21.5894 53.9332 13.0299 54.8776 9.19806C52.9195 9.61218 51.0037 10.1549 49.1479 10.8213C39.3544 14.3693 30.5264 21.6426 24.6376 33.2357L24.0434 34.5928C21.9213 39.1608 18.9928 48.084 16.8177 56.7145C14.982 63.979 13.6876 71.0129 13.7937 74.9866C13.8309 76.0792 14.0123 77.1649 14.3348 78.2241C14.4837 78.6275 14.6572 79.0242 14.8547 79.4127ZM111.612 82.1624C108.524 76.6009 101.967 70.454 91.6324 66.1965C83.144 62.7372 72.1621 60.5729 58.4958 61.114C30.9084 62.1784 18.3137 77.825 15.8415 81.3109C18.0379 84.8589 21.8683 87.644 26.2716 89.8261C30.8358 91.9931 35.6901 93.7021 40.7338 94.9174C52.6812 97.9598 71.8226 98.9355 87.7489 95.3875C98.073 93.0991 106.996 88.8858 111.612 82.0826V82.1624ZM27.4282 23.8956C28.687 22.2726 30.0618 20.7146 31.5451 19.23C28.8047 17.9742 25.6913 17.4012 22.5735 17.5788C19.4556 17.7565 16.464 18.6773 13.9528 20.2323C9.33262 23.2456 5.84797 27.3072 3.91528 31.9318C3.28631 33.3574 2.90401 34.8508 2.77995 36.3668C2.63045 37.2851 2.84276 38.2192 3.38475 39.0278C3.54428 39.2169 3.7706 39.3596 4.03199 39.4358C6.78422 40.3107 9.7323 40.671 12.669 40.4913C14.1324 40.3712 15.5448 39.9772 16.8012 39.3384C18.0576 38.6996 19.1258 37.8325 19.9265 36.8014C18.6806 37.2652 17.3735 37.6047 16.0325 37.8126C13.1783 38.2383 10.7272 37.8658 9.66618 37.103L9.54946 37.0143C8.48841 36.2071 8.48841 34.7258 9.41152 32.9164C10.4596 30.979 11.8511 29.1849 13.539 27.5944C13.8786 27.2573 14.2499 26.9025 14.6849 26.5211C18.5578 22.9731 24.8392 23.5319 27.4176 23.9222L27.4282 23.8956ZM31.5344 16.6577C29.4123 10.3512 30.6007 5.42833 32.4894 2.70525C33.0481 1.85603 33.8276 1.12249 34.7707 0.558715C35.1928 0.286573 35.6899 0.107412 36.2164 0.0376714C36.7429 -0.032069 37.2819 0.00984462 37.784 0.159566C38.3919 0.401963 38.91 0.777244 39.2836 1.24568C39.6572 1.71412 39.8723 2.25828 39.9061 2.82056C40.4101 5.63503 41.919 8.25669 44.2352 10.3423C48.0635 8.51185 52.2307 7.22875 56.5646 6.54594C56.5646 6.54594 56.5646 6.54594 56.6283 6.54594C59.2443 6.13341 61.9031 5.94027 64.565 5.96939C71.9892 6.08274 79.2591 7.76072 85.7011 10.8479C87.9307 8.78626 89.3782 6.2179 89.8604 3.46806C89.8909 2.90505 90.1046 2.35967 90.4786 1.89074C90.8525 1.4218 91.3726 1.04711 91.9825 0.807074C92.4846 0.657352 93.0236 0.615439 93.5502 0.685179C94.0767 0.754919 94.5738 0.93408 94.9959 1.20622C95.9317 1.77155 96.704 2.50504 97.256 3.35275C99.1022 6.01374 100.291 10.7148 98.4019 16.7819C102.54 15.3272 110.222 13.775 117.713 18.3785C122.784 21.6718 126.608 26.1195 128.727 31.1867C129.446 32.8526 129.868 34.598 129.979 36.3668C130.148 37.7858 129.749 39.2118 128.843 40.4203C128.354 40.9881 127.664 41.4131 126.87 41.6355C123.726 42.6369 120.355 43.0399 117.002 42.8152C115.099 42.6532 113.264 42.1348 111.633 41.2985C113.66 46.9449 115.189 52.7082 116.206 58.5417C117.713 67.252 117.755 75.1463 115.877 79.9272C115.881 79.9596 115.881 79.9923 115.877 80.0247C111.633 89.3914 101.023 94.9174 88.4492 97.7026C72.0242 101.366 52.278 100.364 39.9274 97.2147C34.6764 95.9402 29.6229 94.1539 24.871 91.8928C19.9478 89.4535 15.6611 86.2869 13.1995 82.1801C12.5665 81.1025 12.0687 79.9729 11.714 78.8096C11.3455 77.5875 11.1391 76.3352 11.0986 75.0753C10.95 70.8975 12.2658 63.6863 14.1438 56.271C15.4701 51.0022 17.0829 45.627 18.6214 41.192C16.937 42.0976 15.0216 42.6596 13.0297 42.833C9.67785 43.0374 6.3137 42.6131 3.18315 41.5912C2.38618 41.3693 1.69232 40.9444 1.19899 40.376C0.278084 39.1879 -0.143735 37.7774 -6.799e-08 36.3668C0.133198 34.6059 0.569171 32.8702 1.29448 31.2133C3.40625 26.1309 7.23113 21.6674 12.3082 18.3607C15.0345 16.6595 18.2586 15.6036 21.6418 15.3039C25.0249 15.0043 28.4422 15.4719 31.5344 16.6577ZM34.3993 16.6134C36.6409 14.7109 39.1122 13.0077 41.7736 11.5309C39.3127 9.16203 37.7051 6.25885 37.1368 3.15761C37.0413 2.62542 36.914 2.35932 36.776 2.27062C36.6381 2.18192 36.5532 2.31497 36.3198 2.43915C35.7416 2.81278 35.2643 3.28431 34.9192 3.82286C33.264 6.20888 32.2453 10.6793 34.4205 16.569L34.3993 16.6134ZM57.9122 8.69247C57.0846 11.0519 55.1004 19.6469 67.4616 23.8512L67.642 23.9222C83.5578 29.324 88.5766 31.0182 92.704 39.0011C93.2693 40.105 94.0041 41.1426 94.8898 42.0879C96.2815 43.6442 98.2461 44.7754 100.482 45.3077C102.675 45.7612 104.988 45.5766 107.039 44.7844C107.92 44.4616 108.76 44.0633 109.543 43.5958C108.821 41.4493 108.026 39.3205 107.166 37.2715C107.141 37.2315 107.12 37.19 107.103 37.1473C106.466 35.6217 105.797 34.1227 105.097 32.7123C102.69 27.9965 99.3063 23.6727 95.102 19.9396L94.9641 19.8154C92.092 17.2909 88.8265 15.1011 85.2555 13.3049C85.2555 13.3049 85.2555 13.3049 85.1812 13.2516C83.4746 12.4003 81.7023 11.6447 79.8759 10.9898C75.0271 9.25243 69.8186 8.32437 64.5437 8.25785C62.322 8.23423 60.1024 8.3797 57.9122 8.69247ZM102.508 23.9488C105.033 23.5497 111.389 22.9909 115.241 26.53C115.676 26.9114 116.047 27.2662 116.376 27.6032C118.06 29.196 119.452 30.9897 120.504 32.9252C121.395 34.6992 121.416 36.216 120.366 37.0231L120.302 37.0852C119.241 37.8481 116.769 38.2206 113.936 37.7948C112.595 37.5856 111.288 37.2463 110.042 36.7837C110.846 37.8136 111.917 38.6798 113.175 39.3183C114.432 39.9569 115.845 40.3516 117.31 40.4736C120.25 40.6525 123.201 40.2923 125.957 39.418C126.214 39.3392 126.436 39.1969 126.594 39.01C127.127 38.2246 127.343 37.3162 127.209 36.42C127.081 34.9037 126.695 33.4105 126.063 31.985C124.141 27.3559 120.659 23.29 116.037 20.2767C108.79 15.8417 101.299 18.1124 98.2427 19.3897C99.777 20.832 101.195 22.3581 102.487 23.9577L102.508 23.9488ZM108.874 34.3001C110.554 35.174 112.415 35.7758 114.36 36.0741C116.62 36.4111 118.36 36.2248 119.05 35.737C119.379 35.4798 119.22 34.6815 118.679 33.5639C117.694 31.796 116.415 30.1535 114.88 28.6854C114.512 28.3188 114.158 27.9817 113.819 27.6742C110.954 25.0753 106.317 25.1906 103.803 25.4922C105.286 27.5044 106.594 29.6031 107.718 31.7721V31.8253C108.111 32.6236 108.503 33.4397 108.864 34.2646L108.874 34.3001ZM88.0672 12.0365C90.715 13.4708 93.201 15.1037 95.4946 16.9149C97.5 11.1849 96.5557 6.82978 94.8792 4.49698C94.5058 3.9457 93.9913 3.47018 93.3725 3.1044C93.1497 2.97135 92.9905 2.91813 92.9269 2.93587C92.8632 2.95361 92.6722 3.25518 92.5661 3.82286C92.0071 6.85662 90.4494 9.70054 88.0672 12.0365Z" fill="#75251C"/>
<path fill-rule="evenodd" clip-rule="evenodd" d="M87.3776 44.2168C84.6401 44.2168 82.4012 47.1439 82.4012 50.7451C82.4012 54.3463 84.6401 57.2823 87.3776 57.2823C94.0728 56.5727 94.0728 44.9264 87.3776 44.2168Z" fill="#75251C"/>
<path fill-rule="evenodd" clip-rule="evenodd" d="M87.3776 60.6973C82.3694 60.6973 78.3162 61.9568 78.3162 63.5357C78.3162 65.1145 82.3694 66.3829 87.3776 66.3829C99.4736 66.0281 99.5372 61.0609 87.3776 60.6973Z" fill="#EC6D58"/>
<path fill-rule="evenodd" clip-rule="evenodd" d="M86.0937 45.9641C85.16 45.9641 84.396 46.9575 84.396 48.1905C84.396 49.4234 85.16 50.4257 86.0937 50.4257C87.0274 50.4257 87.802 49.4234 87.802 48.1905C87.802 46.9575 87.038 45.9641 86.0937 45.9641Z" fill="white"/>
<path fill-rule="evenodd" clip-rule="evenodd" d="M40.9778 44.2168C43.7365 44.2168 45.9541 47.1439 45.9541 50.7451C45.9541 54.3463 43.7365 57.2823 40.9778 57.2823C34.2826 56.5727 34.2932 44.9264 40.9778 44.2168Z" fill="#75251C"/>
<path fill-rule="evenodd" clip-rule="evenodd" d="M40.9778 60.6973C45.986 60.6973 50.0392 61.9568 50.0392 63.5357C50.0392 65.1145 45.986 66.3829 40.9778 66.3829C28.8924 66.0281 28.8182 61.0609 40.9778 60.6973Z" fill="#EC6D58"/>
<path fill-rule="evenodd" clip-rule="evenodd" d="M42.2617 45.9641C43.206 45.9641 43.97 46.9575 43.97 48.1905C43.97 49.4234 43.206 50.4257 42.2617 50.4257C41.3173 50.4257 40.564 49.4234 40.564 48.1905C40.564 46.9575 41.328 45.9641 42.2617 45.9641Z" fill="white"/>
<path fill-rule="evenodd" clip-rule="evenodd" d="M55.9386 72.8844C57.562 72.8844 58.8777 71.4297 58.8777 69.6469C58.8777 67.864 57.562 66.4182 55.9386 66.4182C54.3152 66.4182 53.0526 67.8729 53.0526 69.6469C53.0526 71.4209 54.3789 72.8844 55.9917 72.8844H55.9386Z" fill="#75251C"/>
<path fill-rule="evenodd" clip-rule="evenodd" d="M72.6184 72.8844C74.2205 72.8844 75.5468 71.4297 75.5468 69.6469C75.5468 67.864 74.2736 66.4182 72.6184 66.4182C70.9631 66.4182 69.6686 67.8729 69.6686 69.6469C69.6686 71.4209 70.9843 72.8844 72.6184 72.8844Z" fill="#75251C"/>
<path d="M48.6916 81.7101C48.4599 81.5177 48.3165 81.2633 48.2867 80.9915C48.2569 80.7196 48.3425 80.4476 48.5286 80.2233C48.7147 79.999 48.9894 79.8365 49.3044 79.7646C49.6194 79.6926 49.9547 79.7156 50.2514 79.8296C50.2514 79.8296 62.3155 86.8103 78.2419 79.7675C78.3999 79.6637 78.583 79.5897 78.7785 79.5507C78.974 79.5118 79.1773 79.5087 79.3744 79.5417C79.5714 79.5748 79.7576 79.6432 79.92 79.7422C80.0824 79.8412 80.2172 79.9684 80.315 80.1152C80.4129 80.2619 80.4715 80.4247 80.4869 80.5922C80.5023 80.7597 80.474 80.9281 80.404 81.0856C80.334 81.2431 80.224 81.386 80.0815 81.5046C79.9391 81.6231 79.7676 81.7144 79.5788 81.7722C62.167 89.4713 48.8084 81.7722 48.7341 81.7101H48.6916Z" fill="#75251C"/>
<path fill-rule="evenodd" clip-rule="evenodd" d="M110.402 64.7508C111.623 64.0589 110.721 59.3578 110.402 58.2757L108.683 54.231C108.365 53.6456 108.291 53.344 107.622 53.2375C107.325 54.3995 108.683 57.5661 109.087 58.8877C109.66 60.8657 109.702 64.2895 110.434 64.7508H110.402ZM111.198 67.2255C110.349 67.119 109.967 67.5892 109.999 68.3697C109.999 68.9729 110.402 69.5139 111.251 69.4252C111.537 68.7114 111.537 67.9393 111.251 67.2255H111.198Z" fill="#75251C"/>
</g>
<defs>
<clipPath id="clip0_330_277">
<rect width="130" height="100" fill="white"/>
</clipPath>
</defs>
</svg>
