<svg width="130" height="100" viewBox="0 0 130 100" fill="none" xmlns="http://www.w3.org/2000/svg">
<g clip-path="url(#clip0_330_230)">
<path d="M13.5217 31.8039C13.8746 31.234 14.24 30.674 14.6055 30.114C7.34684 27.5103 3.23866 23.5803 1.46181 19.4832C0.409498 17.0131 0.160291 14.378 0.736556 11.8143C1.31282 9.25057 2.69652 6.83853 4.76348 4.79466C6.22096 3.29604 8.10595 2.08258 10.2692 1.25037C12.4324 0.418164 14.8144 -0.00992677 17.2266 7.6566e-07C29.6016 0.196503 33.861 7.21163 35.285 10.8666C36.9023 10.0603 38.5862 9.33821 40.3257 8.70505C51.6043 4.67675 65.3907 4.4999 82.6803 8.55767C86.8704 9.52155 90.9238 10.8153 94.778 12.4189C95.3451 9.88406 98.6594 0.245629 113.227 7.6566e-07C115.587 -0.011734 117.92 0.398385 120.046 1.19887C122.171 1.99936 124.033 3.16894 125.489 4.6178C127.604 6.65095 129.035 9.06388 129.651 11.6376C130.268 14.2112 130.05 16.8642 129.017 19.3555C127.341 23.3543 123.434 27.2156 116.566 29.829C116.882 30.3105 117.209 30.8116 117.512 31.2832C122.443 39.8371 125.934 48.8529 127.895 58.1057C129.723 66.8795 129.773 74.8084 127.454 79.721C122.363 89.2808 109.333 94.8516 94.0219 97.6813C74.0859 101.326 50.1299 100.314 35.1464 97.1802C27.7995 95.6475 19.3059 93.3484 12.4632 89.8703C5.48178 86.2645 0.302446 81.3912 3.29278e-06 74.7888C-0.189023 70.564 1.43661 63.2934 3.78054 55.8558C6.45212 47.0819 10.0814 37.9839 12.7152 33.258L13.4713 31.912C13.5096 31.8683 13.5433 31.8223 13.5721 31.7744L13.5217 31.8039Z" fill="#75251C"/>
<path d="M18.5246 24.6609C14.3156 22.3815 12.2237 19.9056 11.5936 17.6065C11.2126 16.2998 11.2825 14.9377 11.796 13.6589C12.3096 12.38 13.2485 11.2301 14.5173 10.3261C15.2852 9.72377 16.2182 9.26498 17.2462 8.9842C18.2743 8.70342 19.3705 8.60794 20.4527 8.70494C24.7121 9.27479 27.0812 12.8315 28.2154 15.1993C29.4442 14.2749 30.7356 13.4025 32.0841 12.5859C31.4162 10.1787 28.4674 2.99654 17.151 2.76074C15.2838 2.77102 13.4452 3.11993 11.7807 3.77987C10.1163 4.4398 8.67163 5.39266 7.56107 6.56306C5.92512 8.18624 4.81816 10.0944 4.33501 12.1241C3.79354 14.276 3.9803 16.5007 4.87689 18.5792C6.35129 22.0376 9.9176 25.3389 16.2185 27.6281C16.962 26.6456 17.7055 25.6631 18.4616 24.6806L18.5246 24.6609Z" fill="#C78148"/>
<path d="M26.0857 16.8796C25.4052 15.0816 23.5653 11.2597 19.999 10.7782C19.3297 10.745 18.6592 10.8263 18.0345 11.0164C17.4097 11.2065 16.8458 11.5008 16.3823 11.8787C15.5131 12.4943 14.8584 13.2718 14.4794 14.1384C14.0544 15.1064 13.9845 16.1477 14.2778 17.1449C14.8071 18.9626 16.5083 20.9669 20.0368 22.9024C21.8577 20.7722 23.893 18.7582 26.1235 16.8796H26.0857Z" fill="#FFCFB5"/>
<path d="M110.669 22.755C114.059 20.8784 115.71 18.9232 116.188 17.1449C116.492 16.149 116.426 15.1064 115.999 14.1384C115.62 13.2743 114.97 12.4976 114.109 11.8786C113.638 11.5026 113.066 11.2118 112.434 11.0268C111.803 10.8418 111.127 10.767 110.455 10.8077C106.422 11.348 104.57 16.1624 104.154 17.4887C106.53 19.094 108.711 20.8668 110.669 22.7845V22.755Z" fill="#FFCFB5"/>
<path d="M101.873 16.0051C102.805 13.7454 105.212 9.34371 110.001 8.70508C111.083 8.60953 112.179 8.7057 113.206 8.9864C114.234 9.2671 115.167 9.7251 115.936 10.3262C117.195 11.2353 118.126 12.3864 118.635 13.6642C119.143 14.9419 119.212 16.3015 118.835 17.6066C118.205 19.8271 116.314 22.2244 112.307 24.4842C113.164 25.4667 114.008 26.4001 114.827 27.4317C120.838 25.1425 124.216 21.91 125.64 18.5891C126.515 16.4827 126.68 14.2359 126.119 12.0653C125.597 10.0222 124.441 8.10965 122.754 6.49443C121.642 5.37616 120.217 4.47083 118.588 3.8476C116.958 3.22436 115.168 2.89971 113.353 2.89844C99.7557 3.12442 98.2309 13.4211 98.2309 13.4506C98.2078 13.6341 98.1347 13.8116 98.0167 13.9713C99.3651 14.6394 100.688 15.3469 101.936 16.0936L101.873 16.0051Z" fill="#C78148"/>
<path d="M100.688 93.2601C101.283 92.0949 101.747 90.8918 102.074 89.6641C103.204 85.0783 102.505 80.3327 100.071 76.0661C97.4019 71.4071 92.6556 67.6613 86.7129 65.5238C84.2829 64.622 81.7173 63.9618 79.0762 63.5588C70.4326 62.105 61.516 61.9284 52.7889 63.0381C45.3966 63.9552 38.4434 66.371 32.626 70.0434C25.2288 74.897 26.6402 88.7111 27.1442 92.2285C30.1939 93.0832 33.2309 93.8005 36.0915 94.4096C50.634 97.4554 73.8968 98.4281 93.2406 94.8714C95.766 94.4169 98.2601 93.8627 100.713 93.211L100.688 93.2601Z" fill="#FFCFB5"/>
<path d="M100.688 93.26C101.283 92.0949 101.747 90.8917 102.074 89.664C102.28 88.839 102.427 88.006 102.515 87.1685C94.0093 92.3561 80.5254 95.6475 60.6146 97.1115C71.5704 97.504 82.5447 96.7673 93.2532 94.9205C95.7786 94.466 98.2727 93.9118 100.726 93.26H100.688Z" fill="#FCA187"/>
<path d="M24.2962 91.4227C23.7418 86.5101 23.1117 73.5705 30.8744 68.4712C37.0614 64.5726 44.4453 61.9989 52.2974 61.0041C61.3541 59.8484 70.6087 60.0283 79.5803 61.5347C82.4408 61.9567 85.2222 62.6565 87.8596 63.6176C94.3758 65.969 99.575 70.0854 102.49 75.2014C105.169 79.8618 105.939 85.0528 104.696 90.0668C104.51 90.8396 104.27 91.6038 103.977 92.3561C113.328 89.4085 120.75 85.0167 124.14 78.7483C126.219 74.3663 126.119 66.9582 124.38 58.6363C122.478 49.6318 119.09 40.8571 114.298 32.531C113.756 31.6762 113.177 30.8214 112.572 29.9961C112.533 29.9579 112.503 29.9147 112.484 29.8684C109.615 25.8824 105.865 22.3233 101.407 19.3555C95.6039 15.6298 88.8705 12.8861 81.6344 11.2989C65.252 7.44744 52.2596 7.56534 41.8127 11.2989C32.4244 14.6689 24.9515 21.0257 18.7515 30.0649C18.7211 30.1055 18.6958 30.1482 18.6758 30.1926C18.0458 31.126 17.4157 32.079 16.8108 33.0713L15.9791 34.3879C13.4587 38.9271 9.8798 47.8385 7.23342 56.4649C5.04071 63.7552 3.44029 70.7408 3.61671 74.6709C3.86875 80.1828 8.38019 84.329 14.4921 87.4435C17.5878 88.9998 20.8715 90.3161 24.2962 91.3736V91.4227Z" fill="#C78148"/>
<path d="M49.5754 9.22576C46.8924 9.69263 44.2784 10.3742 41.7749 11.2596C32.3866 14.6296 24.9137 20.9864 18.7136 30.0255C18.6833 30.0661 18.658 30.1089 18.638 30.1533C18.0079 31.0866 17.3779 32.0397 16.773 33.032L15.9791 34.3879C13.4587 38.9271 9.8798 47.8385 7.23342 56.4649C5.04071 63.7551 3.44029 70.7408 3.61671 74.6708C3.73331 77.532 5.02791 80.2879 7.30903 82.5309C7.13708 78.2411 7.64499 73.9511 8.82125 69.7583C12.1607 56.18 16.7982 38.5144 26.8418 25.5453C36.8854 12.5761 49.525 9.17663 49.6006 9.15698L49.5754 9.22576Z" fill="white"/>
<path d="M105.275 85.2427C105.287 86.8617 105.093 88.4776 104.696 90.0668C104.51 90.8395 104.27 91.6038 103.977 92.356C113.328 89.4085 120.75 85.0167 124.14 78.7483C126.219 74.3663 126.119 66.9581 124.38 58.6363C122.478 49.6317 119.09 40.857 114.298 32.5309C113.756 31.6761 113.177 30.8214 112.572 29.996C112.533 29.9579 112.503 29.9146 112.484 29.8683C109.615 25.8824 105.865 22.3233 101.407 19.3555C97.0271 16.5112 92.0752 14.2504 86.7507 12.6646C91.7914 15.2093 99.9952 22.3718 108.249 42.4346C116.188 61.7803 117.197 76.0365 105.275 85.2427Z" fill="#9E6536"/>
<path d="M13.5217 31.8039C13.8746 31.234 14.24 30.674 14.6055 30.114C7.34684 27.5103 3.23866 23.5803 1.46181 19.4832C0.409498 17.0131 0.160291 14.378 0.736556 11.8143C1.31282 9.25057 2.69652 6.83853 4.76348 4.79466C6.22096 3.29604 8.10595 2.08258 10.2692 1.25037C12.4324 0.418164 14.8144 -0.00992677 17.2266 7.6566e-07C29.6016 0.196503 33.861 7.21163 35.285 10.8666C36.9023 10.0603 38.5862 9.33821 40.3257 8.70505C51.6043 4.67675 65.3907 4.4999 82.6803 8.55767C86.8704 9.52155 90.9238 10.8153 94.778 12.4189C95.3451 9.88406 98.6594 0.245629 113.227 7.6566e-07C115.587 -0.011734 117.92 0.398385 120.046 1.19887C122.171 1.99936 124.033 3.16894 125.489 4.6178C127.604 6.65095 129.035 9.06388 129.651 11.6376C130.268 14.2112 130.05 16.8642 129.017 19.3555C127.341 23.3543 123.434 27.2156 116.566 29.829C116.882 30.3105 117.209 30.8116 117.512 31.2832C122.443 39.8371 125.934 48.8529 127.895 58.1057C129.723 66.8795 129.773 74.8084 127.454 79.721C122.363 89.2808 109.333 94.8516 94.0219 97.6813C74.0859 101.326 50.1299 100.314 35.1464 97.1802C27.7995 95.6475 19.3059 93.3484 12.4632 89.8703C5.48178 86.2645 0.302446 81.3912 3.29278e-06 74.7888C-0.189023 70.564 1.43661 63.2934 3.78054 55.8558C6.45212 47.0819 10.0814 37.9839 12.7152 33.258L13.4713 31.912C13.5096 31.8683 13.5433 31.8223 13.5721 31.7744L13.5217 31.8039ZM24.2962 91.4227C23.7418 86.5101 23.1117 73.5705 30.8744 68.4712C37.0614 64.5726 44.4453 61.9989 52.2974 61.0041C61.3541 59.8484 70.6087 60.0283 79.5803 61.5347C82.4408 61.9567 85.2222 62.6565 87.8596 63.6176C94.3758 65.969 99.575 70.0854 102.49 75.2014C105.169 79.8618 105.939 85.0528 104.696 90.0668C104.51 90.8396 104.27 91.6038 103.977 92.3561C113.328 89.4085 120.75 85.0167 124.14 78.7483C126.219 74.3663 126.119 66.9581 124.38 58.6363C122.478 49.6318 119.09 40.857 114.298 32.531C113.756 31.6762 113.177 30.8214 112.572 29.9961C112.533 29.9579 112.503 29.9146 112.484 29.8683C109.615 25.8824 105.865 22.3233 101.407 19.3555C95.6039 15.6298 88.8705 12.8861 81.6344 11.2989C65.252 7.44744 52.2596 7.56534 41.8127 11.2989C32.4244 14.6689 24.9515 21.0257 18.7515 30.0648C18.7211 30.1054 18.6958 30.1482 18.6758 30.1926C18.0458 31.126 17.4157 32.079 16.8108 33.0713L15.9791 34.3879C13.4587 38.9271 9.8798 47.8385 7.23343 56.4649C5.04072 63.7552 3.44029 70.7408 3.61671 74.6709C3.86875 80.1828 8.38019 84.329 14.4921 87.4435C17.5878 88.9998 20.8715 90.3161 24.2962 91.3736V91.4227ZM100.688 93.26C101.283 92.0948 101.747 90.8916 102.074 89.664C103.204 85.0782 102.505 80.3326 100.071 76.066C97.4019 71.407 92.6556 67.6612 86.7129 65.5237C84.2829 64.6219 81.7173 63.9617 79.0762 63.5587C70.4326 62.1049 61.516 61.9283 52.7889 63.0379C45.3967 63.9551 38.4434 66.3709 32.626 70.0432C25.2288 74.8968 26.6402 88.711 27.1442 92.2283C30.1939 93.0831 33.2309 93.8004 36.0915 94.4095C50.634 97.4553 73.8969 98.428 93.2406 94.8713C95.766 94.4168 98.2602 93.8626 100.713 93.2109L100.688 93.26ZM101.873 16.0051C102.805 13.7453 105.212 9.34368 110.001 8.70505C111.083 8.6095 112.179 8.70567 113.206 8.98637C114.234 9.26707 115.167 9.72507 115.936 10.3262C117.195 11.2353 118.126 12.3864 118.635 13.6642C119.143 14.9419 119.212 16.3015 118.835 17.6066C118.205 19.8271 116.314 22.2244 112.307 24.4842C113.164 25.4667 114.008 26.4001 114.827 27.4317C120.838 25.1425 124.216 21.91 125.64 18.5891C126.515 16.4827 126.68 14.2358 126.119 12.0652C125.597 10.0221 124.441 8.10963 122.754 6.4944C121.642 5.37613 120.217 4.47081 118.588 3.84757C116.958 3.22433 115.168 2.89968 113.353 2.89841C99.7557 3.12439 98.2309 13.4211 98.2309 13.4506C98.2078 13.6341 98.1347 13.8116 98.0167 13.9713C99.3651 14.6394 100.688 15.3468 101.936 16.0935L101.873 16.0051ZM110.694 22.755C114.084 20.8784 115.735 18.9232 116.214 17.1448C116.517 16.1489 116.452 15.1063 116.025 14.1383C115.645 13.2743 114.996 12.4976 114.134 11.8786C113.66 11.4999 113.084 11.2076 112.448 11.0224C111.812 10.8373 111.131 10.764 110.455 10.8076C106.422 11.348 104.57 16.1623 104.154 17.4887C106.53 19.094 108.711 20.8667 110.669 22.7844L110.694 22.755ZM26.1109 16.8599C25.4304 15.0619 23.5905 11.2399 20.0242 10.7585C19.3489 10.7248 18.6723 10.8077 18.0428 11.0013C17.4133 11.195 16.8463 11.4945 16.3823 11.8786C15.5131 12.4942 14.8584 13.2717 14.4795 14.1383C14.0544 15.1063 13.9845 16.1476 14.2778 17.1448C14.8071 18.9625 16.5083 20.9668 20.0368 22.9023C21.8577 20.7721 23.893 18.7581 26.1235 16.8795L26.1109 16.8599ZM18.5498 24.6414C14.3408 22.362 12.2489 19.886 11.6188 17.587C11.2379 16.2802 11.3077 14.9182 11.8212 13.6393C12.3348 12.3605 13.2737 11.2105 14.5425 10.3065C15.3104 9.70423 16.2434 9.24545 17.2715 8.96467C18.2995 8.68388 19.3957 8.5884 20.4779 8.6854C24.7373 9.25526 27.1064 12.8119 28.2406 15.1798C29.4694 14.2554 30.7608 13.383 32.1093 12.5663C31.4414 10.1592 28.4926 2.97701 17.1762 2.74121C15.3026 2.75071 13.4576 3.10119 11.7883 3.76472C10.119 4.42825 8.67153 5.38651 7.56107 6.56318C5.92512 8.18635 4.81817 10.0945 4.33502 12.1242C3.79355 14.2761 3.98031 16.5008 4.87689 18.5793C6.3513 22.0377 9.91761 25.339 16.2185 27.6282C16.962 26.6457 17.7055 25.6632 18.4616 24.6807L18.5498 24.6414Z" fill="#75251C"/>
<path fill-rule="evenodd" clip-rule="evenodd" d="M74.0103 79.8586C74.4971 79.8104 74.975 79.7181 75.4343 79.5835C75.6281 79.5193 75.8174 79.4471 76.0013 79.3673C76.581 79.0922 77.9546 77.9623 78.5217 78.2964C78.6216 78.3726 78.6953 78.4672 78.7359 78.5715C79.0888 79.3477 77.564 80.5365 76.9339 80.9098C76.6963 81.0512 76.4433 81.1762 76.1778 81.2832C75.6092 81.542 74.9929 81.7309 74.3505 81.8432C72.4234 82.1348 70.4263 81.9025 68.6923 81.1849H68.6167H68.5411C68.5166 81.1782 68.4899 81.1782 68.4655 81.1849C66.7836 80.4519 65.4557 79.3097 64.6849 77.9328C63.9026 79.3039 62.5777 80.4435 60.9044 81.1849C60.8797 81.1795 60.8535 81.1795 60.8288 81.1849H60.7532H60.665C58.9307 81.9017 56.9339 82.134 55.0068 81.8432C54.2782 81.7546 53.5748 81.5684 52.9275 81.293C52.6637 81.1837 52.4109 81.0589 52.1714 80.9197C51.7885 80.6686 51.4382 80.3889 51.1254 80.0845C50.7222 79.7407 50.1299 79.102 50.3693 78.5813C50.415 78.4788 50.488 78.385 50.5835 78.3062C51.2262 77.9721 52.5872 79.0824 53.1039 79.3771L53.6584 79.5933C54.1201 79.7431 54.602 79.8519 55.095 79.9175C56.5839 80.0888 58.1037 79.8712 59.4174 79.2985C60.6928 78.7716 61.7111 77.9328 62.3158 76.911C62.5968 76.4387 62.7797 75.9347 62.8577 75.4176C62.8577 75.3194 62.8577 75.2309 62.8577 75.1622C62.8577 74.8183 62.8577 74.3663 62.8577 74.0028C62.8577 73.6393 62.6939 72.529 63.2231 72.2834H63.3114C63.765 72.1655 64.0801 72.3915 64.3195 72.7157C64.5337 72.3915 64.8866 72.1655 65.3402 72.2834C65.8695 72.529 65.7435 73.5705 65.7057 74.0028C65.6679 74.4351 65.6301 74.8183 65.7057 75.1523C65.6946 75.2405 65.6946 75.3294 65.7057 75.4176C65.7757 75.9336 65.9501 76.4376 66.2224 76.911C66.8302 77.9312 67.8476 78.7693 69.1208 79.2985C70.4354 79.8691 71.9543 80.0866 73.4432 79.9175L74.0103 79.8586Z" fill="#75251C"/>
<path fill-rule="evenodd" clip-rule="evenodd" d="M93.4296 36.7656C89.8633 36.7656 86.9523 40.283 86.9523 44.6847C86.9523 49.0863 89.8633 52.6135 93.4296 52.6135C102.15 51.7489 102.15 37.6302 93.4296 36.7656Z" fill="#75251C"/>
<path fill-rule="evenodd" clip-rule="evenodd" d="M99.8313 54.4214C93.3162 54.4214 88.0361 55.9541 88.0361 57.8798C88.0361 59.8055 93.3162 61.3284 99.8313 61.3284C115.571 60.8961 115.672 54.8537 99.8313 54.4509V54.4214Z" fill="#FFCFB5"/>
<path fill-rule="evenodd" clip-rule="evenodd" d="M91.7662 38.8682C90.506 38.8682 89.5483 40.0865 89.5483 41.5799C89.5483 43.0733 90.5438 44.2916 91.7662 44.2916C92.9886 44.2916 93.9841 43.0733 93.9841 41.5799C93.9841 40.0865 92.9886 38.8682 91.7662 38.8682Z" fill="white"/>
<path fill-rule="evenodd" clip-rule="evenodd" d="M35.8269 36.7656C39.4058 36.7656 42.3042 40.3125 42.3042 44.6847C42.3042 49.0568 39.4058 52.6135 35.8269 52.6135C27.1064 51.7489 27.119 37.6302 35.8269 36.7656Z" fill="#75251C"/>
<path fill-rule="evenodd" clip-rule="evenodd" d="M29.3874 54.4214C35.9025 54.4214 41.1826 55.9541 41.1826 57.8798C41.1826 59.8055 35.9025 61.3284 29.3874 61.3284C13.6225 60.8961 13.5469 54.8537 29.3874 54.4509V54.4214Z" fill="#FFCFB5"/>
<path fill-rule="evenodd" clip-rule="evenodd" d="M37.4903 38.8682C38.7505 38.8682 39.7208 40.0865 39.7208 41.5799C39.7208 43.0733 38.7253 44.2916 37.4903 44.2916C36.2553 44.2916 35.285 43.0733 35.285 41.5799C35.285 40.0865 36.2805 38.8682 37.4903 38.8682Z" fill="white"/>
<path fill-rule="evenodd" clip-rule="evenodd" d="M64.6345 74.6707C71.0489 74.6707 76.2912 72.6271 76.2912 70.1315C76.2912 67.636 71.0489 65.5825 64.6345 65.5825C58.2202 65.5825 52.9275 67.6556 52.9275 70.1512C52.9275 72.6468 58.2076 74.6707 64.6345 74.6707Z" fill="#75251C"/>
<path fill-rule="evenodd" clip-rule="evenodd" d="M120.662 66.2606C121.821 60.3655 118.633 50.393 116.214 44.8811C115.722 43.8004 114.601 40.5384 112.988 40.1847C112.685 41.3539 114.563 45.2054 115.092 46.63C116.752 51.0628 118.016 55.5801 118.873 60.1494C119.087 61.4364 119.339 67.0269 119.78 67.5968C120.322 67.5084 120.423 67.5968 120.7 66.2606H120.662ZM109.472 34.4567V35.1051C110.045 35.5015 110.479 36.0054 110.732 36.5691C111.324 37.8169 111.992 37.7383 112.395 37.1193L112.484 36.8933C112.509 36.6776 112.509 36.4606 112.484 36.2449C112.269 34.9086 110.82 33.8868 109.509 34.4567H109.472Z" fill="#75251C"/>
</g>
<defs>
<clipPath id="clip0_330_230">
<rect width="130" height="100" fill="white"/>
</clipPath>
</defs>
</svg>
