<svg width="130" height="100" viewBox="0 0 130 100" fill="none" xmlns="http://www.w3.org/2000/svg">
<g clip-path="url(#clip0_330_170)">
<path d="M10.3134 34.5568L10.12 34.4793C8.34093 33.6948 6.78103 31.7287 5.80126 29.1428C4.76537 26.4218 4.32988 23.5918 4.51209 20.765C5.01487 12.5132 10.5325 3.70935 26.428 4.15487C27.7354 4.12217 29.0251 4.3891 30.1258 4.92019C31.2265 5.45128 32.086 6.2214 32.5902 7.12824C36.7955 4.48702 41.6669 2.51053 46.9129 1.3171C56.9556 -0.929876 68.8288 -0.416559 83.0097 3.11855C86.9018 4.06221 90.659 5.29511 94.2255 6.79894C94.7738 5.97128 95.626 5.27884 96.6815 4.80344C97.7369 4.32804 98.9514 4.08954 100.181 4.11613C116.116 3.67061 121.633 12.4745 122.097 20.7263C122.274 23.5529 121.838 26.3822 120.808 29.104C120.607 29.7437 120.357 30.3742 120.06 30.9926C124.336 39.6634 127.337 48.6596 129.007 57.8207C130.503 66.2759 130.387 73.8401 128.066 78.5374C123.103 88.6198 110.018 94.5277 94.6896 97.5108C74.6043 101.385 50.3679 100.31 35.2588 96.9684C27.8848 95.3413 19.3504 92.9006 12.5307 89.2202C5.49186 85.4043 0.309394 80.2711 -7.06811e-06 73.3171C-0.167599 69.3558 1.09579 62.8377 2.99087 55.8837C5.04065 48.4067 7.79948 40.3873 10.2747 34.5762L10.3134 34.5568Z" fill="#75251C"/>
<path d="M102.438 11.0895C102.579 8.81349 102.27 7.15731 100.929 6.99266C100.237 6.8789 99.5144 6.94542 98.8794 7.18129C98.2445 7.41716 97.7353 7.80833 97.4355 8.29049C99.1746 9.14892 100.845 10.0835 102.438 11.0895Z" fill="#CC7356"/>
<path d="M21.7999 18.7408C21.7225 18.2953 21.6323 17.8498 21.5421 17.3946C21.5421 17.3268 21.5421 17.259 21.4776 17.1912C20.7557 13.5302 20.1884 9.782 21.1166 7.25415C11.9506 8.73599 8.59878 15.0023 8.22492 20.8716C8.05123 23.3984 8.42124 25.9297 9.32071 28.368C10.0555 30.305 11.0224 31.6609 11.9764 32.0774C12.26 32.2033 12.6597 31.9612 13.2656 31.2348C14.6845 29.5498 16.523 28.0864 18.6801 26.9249C21.0006 25.5302 22.9472 24.3583 22.3671 21.3171C22.1995 20.3486 22.0319 19.5447 21.8515 18.7408H21.7999Z" fill="#FCB187"/>
<path d="M25.2935 17.4333L25.4611 18.3147C25.6674 19.2832 25.8608 20.2517 26.0026 20.9394C26.8534 25.5592 24.1591 27.1767 20.949 29.1137C19.153 30.0742 17.6136 31.28 16.4111 32.6682C15.883 33.4377 15.1185 34.1017 14.1809 34.6052C11.1498 41.783 8.62809 49.0765 6.62634 56.4551C4.78282 63.2348 3.55811 69.5011 3.71281 73.2396C3.97064 79.167 8.52142 83.6028 14.6837 86.9636C21.1295 90.4212 29.2255 92.7747 36.3031 94.305C50.8965 97.5399 74.3336 98.5955 93.7614 94.8377C108.058 92.058 120.112 86.673 124.585 77.5883C126.687 73.3171 126.751 66.2275 125.333 58.2178C123.851 49.9711 121.26 41.8585 117.598 34.0048C117.314 34.2056 117.003 34.3841 116.67 34.5374C114.465 35.506 112.209 35.1089 110.34 32.7166C109.124 31.2982 107.552 30.0711 105.712 29.104C102.502 27.167 99.8076 25.5495 100.658 20.9297C100.787 20.242 100.968 19.2832 101.174 18.305C101.432 17.0459 101.716 15.7481 101.935 14.5084C99.3055 12.661 96.4132 11.037 93.3102 9.66577C89.6927 8.05947 85.8489 6.76013 81.8495 5.79168C68.455 2.45996 57.3294 1.93696 48.0216 4.02896C38.9974 6.05318 31.546 10.5859 25.2935 17.4236V17.4333Z" fill="#FCB187"/>
<path d="M25.2935 17.4334L25.4611 18.3147C25.6416 19.167 25.8092 19.9903 25.9381 20.6586C29.4704 16.3583 32.7578 14.0436 35.6843 11.4092C39.7714 7.79216 45.0598 5.05212 51.0125 3.46729C49.994 3.62225 49.0014 3.81595 48.0216 4.03871C38.9974 6.06293 31.546 10.5956 25.2935 17.4334ZM19.995 29.6755C18.5745 30.5024 17.361 31.5125 16.4111 32.6586C15.883 33.4281 15.1185 34.0921 14.1809 34.5956C11.1494 41.7765 8.62765 49.0733 6.62634 56.4552C4.78282 63.2348 3.55811 69.5012 3.71281 73.2397C3.82942 76.2005 5.10267 79.0702 7.37406 81.4915C6.34272 76.8329 6.27826 67.8353 11.4349 51.1477C13.5643 43.8385 16.4258 36.6607 19.995 29.6755Z" fill="white"/>
<path d="M85.5365 96.1162C88.3469 95.7869 91.0928 95.3511 93.7614 94.8378C108.058 92.0581 120.112 86.6731 124.585 77.5884C126.687 73.3172 126.751 66.2276 125.333 58.2179C123.851 49.9712 121.26 41.8586 117.598 34.0048C117.314 34.2057 117.003 34.3842 116.67 34.5375C114.465 35.5061 112.209 35.109 110.34 32.7167C109.124 31.2983 107.552 30.0712 105.712 29.1041C103.327 27.6707 101.239 26.4116 100.658 23.9709C100.658 23.9709 99.5111 25.6755 102.863 28.6295C106.215 31.5835 116.515 39.2058 116.85 63.5835C117.057 78.9734 103.379 89.9467 85.5365 96.1162ZM66.7275 52.7361C72.2435 52.6921 77.6032 54.112 81.8623 56.7458C83.8578 57.9141 85.4721 59.409 86.5825 61.1167C87.6928 62.8244 88.27 64.6999 88.27 66.6005C88.27 68.5011 87.6928 70.3766 86.5825 72.0843C85.4721 73.792 83.8578 75.2869 81.8623 76.4552C77.5768 79.0502 72.2382 80.4654 66.7339 80.4654C61.2296 80.4654 55.8911 79.0502 51.6055 76.4552C49.6101 75.2869 47.9958 73.792 46.8854 72.0843C45.775 70.3766 45.1979 68.5011 45.1979 66.6005C45.1979 64.6999 45.775 62.8244 46.8854 61.1167C47.9958 59.409 49.6101 57.9141 51.6055 56.7458C55.8612 54.1142 61.2159 52.6944 66.7275 52.7361ZM100.71 20.9298C100.839 20.2421 101.019 19.2833 101.226 18.3051C101.484 17.046 101.767 15.7482 101.986 14.5085C99.357 12.6611 96.4647 11.0371 93.3618 9.66586C89.7443 8.05956 85.9005 6.76023 81.901 5.79177C79.0353 5.07275 76.1222 4.46501 73.1733 3.97095C73.2378 3.97095 94.3029 11.9322 100.71 20.9201V20.9298Z" fill="#E48A6D"/>
<path d="M29.6509 9.12361C29.5049 8.45914 29.0183 7.86406 28.2954 7.4658C27.5726 7.06755 26.6709 6.89778 25.7834 6.99285C24.0172 7.21561 24.0301 10.0437 24.5716 13.4626C26.1518 11.9265 27.875 10.4765 29.7283 9.12361H29.6509Z" fill="#CC7356"/>
<path d="M64.9227 52.736C69.9761 52.7009 74.8855 54 78.7941 56.4067C80.6213 57.4793 82.0993 58.8504 83.1158 60.4162C84.1322 61.9819 84.6605 63.701 84.6605 65.4431C84.6605 67.1851 84.1322 68.9042 83.1158 70.47C82.0993 72.0357 80.6213 73.4069 78.7941 74.4794C74.8653 76.8558 69.973 78.1514 64.9291 78.1514C59.8852 78.1514 54.9929 76.8558 51.0641 74.4794C49.2369 73.4069 47.7589 72.0357 46.7425 70.47C45.726 68.9042 45.1977 67.1851 45.1977 65.4431C45.1977 63.701 45.726 61.9819 46.7425 60.4162C47.7589 58.8504 49.2369 57.4793 51.0641 56.4067C54.9687 54.0014 59.8734 52.7023 64.9227 52.736Z" fill="#E98E73"/>
<path d="M116.283 30.5568C116.345 30.435 116.423 30.3182 116.515 30.2081C116.812 29.6755 117.108 29.0653 117.392 28.368C118.279 25.9279 118.649 23.3981 118.488 20.8716C118.114 14.9733 114.736 8.71662 105.596 7.25415C106.193 9.48795 106.254 11.7839 105.776 14.0338C105.79 14.1077 105.79 14.1827 105.776 14.2566C105.557 15.7384 105.248 17.2687 104.926 18.7505C104.758 19.5544 104.59 20.368 104.41 21.3268C103.856 24.368 105.802 25.5399 108.123 26.9345C110.244 28.1018 112.051 29.5611 113.447 31.2348C114.014 31.9612 114.427 32.2033 114.736 32.0774C115.436 31.6886 115.98 31.1625 116.309 30.5568H116.283Z" fill="#FCB187"/>
<path d="M59.4824 61.5302C59.2814 61.1844 58.9664 60.8829 58.5671 60.6541C58.1679 60.4253 57.6975 60.2768 57.2005 60.2227C56.6998 60.2755 56.2251 60.4232 55.8214 60.652C55.4177 60.8807 55.0982 61.183 54.8929 61.5302C54.0228 62.7155 53.5785 64.0507 53.6037 65.4043C53.585 66.7572 54.0288 68.0912 54.8929 69.2783C55.0789 69.6462 55.3898 69.9711 55.7945 70.2209C56.1993 70.4706 56.684 70.6365 57.2005 70.7021C57.6967 70.6462 58.166 70.497 58.5649 70.2684C58.9638 70.0399 59.2794 69.7393 59.4824 69.3946C60.3553 68.21 60.7997 66.8743 60.7715 65.5205C60.809 64.1659 60.3639 62.8284 59.4824 61.6464V61.5302Z" fill="#A7533F"/>
<path d="M74.9653 61.5302C74.7612 61.1842 74.4436 60.8828 74.0423 60.6541C73.641 60.4255 73.169 60.277 72.6706 60.2227C72.1706 60.2772 71.697 60.4256 71.2937 60.6542C70.8903 60.8827 70.5702 61.184 70.363 61.5302C69.4929 62.7155 69.0486 64.0507 69.0738 65.4043C69.055 66.7572 69.4989 68.0912 70.363 69.2783C70.5512 69.6452 70.8627 69.9691 71.2671 70.2186C71.6715 70.4681 72.155 70.6347 72.6706 70.7021C73.1678 70.6451 73.6383 70.4957 74.039 70.2673C74.4398 70.039 74.7582 69.739 74.9653 69.3946C75.8348 68.209 76.2791 66.874 76.2545 65.5205C76.2827 64.1667 75.8382 62.8309 74.9653 61.6464V61.5302Z" fill="#A7533F"/>
<path d="M116.283 30.5568C116.345 30.435 116.422 30.3182 116.515 30.2081C116.812 29.6755 117.108 29.0653 117.392 28.3679C118.279 25.9279 118.649 23.3981 118.488 20.8716C118.114 14.9733 114.736 8.71661 105.596 7.25414C106.193 9.48794 106.254 11.7839 105.776 14.0338C105.79 14.1077 105.79 14.1827 105.776 14.2566C105.557 15.7384 105.248 17.2687 104.926 18.7505C104.758 19.5544 104.59 20.3679 104.41 21.3268C103.856 24.3679 105.802 25.5399 108.123 26.9345C110.244 28.1018 112.051 29.5611 113.447 31.2348C114.014 31.9612 114.427 32.2033 114.736 32.0774C115.436 31.6885 115.98 31.1625 116.309 30.5568H116.283ZM57.2005 58.5181C58.1459 58.5613 59.0599 58.7896 59.8514 59.1804C60.643 59.5712 61.2846 60.1109 61.7126 60.7457C62.7363 62.192 63.2717 63.8049 63.2717 65.443C63.2717 67.0811 62.7363 68.694 61.7126 70.1403C61.286 70.7776 60.6453 71.3201 59.8539 71.7141C59.0625 72.1082 58.1479 72.3403 57.2005 72.3873C56.2518 72.3441 55.335 72.1136 54.5428 71.7191C53.7505 71.3246 53.1109 70.78 52.6884 70.1403C51.6481 68.698 51.1033 67.0835 51.1033 65.443C51.1033 63.8025 51.6481 62.188 52.6884 60.7457C53.1122 60.1084 53.7528 59.5667 54.5452 59.1754C55.3377 58.7842 56.2537 58.5574 57.2005 58.5181ZM64.9355 52.3098C70.1635 52.2696 75.2434 53.6138 79.284 56.1064C81.1752 57.2151 82.7051 58.633 83.7573 60.2526C84.8096 61.8721 85.3565 63.6505 85.3565 65.4527C85.3565 67.2548 84.8096 69.0333 83.7573 70.6528C82.7051 72.2723 81.1752 73.6903 79.284 74.7989C75.21 77.2445 70.1503 78.5766 64.9355 78.5766C59.7208 78.5766 54.661 77.2445 50.5871 74.7989C48.6959 73.6903 47.166 72.2723 46.1137 70.6528C45.0615 69.0333 44.5146 67.2548 44.5146 65.4527C44.5146 63.6505 45.0615 61.8721 46.1137 60.2526C47.166 58.633 48.6959 57.2151 50.5871 56.1064C54.618 53.6066 59.696 52.2583 64.9226 52.3001L64.9355 52.3098ZM77.4921 57.6948C73.9273 55.5623 69.5052 54.4012 64.9484 54.4012C60.3916 54.4012 55.9695 55.5623 52.4048 57.6948C50.822 58.6063 49.5397 59.7793 48.6572 61.1229C47.7747 62.4665 47.3157 63.9447 47.3157 65.443C47.3157 66.9413 47.7747 68.4195 48.6572 69.7631C49.5397 71.1067 50.822 72.2797 52.4048 73.1912C55.9695 75.3237 60.3916 76.4848 64.9484 76.4848C69.5052 76.4848 73.9273 75.3237 77.4921 73.1912C79.0749 72.2797 80.3572 71.1067 81.2397 69.7631C82.1222 68.4195 82.5812 66.9413 82.5812 65.443C82.5812 63.9447 82.1222 62.4665 81.2397 61.1229C80.3572 59.7793 79.0749 58.6063 77.4921 57.6948ZM72.6835 58.5181C73.6299 58.5584 74.5454 58.7856 75.3376 59.1767C76.1299 59.5678 76.7707 60.109 77.1956 60.7457C78.228 62.1899 78.7684 63.8037 78.7684 65.443C78.7684 67.0823 78.228 68.6961 77.1956 70.1403C76.8206 70.8066 76.1927 71.375 75.3902 71.7747C74.5877 72.1743 73.6462 72.3874 72.6835 72.3874C71.7207 72.3874 70.7792 72.1743 69.9767 71.7747C69.1742 71.375 68.5463 70.8066 68.1714 70.1403C67.1477 68.694 66.6123 67.0811 66.6123 65.443C66.6123 63.8049 67.1477 62.192 68.1714 60.7457C68.5962 60.109 69.2371 59.5678 70.0293 59.1767C70.8215 58.7856 71.737 58.5584 72.6835 58.5181ZM74.7719 61.8207C74.5826 61.5002 74.2882 61.2211 73.9161 61.0093C73.5441 60.7976 73.1067 60.6602 72.6448 60.6101C72.1833 60.6611 71.7463 60.7988 71.3745 61.0104C71.0027 61.222 70.708 61.5008 70.5176 61.8207C69.7548 62.9439 69.3571 64.1869 69.3571 65.4478C69.3571 66.7088 69.7548 67.9518 70.5176 69.075C70.7102 69.3947 71.0053 69.6735 71.3765 69.8865C71.7477 70.0995 72.1835 70.24 72.6448 70.2953C73.1064 70.2408 73.5427 70.1007 73.9141 69.8876C74.2855 69.6745 74.5804 69.3952 74.7719 69.075C75.5429 67.9536 75.9452 66.7099 75.9452 65.4478C75.9452 64.1858 75.5429 62.942 74.7719 61.8207ZM59.3019 61.8207C59.1147 61.501 58.8225 61.2221 58.4527 61.0104C58.0829 60.7986 57.6476 60.6609 57.1876 60.6101C56.7226 60.6569 56.2814 60.7929 55.9066 61.0049C55.5318 61.2169 55.236 61.4979 55.0476 61.8207C54.2766 62.942 53.8743 64.1858 53.8743 65.4478C53.8743 66.7099 54.2766 67.9536 55.0476 69.075C55.2383 69.3975 55.5346 69.6785 55.9087 69.8919C56.2829 70.1052 56.7229 70.244 57.1876 70.2953C57.6478 70.241 58.0824 70.1008 58.4518 69.8876C58.8211 69.6744 59.1134 69.395 59.3019 69.075C60.0728 67.9536 60.4752 66.7099 60.4752 65.4478C60.4752 64.1858 60.0728 62.942 59.3019 61.8207ZM29.6509 9.12339C29.5049 8.45893 29.0183 7.86385 28.2954 7.46559C27.5726 7.06733 26.6709 6.89756 25.7834 6.99264C24.0172 7.2154 24.0301 10.0435 24.5716 13.4624C26.1518 11.9263 27.875 10.4763 29.7283 9.12339H29.6509ZM25.2935 17.4333L25.4611 18.3147C25.6674 19.2832 25.8608 20.2517 26.0026 20.9394C26.8534 25.5592 24.1591 27.1767 20.949 29.1137C19.153 30.0742 17.6136 31.28 16.4111 32.6682C15.883 33.4377 15.1185 34.1017 14.1809 34.6052C11.1498 41.783 8.62809 49.0765 6.62633 56.4551C4.78282 63.2348 3.55811 69.5011 3.71281 73.2396C3.97064 79.167 8.52141 83.6028 14.6837 86.9636C21.1295 90.4212 29.2255 92.7747 36.303 94.305C50.8965 97.5399 74.3336 98.5955 93.7614 94.8377C108.058 92.058 120.112 86.673 124.585 77.5883C126.687 73.3171 126.751 66.2275 125.333 58.2178C123.851 49.9711 121.26 41.8585 117.598 34.0047C117.314 34.2056 117.003 34.3841 116.67 34.5374C114.465 35.506 112.209 35.1089 110.34 32.7166C109.124 31.2982 107.552 30.0711 105.712 29.104C102.502 27.167 99.8076 25.5495 100.658 20.9297C100.787 20.242 100.968 19.2832 101.174 18.305C101.432 17.0459 101.716 15.7481 101.935 14.5084C99.3055 12.661 96.4131 11.037 93.3102 9.66577C89.6927 8.05947 85.8489 6.76013 81.8495 5.79167C68.455 2.45995 57.3294 1.93695 48.0216 4.02896C38.9974 6.05317 31.546 10.5859 25.2935 17.4236V17.4333ZM10.3134 34.5568L10.12 34.4793C8.34093 33.6948 6.78103 31.7287 5.80126 29.1428C4.76537 26.4218 4.32988 23.5918 4.51209 20.765C5.01487 12.5132 10.5325 3.70935 26.428 4.15487C27.7354 4.12217 29.0251 4.3891 30.1258 4.92019C31.2265 5.45128 32.086 6.2214 32.5902 7.12824C36.7955 4.48702 41.6669 2.51053 46.9129 1.3171C56.9556 -0.929876 68.8288 -0.416559 83.0097 3.11855C86.9018 4.06221 90.659 5.29511 94.2255 6.79894C94.7738 5.97128 95.626 5.27884 96.6815 4.80344C97.7369 4.32804 98.9514 4.08954 100.181 4.11613C116.116 3.67061 121.633 12.4745 122.097 20.7263C122.274 23.5529 121.838 26.3822 120.808 29.104C120.607 29.7437 120.357 30.3742 120.06 30.9926C124.336 39.6634 127.337 48.6596 129.007 57.8207C130.503 66.2759 130.387 73.8401 128.066 78.5374C123.103 88.6198 110.018 94.5277 94.6896 97.5108C74.6043 101.385 50.3679 100.31 35.2588 96.9684C27.8848 95.3413 19.3504 92.9006 12.5307 89.2202C5.49186 85.4043 0.309394 80.2711 -7.06811e-06 73.3171C-0.167599 69.3558 1.09579 62.8377 2.99087 55.8837C5.04065 48.4067 7.79948 40.3873 10.2747 34.5762L10.3134 34.5568ZM21.8257 18.7408C21.7483 18.2953 21.6581 17.8498 21.5678 17.3946C21.5678 17.3268 21.5678 17.259 21.5034 17.1912C20.7814 13.5302 20.2142 9.78199 21.1424 7.25414C11.9764 8.73598 8.62455 15.0023 8.25069 20.8716C8.077 23.3984 8.44702 25.9297 9.34648 28.3679C10.0813 30.305 11.0482 31.6609 12.0022 32.0774C12.2858 32.2033 12.6854 31.9612 13.2913 31.2348C14.7103 29.5498 16.5488 28.0864 18.7059 26.9248C21.0264 25.5302 22.973 24.3583 22.3929 21.3171C22.2253 20.3486 22.0577 19.5447 21.8772 18.7408H21.8257ZM102.463 11.0895C102.605 8.81347 102.296 7.15729 100.955 6.99264C100.263 6.87888 99.5401 6.9454 98.9052 7.18127C98.2703 7.41714 97.761 7.80831 97.4613 8.29046C99.2003 9.14889 100.871 10.0835 102.463 11.0895Z" fill="#75251C"/>
<path fill-rule="evenodd" clip-rule="evenodd" d="M98.9954 37.0168C95.3213 37.0168 92.3562 40.5132 92.3562 44.8425C92.3562 49.1718 95.3213 52.6875 98.9954 52.6875C107.955 51.8352 107.929 37.8498 98.9954 37.0168Z" fill="#75251C"/>
<path fill-rule="evenodd" clip-rule="evenodd" d="M98.9954 56.7844C92.3175 56.7844 86.8901 58.3244 86.8901 60.2033C86.8901 62.0822 92.3175 63.6222 98.9954 63.6222C115.162 63.1864 115.252 57.2203 98.9954 56.7844Z" fill="#EC6D58"/>
<path fill-rule="evenodd" clip-rule="evenodd" d="M97.268 39.0896C95.9788 39.0896 95.0119 40.2906 95.0119 41.7724C95.0119 43.2542 96.0303 44.4552 97.268 44.4552C98.5056 44.4552 99.5627 43.2542 99.5627 41.7724C99.5627 40.2906 98.5313 39.0896 97.268 39.0896Z" fill="white"/>
<path fill-rule="evenodd" clip-rule="evenodd" d="M30.8628 37.0168C34.5369 37.0168 37.5149 40.5132 37.5149 44.8425C37.5149 49.1718 34.5369 52.6875 30.8628 52.6875C21.9159 51.8352 21.9288 37.8498 30.8628 37.0168Z" fill="#75251C"/>
<path fill-rule="evenodd" clip-rule="evenodd" d="M30.8627 56.7844C37.5535 56.7844 42.9681 58.3244 42.9681 60.2033C42.9681 62.0822 37.5535 63.6222 30.8627 63.6222C14.7094 63.1864 14.6192 57.2203 30.8627 56.7844Z" fill="#EC6D58"/>
<path fill-rule="evenodd" clip-rule="evenodd" d="M32.5645 39.0896C33.8536 39.0896 34.8592 40.2906 34.8592 41.7724C34.8592 43.2542 33.8278 44.4552 32.5645 44.4552C31.3011 44.4552 30.3084 43.2542 30.3084 41.7724C30.3084 40.2906 31.3269 39.0896 32.5645 39.0896Z" fill="white"/>
<path fill-rule="evenodd" clip-rule="evenodd" d="M120.357 54.2373C119.429 57.1428 122.42 67.0702 121.762 74.0435C121.607 75.8159 120.473 78.8862 120.782 80.3777C121.917 80.184 122.304 78.6343 122.626 77.7724C123.02 76.7257 123.3 75.6569 123.464 74.5762C124.392 68.7651 123.013 62.7312 121.762 57.0072C121.659 56.4745 121.504 55.9322 121.337 55.4189C120.898 53.9854 120.808 54.3051 120.357 54.2082V54.2373ZM118.114 49.5883C118.591 51.3898 120.28 51.1961 120.073 49.5883C119.893 48.1259 117.611 47.6513 118.114 49.5883Z" fill="#75251C"/>
</g>
<defs>
<clipPath id="clip0_330_170">
<rect width="130" height="100" fill="white"/>
</clipPath>
</defs>
</svg>
