<svg width="130" height="100" viewBox="0 0 130 100" fill="none" xmlns="http://www.w3.org/2000/svg">
<g clip-path="url(#clip0_330_150)">
<path fill-rule="evenodd" clip-rule="evenodd" d="M104.142 0.610907C113.407 -2.07011 127.279 7.65997 120.052 17.0253C112.824 26.3906 88.9154 26.9651 88.9154 26.9651C87.6497 19.2503 87.6497 20.2534 92.0037 12.6481C94.6364 8.08857 97.9525 3.08218 104.142 0.574431V0.610907Z" fill="#9C7E82"/>
<path fill-rule="evenodd" clip-rule="evenodd" d="M94.4718 18.0194C96.1932 13.852 98.4841 8.92767 103.699 6.38345C109.002 4.86056 116.913 10.405 112.786 15.7852C108.66 21.1655 95.0667 21.4573 95.0667 21.4573L94.4718 18.0194Z" fill="#B5969C"/>
<path fill-rule="evenodd" clip-rule="evenodd" d="M25.9089 -9.8391e-05C6.22724 -0.601959 -2.0884 25.1139 42.2744 26.7006C44.0084 26.7644 43.135 26.5729 43.3882 24.2202C43.9704 18.8035 43.3882 19.0862 40.3378 13.6694C37.5786 8.78159 33.5031 1.49543 25.9089 -0.00921749V-9.8391e-05Z" fill="#CCAEB6"/>
<path fill-rule="evenodd" clip-rule="evenodd" d="M25.314 5.52612C13.8467 6.98518 12.1507 18.8582 32.8196 20.6638C36.6167 21.0012 35.8193 21.1107 36.161 17.9281C36.3888 15.548 30.8451 6.86663 26.9088 5.7997L25.314 5.52612Z" fill="#B5969C"/>
<path fill-rule="evenodd" clip-rule="evenodd" d="M94.7882 17.2624C101.168 20.7053 106.189 25.2882 109.356 30.558C114.9 39.8595 124.773 63.943 117.533 73.3175C103.104 90.5161 51.7798 89.4765 28.9972 83.4853C7.10058 77.7402 9.82184 64.6087 13.0873 50.9118C14.872 43.4342 17.897 34.2695 22.9345 27.5761C38.4393 7.96091 69.6135 4.14913 94.7882 17.2624Z" fill="#B5969C"/>
<path fill-rule="evenodd" clip-rule="evenodd" d="M109.356 30.5582C115.027 40.1241 125.152 64.4904 117.077 73.9924C108.686 83.8958 84.207 87.0419 69.4869 87.5434C109.255 83.2939 112.976 57.0948 102.585 33.9323C97.0032 22.7158 84.4855 12.7668 67.9934 9.69371C65.0823 9.15569 76.1318 10.7333 77.1317 10.9521C91.9657 14.08 102.8 20.436 109.356 30.5582Z" fill="#9C7E82"/>
<path d="M34.8194 20.6182C38.0723 18.3658 38.9203 20.6182 37.528 21.603C30.3515 26.8465 25.1115 31.8164 22.0738 38.9293C21.5169 40.3884 18.1755 40.7258 19.6563 37.3882C22.5674 31.0048 28.2757 25.3054 34.8447 20.6091L34.8194 20.6182ZM41.1479 17.9372C40.5024 16.1134 49.8433 13.1314 48.1346 16.1134C48.1346 16.1681 42.3503 19.7063 41.1479 17.9372Z" fill="white"/>
<path fill-rule="evenodd" clip-rule="evenodd" d="M86.0676 54.4865C94.8262 56.6112 106.471 55.3072 113.761 53.0274C124.216 49.7628 128.633 57.2678 129.405 62.4748C130.671 70.7458 136.151 99.9999 65.1202 99.9999C-5.91081 99.9999 -0.961924 70.682 0.822712 62.4748C2.60735 54.2676 8.41691 50.9209 17.6818 53.7478C24.8204 55.9273 35.8446 56.6112 44.1603 54.4865C56.3996 51.3586 73.765 51.4863 86.0549 54.4865H86.0676Z" fill="#CCAEB6"/>
<path fill-rule="evenodd" clip-rule="evenodd" d="M89.5862 38.2273C86.5485 38.2273 84.0931 40.963 84.0931 44.4374C84.0931 47.9118 86.5485 50.6566 89.5862 50.6566C92.6239 50.6566 95.092 47.8662 95.092 44.4374C95.092 41.0086 92.6239 38.2273 89.5862 38.2273Z" fill="#323334"/>
<path fill-rule="evenodd" clip-rule="evenodd" d="M88.1813 39.8687C87.1434 39.8687 86.308 40.8262 86.308 41.9934C86.308 43.1606 87.1434 44.1273 88.1813 44.1273C89.2191 44.1273 90.0545 43.2154 90.0545 41.9934C90.0545 40.7714 89.2191 39.8687 88.1813 39.8687Z" fill="white"/>
<path fill-rule="evenodd" clip-rule="evenodd" d="M39.8695 38.2273C36.8319 38.2273 34.3637 40.963 34.3637 44.4374C34.3637 47.9118 36.8951 50.6566 39.8695 50.6566C42.8439 50.6566 45.3627 47.8662 45.3627 44.4374C45.3627 41.0086 42.8313 38.2273 39.8695 38.2273Z" fill="#323334"/>
<path fill-rule="evenodd" clip-rule="evenodd" d="M38.452 39.8687C37.4141 39.8687 36.5661 40.8262 36.5661 41.9934C36.5661 43.1606 37.4141 44.1273 38.452 44.1273C39.4898 44.1273 40.3379 43.2154 40.3379 41.9934C40.3379 40.7714 39.4898 39.8687 38.452 39.8687Z" fill="white"/>
<path fill-rule="evenodd" clip-rule="evenodd" d="M89.5356 52.6628C76.8786 52.6628 76.8786 57.8516 89.5356 57.8516C102.509 57.5142 102.193 52.9911 89.5356 52.6628Z" fill="#FDE1D4"/>
<path fill-rule="evenodd" clip-rule="evenodd" d="M39.9328 52.6628C52.5898 52.6628 52.5898 57.8516 39.9328 57.8516C26.9341 57.5142 27.2758 52.9911 39.9328 52.6628Z" fill="#FDE1D4"/>
<path fill-rule="evenodd" clip-rule="evenodd" d="M57.2223 70.6365C60.1334 70.6365 62.5256 68.1561 62.5256 65.1651C62.5256 62.174 60.1334 59.6389 57.2223 59.6389C54.3112 59.6389 51.8937 62.0828 51.8937 65.1195C51.8937 68.1562 54.2732 70.591 57.197 70.591L57.2223 70.6365Z" fill="#9C7E82"/>
<path fill-rule="evenodd" clip-rule="evenodd" d="M73.0056 70.6365C75.942 70.6365 78.3215 68.1561 78.3215 65.1651C78.3215 62.174 75.942 59.6389 73.0056 59.6389C70.0691 59.6389 67.7149 62.1284 67.7149 65.1651C67.7149 68.2017 70.0945 70.6365 73.0056 70.6365Z" fill="#9C7E82"/>
<path fill-rule="evenodd" clip-rule="evenodd" d="M24.3014 75.5974C24.3014 75.5974 24.6685 84.2514 25.6684 85.5555C26.6683 86.8595 32.8196 89.0663 39.8822 88.6742C40.5225 88.5209 41.0945 88.2475 41.5394 87.8821C41.9843 87.5166 42.2861 87.0724 42.4136 86.595C43.1097 84.7712 44.1349 79.9563 44.1349 79.9563C44.1349 79.9563 31.6425 79.0535 24.3014 75.5974Z" fill="white"/>
<path fill-rule="evenodd" clip-rule="evenodd" d="M100.497 75.6885C100.497 75.6885 100.117 84.3425 99.1423 85.6465C98.1677 86.9506 91.9911 89.1483 84.9158 88.7561C84.2739 88.6021 83.7008 88.3273 83.2557 87.9602C82.8107 87.593 82.5098 87.1469 82.3844 86.6679C81.6883 84.844 80.6504 80.0474 80.6504 80.0474C80.6504 80.0474 93.1302 79.1355 100.471 75.6885H100.497Z" fill="white"/>
<path d="M18.302 73.664C18.2089 73.6113 18.1312 73.546 18.0732 73.4716C18.0152 73.3973 17.978 73.3154 17.9639 73.2308C17.9355 73.0597 18.0024 72.8876 18.1501 72.7521C18.2978 72.6167 18.5142 72.5291 18.7515 72.5086C18.9889 72.488 19.2279 72.5363 19.4158 72.6427C19.5171 72.6427 50.109 90.2061 111.027 72.5424C111.139 72.5107 111.257 72.495 111.377 72.4964C111.497 72.4978 111.615 72.5162 111.725 72.5505C111.835 72.5848 111.934 72.6343 112.018 72.6963C112.101 72.7583 112.167 72.8315 112.211 72.9117C112.255 72.992 112.276 73.0776 112.274 73.1639C112.272 73.2502 112.247 73.3353 112.199 73.4145C112.152 73.4937 112.083 73.5653 111.997 73.6254C111.911 73.6854 111.809 73.7326 111.698 73.7644C49.8179 91.6925 18.4033 73.7644 18.302 73.664Z" fill="#B5969C"/>
</g>
<defs>
<clipPath id="clip0_330_150">
<rect width="130" height="100" fill="white"/>
</clipPath>
</defs>
</svg>
