<svg width="130" height="100" viewBox="0 0 130 100" fill="none" xmlns="http://www.w3.org/2000/svg">
<g clip-path="url(#clip0_330_59)">
<path fill-rule="evenodd" clip-rule="evenodd" d="M96.7203 2.01289C104.267 -2.9086 121.859 3.19043 119.361 14.211C116.864 25.2315 94.5062 31.6325 94.5062 31.6325C89.8079 24.3861 90.1724 25.3925 90.8204 16.8378C91.158 11.715 91.995 6.03866 96.7203 2.01289Z" fill="#414345"/>
<path fill-rule="evenodd" clip-rule="evenodd" d="M95.5592 21.4674C95.2352 16.9586 95.1947 11.554 98.975 7.81001C103.282 5.03223 113.407 8.48432 111.909 14.7746C110.41 21.0648 97.6924 24.7283 97.6924 24.7283L95.5592 21.4674Z" fill="#FFCFB5"/>
<path fill-rule="evenodd" clip-rule="evenodd" d="M30.701 0.855469C12.3803 -4.72022 -7.57399 18.3172 33.5902 31.0789C35.2103 31.5721 34.4543 31.1695 35.8178 28.9251C38.9095 23.7822 38.221 23.8929 37.8835 17.8543C37.5865 12.3692 37.1544 4.22705 30.701 0.855469Z" fill="#414345"/>
<path fill-rule="evenodd" clip-rule="evenodd" d="M27.5148 6.10914C16.012 4.60954 8.82957 15.8012 27.5148 22.7859C30.998 24.0942 30.134 23.9835 31.9566 20.934C33.3067 18.6494 32.1456 8.77621 28.9189 6.74319L27.5148 6.10914Z" fill="#FFCFB5"/>
<path fill-rule="evenodd" clip-rule="evenodd" d="M99.9065 13.3856C107.479 17.6399 113.442 23.2852 117.215 29.7705C123.817 41.264 135.576 70.8937 126.908 82.4376C109.722 103.573 48.6032 102.345 21.5069 94.9677C-4.56329 87.9227 -1.32308 71.7089 2.60567 54.8309C4.72531 45.632 8.34355 34.3397 14.3244 26.107C32.8071 1.93232 69.9346 -2.7577 99.9065 13.3856Z" fill="white"/>
<path fill-rule="evenodd" clip-rule="evenodd" d="M117.215 29.7705C123.965 41.4855 136.021 71.558 126.422 83.2629C116.405 95.461 87.2697 99.3659 69.7186 100C117.093 94.7564 121.508 62.4799 109.155 33.9674C102.512 20.1288 87.6342 7.84017 67.9634 4.02576C64.5207 3.37157 77.6571 5.32407 78.8587 5.58575C96.5043 9.44042 109.398 17.2605 117.215 29.7403V29.7705Z" fill="#EDF2F3"/>
<path d="M29.8909 15.9722C33.1447 13.6372 34.0087 15.9722 32.5911 16.9786C25.3682 22.4134 20.1298 27.5764 17.0651 35.004C16.4576 36.4835 13.1364 36.8256 14.6485 33.3735C17.5511 26.731 23.289 20.8333 29.8504 15.9521L29.8909 15.9722ZM36.3174 13.1843C35.6558 11.2822 45.0254 8.20246 43.3108 11.3224C43.3108 11.3727 37.4919 15.0362 36.3174 13.1843Z" fill="white"/>
<path fill-rule="evenodd" clip-rule="evenodd" d="M82.3554 38.6775C93.6556 30.3845 124.627 48.4098 123.587 59.8732C122.548 71.3366 115.743 78.3112 109.87 79.5089C85.6766 84.4002 58.0538 56.5117 82.3554 38.6775ZM93.1561 41.1031C87.1617 41.1031 82.3554 45.8233 82.3554 51.6304C82.3554 57.4376 87.2157 62.1679 93.1561 62.1679C99.0965 62.1679 103.957 57.4477 103.957 51.6304C103.957 45.8132 99.0965 41.1031 93.1561 41.1031Z" fill="#3F3F40"/>
<path fill-rule="evenodd" clip-rule="evenodd" d="M113.097 45.2898C119.429 49.8288 123.979 55.3542 123.56 59.853C122.507 71.3466 115.743 78.3111 109.87 79.5088C115.838 69.7161 116.27 57.5482 113.097 45.2898Z" fill="#323334"/>
<path fill-rule="evenodd" clip-rule="evenodd" d="M92.076 43.9916C89.0248 43.9916 86.5677 46.87 86.5677 50.4429C86.5677 54.0157 89.0248 56.8942 92.076 56.8942C95.1272 56.8942 97.5979 54.0057 97.5979 50.4429C97.5979 46.8801 95.1272 43.9916 92.076 43.9916Z" fill="#323334"/>
<path fill-rule="evenodd" clip-rule="evenodd" d="M90.6584 45.7025C89.6189 45.7025 88.7683 46.709 88.7683 47.9167C88.7683 49.1244 89.6189 50.1107 90.6584 50.1107C91.698 50.1107 92.5351 49.1043 92.5351 47.9167C92.5351 46.7291 91.698 45.7025 90.6584 45.7025Z" fill="white"/>
<path fill-rule="evenodd" clip-rule="evenodd" d="M46.9156 38.6775C35.6153 30.3845 4.64431 48.4098 5.69738 59.8732C6.75045 71.3366 13.5009 78.3112 19.3738 79.5089C43.5674 84.4203 71.2172 56.5318 46.9156 38.6977V38.6775ZM36.1824 41.1031C42.2038 41.1031 47.0641 45.8233 47.0641 51.6304C47.0641 57.4376 42.2038 62.1679 36.1824 62.1679C30.161 62.1679 25.3817 57.4477 25.3817 51.6304C25.3817 45.8132 30.242 41.1031 36.2499 41.1031H36.1824Z" fill="#3F3F40"/>
<path fill-rule="evenodd" clip-rule="evenodd" d="M37.1679 43.9916C40.2056 43.9916 42.6898 46.87 42.6898 50.4429C42.6898 54.0157 40.2056 56.8942 37.1679 56.8942C34.1302 56.8942 31.6461 54.0057 31.6461 50.4429C31.6461 46.8801 34.1302 43.9916 37.1679 43.9916Z" fill="#323334"/>
<path fill-rule="evenodd" clip-rule="evenodd" d="M38.599 45.7025C39.6386 45.7025 40.4756 46.709 40.4756 47.9167C40.4756 49.1244 39.6386 50.1107 38.599 50.1107C37.5594 50.1107 36.7089 49.1043 36.7089 47.9167C36.7089 46.7291 37.5459 45.7025 38.599 45.7025Z" fill="white"/>
<path fill-rule="evenodd" clip-rule="evenodd" d="M51.4789 75.4831C55.7744 74.9088 60.1297 74.6191 64.4937 74.6176C78.4401 74.7283 99.596 78.2307 104.375 87.9529C104.916 89.1675 105.129 90.4496 105.004 91.7258C104.879 93.0021 104.418 94.2474 103.646 95.3905C103.593 95.4045 103.543 95.4249 103.498 95.4509C79.4122 102.013 45.444 100.483 25.3277 95.934C24.3885 94.2889 23.9638 92.5061 24.0856 90.7206C25.3682 82.3672 40.1651 77.2041 51.4789 75.4831Z" fill="#EDF2F3"/>
<path fill-rule="evenodd" clip-rule="evenodd" d="M92.022 64.5531C79.2907 64.5531 79.2907 69.9476 92.022 69.9476C105.05 69.6054 104.767 64.9154 92.022 64.5531Z" fill="#EC6D58"/>
<path fill-rule="evenodd" clip-rule="evenodd" d="M64.6152 80.9078C48.8327 80.9884 45.417 68.3173 64.6152 68.3777C83.341 68.3777 80.1412 80.8374 64.6152 80.9078Z" fill="#414345"/>
<path fill-rule="evenodd" clip-rule="evenodd" d="M37.2489 64.5531C49.9533 64.5531 49.9533 69.9476 37.2489 69.9476C24.2071 69.6054 24.4771 64.9154 37.2489 64.5531Z" fill="#EC6D58"/>
<path d="M76.955 86.1716C76.3946 86.3234 75.8159 86.4346 75.2269 86.5037C73.4544 86.665 71.6569 86.4486 70.0426 85.8797H69.9346C69.9346 85.8797 69.9346 85.8797 69.8671 85.8797C68.3722 85.3708 67.1368 84.5169 66.3433 83.4441C66.0042 82.9563 65.7804 82.4286 65.6818 81.8841C65.6891 81.7903 65.6891 81.6962 65.6818 81.6023C65.6818 81.1092 65.9653 79.3177 65.6818 79.1868C65.3983 79.056 64.8987 79.68 64.6557 80.304C64.4532 79.68 64.1292 79.0963 63.6567 79.1868C63.1841 79.2774 63.6567 81.1092 63.6567 81.6023C63.6567 81.6929 63.6567 81.7835 63.6567 81.8841C63.5673 82.4275 63.3526 82.9552 63.0221 83.4441C58.0943 89.4827 49.0757 85.0041 49.0217 85.0041C47.6716 85.0041 51.8974 89.5431 59.9574 87.0975H60.1059C60.1059 87.0975 60.1059 87.0975 60.1734 87.0975C61.9736 86.4626 63.4407 85.4008 64.3452 84.0782C64.4873 83.8507 64.6047 83.6151 64.6962 83.3736C64.8042 83.5951 64.9392 83.8366 65.0742 84.0782C65.9828 85.3985 67.4487 86.4595 69.246 87.0975C69.246 87.0975 69.246 87.0975 69.3135 87.0975H69.462C71.374 87.7619 73.5136 87.9727 75.5914 87.7013C76.3098 87.6168 77.0065 87.4504 77.6571 87.2082C79.4932 86.5339 82.8279 83.6353 77.9541 85.93C77.6785 86.0613 77.3842 86.1693 77.0765 86.2521L76.955 86.1716Z" fill="#414345"/>
</g>
<defs>
<clipPath id="clip0_330_59">
<rect width="130" height="100" fill="white"/>
</clipPath>
</defs>
</svg>
