<svg width="130" height="100" viewBox="0 0 130 100" fill="none" xmlns="http://www.w3.org/2000/svg">
<g clip-path="url(#clip0_330_304)">
<path d="M103.405 96.4925C91.3798 99.6228 77.3122 99.9622 66.3853 100C56.3422 100 44.0778 99.4531 32.9479 96.9168C21.5792 94.3334 11.3688 89.6473 5.73222 81.2653C1.93012 75.5089 -0.0373887 69.1075 8.28702e-05 62.6155C0.0428211 55.4919 1.85647 48.4443 5.33813 41.8725C6.10242 40.411 6.90253 38.8553 7.65487 37.3467C14.3424 24.1467 18.8684 15.2743 36.5305 7.46742H36.638C44.4599 4.13912 52.1625 1.55568 60.1755 0.546813C68.5681 -0.598353 77.203 0.278898 84.9551 3.06426H85.0626C91.372 5.48381 97.2045 8.612 102.378 12.3515C107.577 16.1931 112.045 20.6072 115.646 25.4572C121.474 32.8616 125.711 40.976 128.185 49.472C130.494 58.0733 130.612 66.9516 128.531 75.5892C125.916 87.1959 115.729 93.2962 103.453 96.5114L103.405 96.4925Z" fill="#75251C"/>
<path d="M66.3853 97.5391C77.0614 97.5391 90.8185 97.1808 102.438 94.1542C113.747 91.2031 123.086 85.6685 125.45 75.1461C127.444 66.8201 127.338 58.2655 125.14 49.9717C122.736 41.7384 118.624 33.8757 112.971 26.7019C109.527 22.0799 105.264 17.8699 100.312 14.1995C95.3348 10.6268 89.7374 7.63297 83.6891 5.30831C76.489 2.70313 68.466 1.85919 60.6531 2.88515C53.1058 3.82801 45.6541 6.33603 38.1067 9.55119C21.388 16.9244 17.0412 25.495 10.6403 38.2048L8.228 42.7682C4.88761 49.0377 3.15057 55.7668 3.11685 62.5683C3.06321 68.683 4.89963 74.7157 8.46684 80.1433C13.6377 87.8465 23.1554 92.1837 33.7718 94.588C44.5196 97.0488 56.557 97.5391 66.3853 97.5768V97.5391Z" fill="#9C3F34"/>
<path d="M41.7968 8.06152C40.6026 8.53295 39.4084 9.00439 38.2142 9.55125C21.4955 16.9244 17.1486 25.4951 10.7478 38.2048L8.228 42.7683C4.88761 49.0377 3.15057 55.7669 3.11685 62.5684C3.06321 68.6831 4.89963 74.7158 8.46684 80.1434C9.71386 81.9806 11.2463 83.6878 13.0287 85.2254C9.84719 80.1711 7.86017 74.7009 7.16517 69.0836C5.80379 58.0804 10.5567 38.2237 21.4955 25.6271C32.4343 13.0304 41.7132 8.08038 41.7968 8.06152Z" fill="white"/>
<path d="M89.3974 96.4643C93.822 95.9993 98.1859 95.2262 102.438 94.1543C113.747 91.2031 123.086 85.6685 125.45 75.1462C127.444 66.8202 127.338 58.2655 125.14 49.9717C122.736 41.7385 118.624 33.8758 112.971 26.7019C109.527 22.0799 105.264 17.87 100.312 14.1995C95.3348 10.6269 89.7374 7.63301 83.6891 5.30835C77.7612 3.15664 71.2481 2.20399 64.7373 2.53633C71.371 3.25426 77.7176 5.13386 83.3128 8.03763C88.9081 10.9414 93.6105 14.7959 97.0761 19.3193C107.286 32.1988 124.841 74.9482 89.3974 96.4643Z" fill="#8A3329"/>
<path d="M113.699 70.6204C107.095 82.3873 91.5111 91.9857 63.4595 91.8819H63.3639C39.1696 91.1276 24.4332 80.313 18.4145 67.7258C15.6891 62.1203 14.6984 56.082 15.5245 50.1131C16.1949 44.5931 18.8974 39.3488 23.2987 35.0273C30.5594 28.201 42.5253 24.8633 58.8499 28.8139C61.5138 29.4893 64.2303 30.0279 66.9824 30.4262C69.3505 30.773 71.7793 30.773 74.1475 30.4262L75.079 30.2093C79.7671 28.9719 84.6339 28.2053 89.5646 27.9276C101.1 27.5693 110.093 34.1693 114.499 43.2962C116.539 47.5675 117.551 52.1016 117.485 56.666C117.433 61.4719 116.145 66.2195 113.699 70.6204Z" fill="#FFEADE"/>
<path d="M113.699 70.6205C111.702 74.2041 108.898 77.472 105.423 80.266C114.213 64.3033 110.2 45.0783 104.301 31.7368C109.004 34.7841 112.577 38.778 114.643 43.2963C116.633 47.5749 117.597 52.1088 117.485 56.6661C117.433 61.472 116.145 66.2195 113.699 70.6205Z" fill="#FCA187"/>
<path d="M66.3853 97.5391C77.0614 97.5391 90.8186 97.1808 102.438 94.1542C113.747 91.2031 123.086 85.6684 125.45 75.1461C127.444 66.8201 127.338 58.2655 125.14 49.9717C122.736 41.7384 118.624 33.8757 112.971 26.7018C109.527 22.0799 105.264 17.8699 100.312 14.1995C95.3349 10.6268 89.7375 7.63293 83.6892 5.30827C76.4891 2.70309 68.4661 1.85916 60.6532 2.88511C53.1059 3.82797 45.6541 6.33599 38.1068 9.55115C21.3881 16.9243 17.0412 25.495 10.6404 38.2047L8.22808 42.7682C4.8877 49.0376 3.15065 55.7668 3.11693 62.5683C3.0633 68.683 4.89971 74.7157 8.46692 80.1433C13.6378 87.8465 23.1555 92.1836 33.7719 94.5879C44.5196 97.0488 56.5571 97.5391 66.3853 97.5768V97.5391ZM63.4118 90.5148C90.7588 90.5996 105.889 81.3596 112.254 70.0358C114.586 65.7844 115.805 61.2046 115.837 56.5717C115.93 52.1778 114.978 47.8091 113.031 43.6922C108.934 35.2064 100.623 28.9741 90.0782 29.2947C85.2334 29.5533 80.45 30.2979 75.8434 31.5104L74.8283 31.7367H74.7566C72.061 32.1329 69.2959 32.1329 66.6003 31.7367C63.6998 31.3324 60.8387 30.7685 58.0379 30.049C42.5134 26.2775 31.2163 29.3984 24.4452 35.7816C20.2702 39.8994 17.7093 44.8904 17.0771 50.1414C16.2977 55.8934 17.2553 61.7094 19.8715 67.1129C25.735 79.3324 39.9817 89.7699 63.4118 90.5148ZM114.392 70.7806C107.693 82.7173 91.8694 92.4005 63.4118 92.4005H63.2924C38.7756 91.5896 23.884 80.6053 17.7219 67.8861C14.9588 62.1828 13.9638 56.0404 14.82 49.9717C15.494 44.3677 18.2296 39.0418 22.6898 34.6502C30.058 27.7107 42.191 24.3258 58.7544 28.3424C61.4515 29.0319 64.2044 29.5769 66.9944 29.9736C69.4094 30.3323 71.8879 30.3323 74.3029 29.9736L75.2463 29.7661C79.9975 28.518 84.9282 27.7452 89.9229 27.4655C101.626 27.0978 110.75 33.811 115.204 43.0605C117.279 47.3936 118.304 51.9962 118.225 56.6283C118.163 61.498 116.86 66.308 114.392 70.7712V70.7806ZM103.405 96.4925C91.3798 99.6228 77.3122 99.9622 66.3853 100C56.3422 100 44.0778 99.4531 32.9479 96.9168C21.5792 94.3334 11.3688 89.6473 5.73222 81.2653C1.93012 75.5089 -0.0373887 69.1075 8.28702e-05 62.6155C0.0428211 55.4919 1.85647 48.4443 5.33813 41.8725C6.10242 40.411 6.90253 38.8553 7.65487 37.3467C14.3424 24.1467 18.8684 15.2743 36.5305 7.46742H36.638C44.4599 4.13912 52.1625 1.55568 60.1755 0.546813C68.5681 -0.598353 77.203 0.278898 84.9551 3.06426H85.0626C91.372 5.48381 97.2045 8.612 102.378 12.3515C107.577 16.1931 112.045 20.6072 115.646 25.4572C121.474 32.8616 125.711 40.976 128.185 49.472C130.494 58.0733 130.612 66.9516 128.531 75.5892C125.916 87.1959 115.729 93.2962 103.453 96.5114L103.405 96.4925Z" fill="#75251C"/>
<path fill-rule="evenodd" clip-rule="evenodd" d="M92.8964 44.6824C89.8034 44.6824 87.2956 47.9164 87.2956 51.933C87.2956 55.9496 89.8034 59.1647 92.8964 59.1647C100.432 58.3916 100.42 45.4649 92.8964 44.6824Z" fill="#75251C"/>
<path fill-rule="evenodd" clip-rule="evenodd" d="M92.8964 62.9739C87.2598 62.9739 82.698 64.3787 82.698 66.1325C82.698 67.8862 87.2598 69.2911 92.8964 69.2911C106.51 68.8856 106.582 63.3699 92.8964 62.9739Z" fill="#EC6D58"/>
<path d="M98.3538 43.5791C98.3538 43.5791 97.4224 46.7094 94.4608 46.7471C94.114 46.7725 93.7918 46.8992 93.5572 47.1024C93.3226 47.3056 93.1926 47.5706 93.1926 47.8455C93.1926 48.1205 93.3226 48.3855 93.5572 48.5887C93.7918 48.7919 94.114 48.9186 94.4608 48.944C96.0652 48.8094 97.5691 48.2621 98.7408 47.3864C99.9125 46.5107 100.687 45.3551 100.945 44.0976C100.988 43.9614 100.997 43.8199 100.971 43.681C100.945 43.5421 100.884 43.4087 100.793 43.2883C100.701 43.1679 100.581 43.063 100.438 42.9794C100.295 42.8958 100.133 42.8353 99.96 42.8012C99.7875 42.7672 99.6082 42.7603 99.4323 42.7809C99.2565 42.8016 99.0875 42.8494 98.935 42.9216C98.7825 42.9939 98.6495 43.0891 98.5437 43.2019C98.4378 43.3147 98.3612 43.4429 98.318 43.5791H98.3538Z" fill="#75251C"/>
<path d="M95.7624 47.954C95.6055 47.8878 95.4332 47.8471 95.256 47.8345C95.0787 47.822 94.9001 47.8377 94.7307 47.8808C94.5613 47.9239 94.4046 47.9936 94.27 48.0855C94.1354 48.1775 94.0257 48.2899 93.9473 48.416C93.7791 48.6735 93.7437 48.9724 93.8483 49.25C93.9529 49.5277 94.1895 49.7627 94.5085 49.9057C101.268 51.9706 104.42 46.1343 100.706 46.6434C99.5122 46.832 98.7479 48.8215 95.7624 47.954Z" fill="#75251C"/>
<path fill-rule="evenodd" clip-rule="evenodd" d="M91.4634 46.6057C90.4005 46.6057 89.5407 47.7089 89.5407 49.076C89.5407 50.4432 90.4005 51.5652 91.4634 51.5652C92.5262 51.5652 93.3621 50.4526 93.3621 49.076C93.3621 47.6994 92.5023 46.6057 91.4634 46.6057Z" fill="white"/>
<path fill-rule="evenodd" clip-rule="evenodd" d="M40.7459 59.1645C43.8508 59.1645 46.3467 55.9305 46.3467 51.9328C44.6748 37.705 30.8222 47.2185 36.1483 56.2039C37.1992 57.9954 38.4053 58.8817 40.7459 59.1645Z" fill="#75251C"/>
<path fill-rule="evenodd" clip-rule="evenodd" d="M40.7459 62.9739C46.3825 62.9739 50.9443 64.3787 50.9443 66.1325C50.9443 67.8862 46.3825 69.2911 40.7459 69.2911C27.0485 68.8856 26.738 63.3793 40.7459 62.9739Z" fill="#EC6D58"/>
<path d="M39.2054 46.747C39.5655 46.7593 39.905 46.8828 40.1507 47.0909C40.3965 47.2991 40.5288 47.5751 40.519 47.8596C40.0413 51.4896 29.7713 45.2101 33.0672 42.8813C35.1451 41.4104 34.6197 45.955 39.2054 46.747Z" fill="#75251C"/>
<path d="M31.8372 46.8225C34.1301 45.8797 33.8793 49.0571 38.1187 47.8785C40.6862 47.1808 40.8534 51.782 34.7749 50.132C33.5807 49.8114 29.6399 48.2462 31.8372 46.8225Z" fill="#75251C"/>
<path fill-rule="evenodd" clip-rule="evenodd" d="M39.3129 46.6057C35.1212 47.0394 38.668 54.3843 40.8534 50.5469C41.1027 50.082 41.2248 49.5808 41.2116 49.076C41.2116 47.7089 40.3518 46.6057 39.3129 46.6057Z" fill="white"/>
<path fill-rule="evenodd" clip-rule="evenodd" d="M67.1495 59.9565C67.1495 59.9565 57.9901 63.2094 57.8348 66.17C57.6796 69.1306 63.9252 75.41 67.2331 76.5415C70.5411 77.6729 77.2524 68.5931 77.4077 66.9431C77.5629 65.2931 73.0966 60.0037 67.1495 59.9282V59.9565Z" fill="#F09833"/>
<path d="M67.3884 60.8807C65.9912 61.3993 59.1126 64.0582 59.029 66.2079C59.029 67.3959 60.2232 69.3099 61.8951 71.1485C63.8058 73.2511 66.1823 75.1651 67.7466 75.6931C67.7736 75.701 67.8033 75.701 67.8302 75.6931C68.7975 75.7497 70.3739 74.5051 71.9144 72.9399C73.4574 71.3417 74.7823 69.6193 75.8672 67.8013C76.0528 67.502 76.1893 67.1851 76.2732 66.8585C75.8839 65.5854 75.0283 64.4311 73.8132 63.5396C72.2243 62.0709 70.0044 61.1173 67.5795 60.8619L67.3884 60.8807ZM56.6406 66.1419C56.8317 62.5873 66.6241 59.1176 66.6599 59.1081C66.8156 59.0588 66.9818 59.0332 67.1495 59.0327H67.6989C70.7209 59.3253 73.4987 60.4908 75.497 62.3044C77.4316 63.9639 78.5899 65.9062 78.578 66.915V67.0376C78.4786 67.5636 78.2814 68.0751 77.9928 68.5556C76.8209 70.5132 75.392 72.3682 73.7296 74.0902C71.7711 76.0891 69.526 77.6731 67.6272 77.5505C67.3615 77.5316 67.1004 77.484 66.851 77.4091H66.7555C64.8328 76.7302 62.0742 74.5805 59.9486 72.2328C58.0259 70.1114 56.569 67.7731 56.6645 66.1513L56.6406 66.1419Z" fill="#75251C"/>
<path fill-rule="evenodd" clip-rule="evenodd" d="M115.598 84.4615H116.303L116.876 84.0655C117.032 83.9773 117.173 83.8726 117.294 83.7544C124.256 78.2575 125.343 66.6037 124.59 59.2871C124.435 57.6654 123.396 51.4519 122.13 50.8862C121.712 51.1785 121.975 50.5845 121.832 51.3765C121.832 51.4519 121.832 51.8574 121.832 51.9422L122.5 55.3271C124.089 62.7474 123.193 74.9481 118.058 81.4255C117.138 82.3924 116.3 83.4066 115.55 84.4615H115.598ZM37.3066 32.2364C38.9069 32.6041 40.2444 31.7555 40.0175 31.2935C39.7906 30.8315 37.1872 30.6241 37.3066 32.2364ZM121.808 46.9922C120.745 45.0499 119.145 46.879 121.091 48.7365C121.509 48.7789 121.933 48.702 122.286 48.5196C122.267 47.9881 122.1 47.4664 121.796 46.9922H121.808ZM23.5376 42.1647C24.7318 41.9856 24.1705 40.9484 25.9976 39.1758C26.9235 38.307 27.9423 37.5026 29.0428 36.7716C30.1397 36.0226 31.2835 35.3177 32.4701 34.6595C33.4374 34.1315 35.7542 33.0001 35.2287 32.2741C33.5569 32.0101 21.2447 38.8741 23.5376 42.1647Z" fill="#75251C"/>
</g>
<defs>
<clipPath id="clip0_330_304">
<rect width="130" height="100" fill="white"/>
</clipPath>
</defs>
</svg>
