<svg width="130" height="100" viewBox="0 0 130 100" fill="none" xmlns="http://www.w3.org/2000/svg">
<g clip-path="url(#clip0_330_131)">
<path fill-rule="evenodd" clip-rule="evenodd" d="M45.2569 11.1338C45.2569 11.1338 33.1199 8.25293 24.5108 13.2012C15.9018 18.1496 17.0229 29.2494 17.0229 29.2494C11.7052 29.0545 11.119 39.1036 11.0778 39.1375C0.401339 46.0347 -4.44319 58.0326 5.14301 67.2345C7.57042 69.5561 8.60927 69.8442 11.479 71.2846C10.183 77.792 12.1578 82.2997 20.0469 84.4519C20.0469 84.4519 27.5451 100.729 51.9323 96.4838C51.9323 96.4838 58.5974 100.5 66.0956 98.1275C66.0956 98.1275 85.8029 104.974 98.5776 92.476C98.5776 92.476 114.952 94.8315 115.518 82.0879C124.94 76.3346 133.168 65.4466 128.673 55.5161C128.365 54.8044 125.588 50.5763 125.588 50.517C126.513 43.4758 124.456 33.2995 116.166 29.6561L115.292 29.2748C115.292 29.2748 110.303 9.9052 86.708 12.2607C86.708 12.2607 90.9971 5.4229 85.3195 3.99942C80.2281 3.38935 75.219 5.4568 71.1561 7.83775C69.8293 8.62575 70.5802 7.63439 69.603 5.0755C66.363 -3.50779 58.3505 -0.186316 58.7208 7.48188C58.8031 8.96468 58.1757 7.48188 56.2317 6.1177C48.9803 1.11855 40.5873 1.38122 45.2569 11.1338Z" fill="#E67920"/>
<path fill-rule="evenodd" clip-rule="evenodd" d="M66.1571 98.1274C66.1571 98.1274 85.8644 104.974 98.6391 92.4758C98.6391 92.4758 115.014 94.8313 115.58 82.0877C125.001 76.3345 133.23 65.4465 128.735 55.516C128.426 54.8042 125.649 50.5761 125.649 50.5168C126.513 43.4756 124.456 33.2994 116.166 29.6559L115.292 29.2746C115.292 29.2746 110.303 9.90505 86.7078 12.2606C86.7078 12.2606 90.9969 5.42276 85.3193 3.99927C90.5752 8.23584 79.6725 14.3365 78.7365 16.5819C80.701 17.963 92.7866 14.0908 101.097 20.8185C105.212 24.2077 105.428 28.063 104.296 32.4944C103.679 34.4772 106.538 35.477 108.503 37.0615C112.504 40.2813 113.481 43.2553 113.522 47.6783C113.142 55.9227 105.191 51.3048 111.239 57.6173C115.857 62.43 114.911 72.2758 109.892 76.6649L108.863 77.5122C102.321 81.842 107.32 85.1381 100.141 87.68C92.9615 90.2219 97.8266 90.7473 87.7981 95.3906C77.7696 100.034 66.1469 98.1613 66.1469 98.1613L66.1571 98.1274Z" fill="#D15D1F"/>
<path fill-rule="evenodd" clip-rule="evenodd" d="M87.3455 31.9353C83.8895 32.1132 82.6758 16.0228 92.9306 19.7764C99.4311 22.1573 96.8186 28.097 90.8735 30.7152C89.7321 31.2119 88.5373 31.6204 87.3044 31.9353H87.3455Z" fill="#FFBD52"/>
<path fill-rule="evenodd" clip-rule="evenodd" d="M87.4278 30.5032C85.3707 28.7069 85.7101 21.9792 90.8632 23.7247C95.4094 25.2922 92.1592 30.1135 87.4278 30.5032Z" fill="#DEA03C"/>
<path fill-rule="evenodd" clip-rule="evenodd" d="M41.0808 32.452C43.7036 32.6893 44.5265 20.7083 40.5254 19.4458C34.354 17.48 26.1255 26.0294 38.7665 31.5624C39.518 31.8805 40.2906 32.1633 41.0808 32.4097V32.452Z" fill="#FFBD52"/>
<path fill-rule="evenodd" clip-rule="evenodd" d="M40.9882 30.9354C42.5208 29.4102 42.1299 24.0298 40.3608 23.5892C36.6065 22.6317 32.4306 27.5376 39.5174 30.5541L40.9882 30.9354Z" fill="#DEA03C"/>
<path fill-rule="evenodd" clip-rule="evenodd" d="M25.8375 73.6147C23.0295 64.9213 28.378 43.6622 34.2717 35.6381C44.5573 21.5981 65.4783 19.1494 82.5627 25.9448C95.934 31.5286 99.1946 42.5268 102.568 53.5927C104.625 60.3204 105.52 66.8616 103.206 73.6147C95.1934 92.1116 33.8397 92.1116 25.8375 73.6147Z" fill="#FFBD52"/>
<path fill-rule="evenodd" clip-rule="evenodd" d="M103.206 73.6145C99.4414 82.291 83.9718 86.9089 67.7411 87.4427C96.5409 83.4688 98.7111 62.6333 92.766 43.0011C88.5078 31.037 79.7959 24.9618 65.1389 22.4368C91.1101 23.9958 96.6849 34.5957 102.568 53.5925C104.625 60.3202 105.52 66.8614 103.206 73.6145Z" fill="#DEA03C"/>
<path fill-rule="evenodd" clip-rule="evenodd" d="M77.4096 51.6862C78.8599 61.7608 89.0324 54.8213 85.4221 47.0006C81.9353 41.0694 77.7387 46.1532 77.4713 50.8813L77.4096 51.6862Z" fill="#75251C"/>
<path fill-rule="evenodd" clip-rule="evenodd" d="M73.5319 62.1845C73.5319 63.5317 77.0599 64.6247 81.4313 64.6247C85.8027 64.6247 89.3204 63.5317 89.3204 62.1845C88.2918 58.8461 74.5502 58.8461 73.5319 62.1845Z" fill="#EC6D58"/>
<path fill-rule="evenodd" clip-rule="evenodd" d="M80.8759 46.0684C77.605 46.3903 80.1661 53.3129 82.0896 48.9746C82.5936 47.7969 82.4701 46.5259 80.8759 46.0684Z" fill="white"/>
<path fill-rule="evenodd" clip-rule="evenodd" d="M48.3424 56.7191C56.4372 53.9314 48.4761 40.0185 44.115 46.8394C42.0579 49.9914 43.0865 57.2699 48.3424 56.7191Z" fill="#75251C"/>
<path fill-rule="evenodd" clip-rule="evenodd" d="M47.6019 59.7356C51.963 59.7356 55.5115 60.8371 55.5115 62.1843C55.5115 63.5316 51.963 64.6246 47.6019 64.6246C43.2408 64.6246 39.7025 63.5485 39.7025 62.1843C39.7025 60.8202 43.1996 59.7356 47.6019 59.7356Z" fill="#EC6D58"/>
<path fill-rule="evenodd" clip-rule="evenodd" d="M44.6602 48.9918C45.7916 53.4825 49.5664 48.0767 46.4293 46.7379C44.9379 46.1024 44.5573 48.0936 44.6602 48.9918Z" fill="white"/>
<path d="M33.7883 43.7384C31.474 42.6623 38.0568 34.1045 39.2911 32.7742C44.0533 27.8174 45.6065 29.1731 43.2716 31.1812C39.2538 34.4349 36.4061 38.5402 35.0431 43.0436C34.8683 43.569 34.5803 43.9672 33.8191 43.7469L33.7883 43.7384ZM50.1424 27.3598C43.7242 30.9948 46.4293 25.7584 50.019 26.36C50.739 26.4702 50.4613 27.0379 50.1424 27.3598Z" fill="white"/>
<path fill-rule="evenodd" clip-rule="evenodd" d="M71.4234 60.388C72.2359 61.3201 71.5982 65.6499 64.5114 66.6158C57.4246 65.6499 56.7972 61.3201 57.6098 60.388C58.9263 58.8459 70.1171 58.8459 71.4234 60.388Z" fill="#75251C"/>
<path d="M74.3651 69.9035C73.9223 70.0381 73.4639 70.1346 72.9971 70.1916C71.5909 70.338 70.1633 70.1498 68.8828 69.6493C68.8555 69.6462 68.8278 69.6462 68.8005 69.6493C67.6203 69.2102 66.6455 68.4667 66.0234 67.531C65.7034 67.0887 65.4904 66.5996 65.396 66.0906C65.401 66.0144 65.401 65.938 65.396 65.8618C65.396 65.4212 65.6326 63.8622 65.396 63.7351C65.1594 63.608 64.7686 64.1757 64.5937 64.7264C64.4291 64.1757 64.172 63.6588 63.8017 63.7351C63.4314 63.8113 63.8017 65.4297 63.7503 65.8618C63.7604 65.9379 63.7604 66.0146 63.7503 66.0906C63.6766 66.5692 63.5026 67.0337 63.236 67.4632C62.6005 68.3964 61.6205 69.1384 60.4383 69.5815H60.356C59.0752 70.0811 57.6479 70.2692 56.2418 70.1238C55.7719 70.0659 55.3101 69.9694 54.8635 69.8357L54.3184 69.6324C53.9172 69.446 52.6521 68.6156 52.3847 68.7342C51.8601 69.107 53.5572 70.2424 53.7938 70.4288C53.9949 70.5363 54.2045 70.6325 54.4212 70.7169C54.874 70.9157 55.354 71.0693 55.8509 71.1745C57.4909 71.3973 59.1743 71.2114 60.6852 70.6407L60.7777 70.5983C60.7856 70.602 60.7944 70.604 60.8035 70.604C60.8125 70.604 60.8214 70.602 60.8292 70.5983H60.9012C62.3227 70.0327 63.4792 69.0979 64.1926 67.9377C64.3014 67.7329 64.3975 67.5236 64.4806 67.3107C64.5629 67.5141 64.6554 67.709 64.7789 67.9377C65.4905 69.1019 66.652 70.0379 68.0805 70.5983L68.1937 70.6407C69.7132 71.218 71.4088 71.4041 73.0588 71.1745C73.6178 71.0897 74.1608 70.9444 74.6736 70.7423C74.8992 70.6617 75.1159 70.5653 75.3216 70.4543C75.5479 70.3102 77.2553 69.1748 76.7205 68.7596C76.4633 68.641 75.1982 69.4714 74.7868 69.6578L74.2313 69.8611L74.3651 69.9035Z" fill="#75251C"/>
<path fill-rule="evenodd" clip-rule="evenodd" d="M61.4875 70.3271C61.4875 71.3269 61.8989 73.7164 64.5114 73.7164C67.124 73.7164 67.5045 71.2846 67.5971 70.3271C66.4024 69.7526 65.4318 68.9089 64.7994 67.8953C64.676 67.6665 64.5834 67.4717 64.5011 67.2683C64.4181 67.4812 64.322 67.6905 64.2131 67.8953C63.6031 68.9026 62.6577 69.746 61.4875 70.3271Z" fill="#EC6D58"/>
</g>
<defs>
<clipPath id="clip0_330_131">
<rect width="130" height="100" fill="white"/>
</clipPath>
</defs>
</svg>
