<svg width="130" height="100" viewBox="0 0 130 100" fill="none" xmlns="http://www.w3.org/2000/svg">
<g clip-path="url(#clip0_330_115)">
<path fill-rule="evenodd" clip-rule="evenodd" d="M34.8372 44.0395C42.3092 39.4724 47.8803 31.8853 48.6813 23.8001C48.9204 21.4264 42.4048 10.851 40.3844 8.4562C23.181 -11.8787 3.86151 14.1254 0.478206 28.6109C-2.28343 40.2672 7.85452 39.7903 7.90234 39.8327C15.8644 47.0066 24.8906 49.7723 34.8372 44.0713V44.0395Z" fill="#82807F"/>
<path fill-rule="evenodd" clip-rule="evenodd" d="M34.7416 44.1349C38.2915 42.0508 41.3159 39.3376 43.6242 36.1662C35.2557 28.2824 39.2248 35.1066 38.6987 26.6293C37.8977 13.2776 19.9531 14.973 14.6809 25.8663C9.76734 36.0285 23.3723 41.3268 31.968 43.5203C32.9364 43.7428 33.8569 43.9547 34.7416 44.1349Z" fill="#FCA187"/>
<path fill-rule="evenodd" clip-rule="evenodd" d="M105.576 5.18374e-06C127.645 3.17898 138.261 40.8922 122.42 39.5253C122.169 39.5253 104.715 57.3275 87.8104 38.2113C84.9531 35.0323 79.9678 26.6504 81.4742 22.5389C84.977 12.9172 92.2099 -0.317892 105.576 5.18374e-06Z" fill="#82807F"/>
<path fill-rule="evenodd" clip-rule="evenodd" d="M86.9496 35.4032C94.6487 28.473 90.7513 34.3435 91.4806 26.0252C92.8435 10.3528 115.391 11.5714 117.208 25.8874C118.571 36.8125 105.109 41.9836 95.2943 44.0818C94.0988 44.3467 86.1725 37.5013 86.3997 36.1767L86.9496 35.4032Z" fill="#FCA187"/>
<path fill-rule="evenodd" clip-rule="evenodd" d="M31.5735 33.6125C46.9358 17.1771 72.5437 14.4644 91.3491 27.6466C100.806 34.2376 104.655 45.3853 107.489 55.4202C110.047 64.724 115.02 80.852 107.154 88.8525C91.6838 103.37 38.2086 103.614 22.7506 89.7744C14.908 82.77 17.2034 73.0318 18.8891 64.1412C20.766 54.0957 24.5558 41.8884 31.5376 33.6125H31.5735Z" fill="#82807F"/>
<path fill-rule="evenodd" clip-rule="evenodd" d="M95.1867 41.8354C90.5003 31.0163 79.645 21.7019 66.6379 19.4448C82.1795 20.4409 96.1192 27.1273 102.013 40.4155C106.795 51.2558 116.455 78.0334 107.991 88.0153C100.519 96.7787 79.657 99.4597 68.0725 100C98.307 95.1998 104.476 77.3552 98.833 52.8559C97.9619 49.1055 96.7628 45.4208 95.2465 41.8354H95.1867Z" fill="#797372"/>
<path fill-rule="evenodd" clip-rule="evenodd" d="M86.316 47.6846C83.5304 47.6846 81.2709 50.8635 81.2709 54.6889C81.2709 58.5143 83.5304 61.7145 86.316 61.7145C90.2492 61.28 91.098 57.656 91.3491 54.6889C91.3491 50.8318 89.1015 47.6846 86.316 47.6846Z" fill="#414345"/>
<path fill-rule="evenodd" clip-rule="evenodd" d="M77.242 68.8778C81.3785 74.1761 102.503 70.9017 93.9792 66.7584C89.7471 64.7027 76.3095 64.7345 77.242 68.8778Z" fill="#FCA187"/>
<path fill-rule="evenodd" clip-rule="evenodd" d="M85.0248 49.5286C84.0684 49.5286 83.2913 50.5882 83.2913 51.9128C83.2913 53.2374 84.0684 54.3076 85.0248 54.3076C85.9812 54.3076 86.7344 53.248 86.7344 51.9128C86.7344 50.5776 85.9693 49.5286 85.0248 49.5286Z" fill="white"/>
<path fill-rule="evenodd" clip-rule="evenodd" d="M40.7311 47.6846C37.9456 47.6846 35.6741 50.8635 35.6741 54.6889C35.6741 58.5143 37.9456 61.7145 40.7311 61.7145C43.5166 61.7145 45.7642 58.5355 45.7642 54.6889C45.7642 50.8424 43.5047 47.6846 40.7311 47.6846Z" fill="#414345"/>
<path fill-rule="evenodd" clip-rule="evenodd" d="M49.7811 68.8777C45.286 74.5893 23.1929 69.8314 34.1199 66.2286C37.6228 65.0736 50.8571 64.6497 49.7811 68.8777Z" fill="#FCA187"/>
<path fill-rule="evenodd" clip-rule="evenodd" d="M39.4519 49.5286C38.4955 49.5286 37.7423 50.5882 37.7423 51.9128C37.7423 53.2374 38.4955 54.3076 39.4519 54.3076C40.4083 54.3076 41.1734 53.248 41.1734 51.9128C41.1734 50.5776 40.3964 49.5286 39.4519 49.5286Z" fill="white"/>
<path d="M30.4617 45.1416C30.3704 45.3613 30.1891 45.5425 29.954 45.6492C29.7189 45.756 29.4471 45.7804 29.1926 45.7177C28.938 45.6549 28.7195 45.5096 28.5803 45.3106C28.4411 45.1116 28.3914 44.8735 28.4412 44.6435C30.6673 38.457 34.8098 32.9494 40.3964 28.7486C41.293 28.0705 43.7199 28.5049 40.9941 30.6878C36.0843 34.5812 32.4464 39.5735 30.4617 45.1416ZM49.5181 25.008C49.6208 25.2386 49.6168 25.4958 49.5072 25.7238C49.3976 25.9519 49.1911 26.1325 48.9323 26.2266C48.2628 26.4704 43.6123 28.9288 44.3894 26.481C44.5089 26.0889 48.5976 23.4503 49.5181 25.008Z" fill="white"/>
<path d="M74.2652 89.5941C73.8169 89.7455 73.3522 89.8556 72.8784 89.9226C71.4512 90.0749 70.0045 89.8655 68.7061 89.3186H68.6344H68.5626C67.3496 88.8068 66.3618 87.9536 65.7532 86.892C65.4819 86.4283 65.3039 85.9263 65.2271 85.4084C65.2213 85.3202 65.2213 85.2318 65.2271 85.1435C65.2271 84.6667 65.4543 82.9606 65.2271 82.8441C65 82.7275 64.5935 83.2997 64.4262 83.9037C64.2468 83.2997 63.9838 82.7381 63.6132 82.8441C63.2426 82.95 63.6132 84.6667 63.5534 85.1435C63.5651 85.2315 63.5651 85.3204 63.5534 85.4084C63.4991 85.9305 63.3197 86.4362 63.0274 86.892C59.0942 92.6247 51.8374 88.3861 51.7896 88.3967C50.6658 88.3967 54.1806 92.7201 60.5886 90.3888H60.6842H60.7559C62.197 89.7678 63.3716 88.7489 64.1034 87.4854C64.211 87.2417 64.3186 87.0191 64.4022 86.7966C64.4797 87.0333 64.5796 87.2637 64.7011 87.4854C65.4159 88.7562 66.5902 89.7783 68.0366 90.3888H68.1083H68.2159C69.7546 91.0171 71.4721 91.2166 73.1414 90.9611C73.7124 90.8772 74.2676 90.7239 74.7912 90.5054C76.2737 89.8484 78.9397 87.0933 75.0423 89.2762C74.8151 89.3963 74.5748 89.4957 74.325 89.5729L74.2652 89.5941Z" fill="#414345"/>
<path fill-rule="evenodd" clip-rule="evenodd" d="M61.9275 51.0438C60.4017 51.5139 59.0183 52.2888 57.8843 53.3086C56.7504 54.3284 55.8963 55.5657 55.3881 56.9249C53.7741 62.0748 50.4506 76.0941 54.1926 80.4599C58.353 85.2601 64.211 85.7052 70.2005 83.3528C78.2582 79.8453 73.1893 63.4736 71.2525 57.4017C69.3158 51.3299 64.4979 50.3656 61.8797 51.0438H61.9275Z" fill="#414345"/>
</g>
<defs>
<clipPath id="clip0_330_115">
<rect width="130" height="100" fill="white"/>
</clipPath>
</defs>
</svg>
