<svg width="130" height="100" viewBox="0 0 130 100" fill="none" xmlns="http://www.w3.org/2000/svg">
<g clip-path="url(#clip0_330_251)">
<path d="M13.5814 33.4136C13.7708 33.1239 13.9603 32.8245 14.1616 32.5348C11.0067 27.0715 9.12744 21.1766 8.6201 15.1519C8.33609 11.944 8.78989 8.72112 9.95811 5.64925C11.083 2.98387 12.8117 1.16832 14.8128 0.405408C15.4386 0.169157 16.1136 0.0315395 16.8021 -0.000192672C22.6277 -0.231965 35.2263 9.78252 38.6839 12.5541C47.1414 9.07808 56.5209 7.35971 65.9887 7.55171C75.186 7.68859 84.2334 9.47564 92.4884 12.7859C95.5552 10.2557 108.627 -0.231965 114.595 -0.000192672C115.263 0.0352898 115.917 0.169453 116.525 0.395751C118.526 1.1297 120.279 2.94524 121.415 5.62028C122.6 8.68947 123.062 11.9137 122.777 15.1229C122.303 20.9457 120.534 26.6495 117.555 31.9554C117.757 32.2451 117.97 32.5541 118.147 32.8438C123.112 41.1449 126.635 49.9694 128.615 59.0631C130.474 67.6483 130.521 75.4802 128.177 80.2123V80.2702C123.061 89.5218 109.965 94.9491 94.5842 97.6531C74.5378 101.217 50.4418 100.232 35.3803 97.1606C27.9916 95.6637 19.4544 93.4329 12.646 90.0529C5.51781 86.6053 0.307867 81.854 6.28795e-06 75.374C-0.189446 71.2408 1.44458 64.1427 3.7417 56.8612C6.45324 48.2857 10.112 39.3721 12.7881 34.7656L13.5459 33.4619L13.5814 33.4136Z" fill="#75251C"/>
<path d="M109.954 23.3992C110.7 19.7198 111.659 14.109 110.546 14.1573C108.556 14.2732 104.803 16.5619 102.683 17.9526C105.296 19.593 107.728 21.4154 109.954 23.3992Z" fill="#CF6155"/>
<path d="M100.552 16.6876C102.731 15.2487 107.562 12.2453 110.38 12.1004C114.394 11.8783 112.843 21.6417 112.097 25.408C113.264 26.5697 114.358 27.7783 115.377 29.0294C117.645 24.5623 119.001 19.8223 119.391 14.9976C119.648 12.1357 119.247 9.2599 118.207 6.51858C117.401 4.58715 116.3 3.34137 115.128 2.91646C114.913 2.83195 114.679 2.78585 114.441 2.78126C110.119 2.59777 99.4626 11.0575 95.6262 14.1381C97.3199 14.9195 98.9639 15.7704 100.552 16.6876Z" fill="#F09833"/>
<path d="M19.3952 25.8813C18.6966 22.5496 16.8139 11.8591 21.0174 12.1005C23.8 12.2454 28.5481 15.1715 30.7624 16.6297C32.3081 15.6793 33.917 14.7992 35.5816 13.9933C31.6623 10.7968 21.1713 2.59786 16.956 2.78135C16.7125 2.78458 16.4733 2.83419 16.2574 2.92621C15.0733 3.37044 13.9958 4.62587 13.1788 6.54765C12.1416 9.27948 11.74 12.1454 11.9947 14.9977C12.4038 20.0178 13.8531 24.9452 16.2811 29.5703C17.2639 28.2763 18.294 27.0595 19.3834 25.8813H19.3952Z" fill="#F09833"/>
<path d="M28.7021 17.9335C26.5707 16.5525 22.7817 14.2734 20.8398 14.1575C19.6557 14.1092 20.7569 20.087 21.5029 23.7278C23.6979 21.6342 26.1063 19.6959 28.7021 17.9335Z" fill="#CF6155"/>
<path d="M38.5299 15.7991C38.7194 19.662 39.714 31.1057 44.9003 32.2839C49.3287 33.2496 47.5408 18.0492 46.7948 12.7764C44.3187 13.4751 41.912 14.3274 39.5956 15.3259L38.5299 15.7991ZM83.5249 12.7571C82.7789 18.0203 80.9673 33.2979 85.4076 32.2839C90.7004 31.0768 91.6358 19.2274 91.7898 15.577C89.1194 14.4655 86.3485 13.5228 83.5012 12.7571H83.5249ZM60.2104 10.4587C60.388 15.0942 61.1932 29.8696 63.881 34.8431C64.2844 35.7726 65.0337 36.5762 66.0242 37.1415C66.2111 37.2355 66.4263 37.2853 66.6459 37.2853C66.8654 37.2853 67.0807 37.2355 67.2675 37.1415C68.1215 36.6234 68.775 35.9161 69.1502 35.1038C71.175 31.5983 72.7024 24.1912 72.5485 10.7098C70.3572 10.4735 68.1513 10.3381 65.9413 10.3042C64.035 10.3042 62.1049 10.3042 60.2104 10.4587Z" fill="#CF6155"/>
<path d="M65.9413 10.3042C68.1771 10.6088 70.3847 11.0379 72.5485 11.5886V10.6905C70.3572 10.4542 68.1513 10.3188 65.9413 10.2849V10.3042ZM83.1815 15.2004C86.126 16.4651 88.9034 17.9731 91.4701 19.7007C91.6714 17.9913 91.7543 16.5234 91.8135 15.577C89.1431 14.4655 86.3721 13.5228 83.5249 12.7571C83.4183 13.4235 83.3236 14.2637 83.2052 15.2004H83.1815Z" fill="#AA493D"/>
<path d="M94.229 16.6682C93.9093 21.4967 92.441 32.8246 86.047 34.3022C78.2676 36.0694 80.3042 17.4601 81.0383 12.0907C79.0728 11.6464 77.0835 11.2698 75.1179 10.9801C75.2364 24.5967 73.6023 32.2259 71.4591 35.9439C70.8661 37.1498 69.838 38.1803 68.5108 38.899C67.9569 39.1716 67.3223 39.3156 66.6755 39.3156C66.0286 39.3156 65.394 39.1716 64.8401 38.899C63.365 38.1539 62.22 37.0442 61.5721 35.7314C58.754 30.5069 57.9014 15.6252 57.7001 10.729C54.8532 11.0337 52.0388 11.5147 49.2813 12.1679C50.0155 17.4697 52.0521 36.1177 44.249 34.3794C37.9616 32.8343 36.4341 21.97 36.067 16.9869C28.441 21.0167 22.1529 26.52 17.7612 33.0081C17.6909 33.2215 17.5566 33.4173 17.3704 33.5779L16.5771 34.6884L15.8311 35.9728C13.2262 40.4248 9.67392 49.1259 7.02158 57.5373C4.80735 64.5967 3.23253 71.463 3.3983 75.3258C3.63512 80.6759 8.19382 84.7416 14.3866 87.8029C20.8279 91.0187 29.0454 93.1626 36.1499 94.5629C50.8325 97.547 74.3009 98.503 93.8501 95.0168C108.272 92.448 120.468 87.4842 125.074 79.1694C127.158 74.9106 127.04 67.6677 125.299 59.575C123.373 50.7427 119.95 42.172 115.128 34.109C114.832 33.6551 114.536 33.2012 114.204 32.757C112.927 30.9613 111.491 29.2442 109.906 27.6194C109.665 27.4948 109.481 27.3078 109.385 27.0882C105.148 22.8951 100.013 19.3644 94.229 16.6682Z" fill="#F09833"/>
<path d="M31.5438 19.6233C25.9356 23.3194 21.2557 27.8643 17.7612 33.0081C17.6909 33.2215 17.5566 33.4173 17.3704 33.5779L16.5771 34.6885L15.8311 35.9729C13.2262 40.4248 9.67392 49.1259 7.02158 57.5373C4.80735 64.5967 3.23253 71.463 3.3983 75.3258C3.58775 79.4688 6.34666 82.8295 10.5028 85.5624C9.53477 82.3566 8.92836 79.0853 8.69113 75.7894C7.77939 64.9058 14.3866 49.6185 18.5782 38.4837C21.3262 31.5486 25.7556 25.1347 31.6031 19.6233H31.5438Z" fill="white"/>
<path d="M94.229 16.6684C94.1461 17.9045 93.9922 19.5655 93.6961 21.3617C97.0924 23.9744 99.8524 27.0871 101.831 30.536C110.179 45.2536 122.351 78.2714 103.974 92.7089C113.778 89.8118 121.593 85.466 125.074 79.1889C127.158 74.9301 127.04 67.6872 125.299 59.5945C123.373 50.7622 119.95 42.1915 115.128 34.1285C114.832 33.6746 114.536 33.2207 114.204 32.7765C112.927 30.9808 111.491 29.2637 109.906 27.6389C109.665 27.5143 109.481 27.3273 109.385 27.1078C105.151 22.9076 100.015 19.3703 94.229 16.6684ZM80.766 14.2154C80.8607 13.3946 80.9436 12.6896 81.0383 12.1391C79.0728 11.6949 77.0835 11.3183 75.118 11.0286V12.3033C76.8585 12.8151 78.7886 13.4429 80.7778 14.2347L80.766 14.2154Z" fill="#E67920"/>
<path d="M13.5814 33.4136C13.7708 33.1239 13.9603 32.8245 14.1616 32.5348C11.0067 27.0715 9.12744 21.1766 8.6201 15.1519C8.33609 11.944 8.78989 8.72112 9.95811 5.64925C11.083 2.98387 12.8117 1.16832 14.8128 0.405408C15.4386 0.169157 16.1136 0.0315395 16.8021 -0.000192672C22.6277 -0.231965 35.2263 9.78252 38.6839 12.5541C47.1414 9.07808 56.5209 7.35971 65.9887 7.55171C75.186 7.68859 84.2334 9.47564 92.4884 12.7859C95.5552 10.2557 108.627 -0.231965 114.595 -0.000192672C115.263 0.0352898 115.917 0.169453 116.525 0.395751C118.526 1.1297 120.279 2.94524 121.415 5.62028C122.6 8.68947 123.062 11.9137 122.777 15.1229C122.303 20.9457 120.534 26.6495 117.555 31.9554C117.757 32.2451 117.97 32.5541 118.147 32.8438C123.112 41.1449 126.635 49.9694 128.615 59.0631C130.474 67.6483 130.521 75.4802 128.177 80.2123V80.2702C123.061 89.5218 109.965 94.9491 94.5842 97.6531C74.5378 101.217 50.4418 100.232 35.3803 97.1606C27.9916 95.6637 19.4544 93.4329 12.646 90.0529C5.51781 86.6053 0.307867 81.854 6.28795e-06 75.374C-0.189446 71.2408 1.44458 64.1427 3.7417 56.8612C6.45324 48.2857 10.112 39.3721 12.7881 34.7656L13.5459 33.4619L13.5814 33.4136ZM94.229 16.6681C93.9093 21.4967 92.441 32.8245 86.047 34.3021C78.2676 36.0693 80.3042 17.46 81.0384 12.0906C79.0728 11.6464 77.0835 11.2697 75.118 10.98C75.2364 24.5966 73.6023 32.2258 71.4592 35.9438C70.8661 37.1497 69.838 38.1802 68.5108 38.8989C67.957 39.1715 67.3224 39.3155 66.6755 39.3155C66.0286 39.3155 65.394 39.1715 64.8402 38.8989C63.365 38.1538 62.22 37.0441 61.5721 35.7313C58.754 30.5068 57.9015 15.6251 57.7002 10.7289C54.8532 11.0336 52.0388 11.5146 49.2814 12.1678C50.0155 17.4696 52.0521 36.1176 44.249 34.3793C37.9616 32.8342 36.4341 21.9699 36.067 16.9868C28.441 21.0167 22.1529 26.5199 17.7612 33.008C17.6909 33.2214 17.5566 33.4172 17.3704 33.5778L16.5771 34.6884L15.8311 35.9728C13.2262 40.4247 9.67393 49.1258 7.02159 57.5372C4.80737 64.5966 3.23254 71.4629 3.39831 75.3257C3.63513 80.6758 8.19383 84.7415 14.3866 87.8028C20.828 91.0186 29.0455 93.1625 36.1499 94.5628C50.8325 97.5469 74.301 98.5029 93.8501 95.0167C108.272 92.4479 120.468 87.4841 125.074 79.1693C127.158 74.9105 127.04 67.6676 125.299 59.5749C123.373 50.7427 119.95 42.1719 115.128 34.1089C114.832 33.655 114.536 33.2012 114.204 32.7569C112.927 30.9612 111.491 29.2441 109.906 27.6193C109.665 27.4947 109.481 27.3077 109.385 27.0882C105.148 22.895 100.013 19.3643 94.229 16.6681ZM83.5012 12.7569C82.7553 18.0201 80.9436 33.2977 85.3839 32.2837C90.6768 31.0766 91.6122 19.2272 91.7661 15.5768C89.0958 14.4653 86.3248 13.5226 83.4776 12.7569H83.5012ZM60.2104 10.4585C60.388 15.094 61.1932 29.8694 63.8811 34.8429C64.2844 35.7724 65.0337 36.576 66.0242 37.1413C66.2111 37.2353 66.4263 37.2851 66.6459 37.2851C66.8654 37.2851 67.0807 37.2353 67.2675 37.1413C68.1215 36.6232 68.775 35.9159 69.1502 35.1036C71.175 31.5981 72.7024 24.191 72.5485 10.7096C70.3572 10.4733 68.1513 10.3379 65.9413 10.304C64.035 10.304 62.1049 10.304 60.2104 10.4585ZM38.5299 15.7989C38.7194 19.6618 39.714 31.1056 44.9003 32.2837C49.3287 33.2494 47.5408 18.0491 46.7948 12.7762C44.3187 13.4749 41.912 14.3272 39.5956 15.3257L38.5299 15.7989ZM28.7021 17.9332C26.5707 16.5522 22.7817 14.2731 20.8398 14.1572C19.6557 14.1089 20.7569 20.0867 21.5029 23.7275C23.6979 21.6339 26.1063 19.6956 28.7021 17.9332ZM19.3952 25.881C18.6966 22.5493 16.8139 11.8588 21.0174 12.1002C23.8 12.2451 28.5481 15.1712 30.7624 16.6295C32.3081 15.6791 33.917 14.7989 35.5816 13.993C31.6623 10.7965 21.1713 2.59759 16.956 2.78107C16.7125 2.78431 16.4733 2.83391 16.2574 2.92593C15.0733 3.37016 13.9958 4.62559 13.1788 6.54737C12.1416 9.27921 11.74 12.1451 11.9947 14.9974C12.4038 20.0176 13.8531 24.9449 16.2811 29.5701C17.2639 28.276 18.294 27.0592 19.3834 25.881H19.3952ZM100.552 16.6874C102.731 15.2485 107.562 12.2451 110.38 12.1002C114.394 11.8781 112.843 21.6415 112.097 25.4078C113.264 26.5695 114.358 27.7781 115.377 29.0293C117.645 24.5621 119.001 19.8221 119.391 14.9974C119.648 12.1356 119.247 9.25971 118.207 6.5184C117.401 4.58696 116.3 3.34119 115.128 2.91627C114.914 2.83177 114.679 2.78567 114.441 2.78107C110.119 2.59759 99.4626 11.0573 95.6262 14.1379C97.3199 14.9193 98.9639 15.7703 100.552 16.6874ZM109.954 23.4474C110.7 19.768 111.659 14.1572 110.546 14.2055C108.556 14.3214 104.803 16.6101 102.683 18.0008C105.296 19.6412 107.728 21.4636 109.954 23.4474Z" fill="#75251C"/>
<path fill-rule="evenodd" clip-rule="evenodd" d="M92.5239 47.8223C88.9717 47.8223 85.9878 51.5596 85.9878 56.1854C85.9878 60.8112 88.9125 64.5388 92.5239 64.5388C101.322 63.6407 101.322 48.73 92.5239 47.8223Z" fill="#75251C"/>
<path fill-rule="evenodd" clip-rule="evenodd" d="M92.5239 68.9233C85.9523 68.9233 80.6121 70.5651 80.6121 72.5737C80.6121 74.5824 85.9523 76.2145 92.5239 76.2145C108.414 75.7606 108.497 69.3965 92.5239 68.9233Z" fill="#EC6D58"/>
<path d="M98.9061 46.5571C98.9061 46.5571 97.8167 50.1592 94.3474 50.2075C94.1437 50.2075 93.942 50.2403 93.7538 50.3038C93.5656 50.3674 93.3946 50.4606 93.2506 50.5781C93.1065 50.6955 92.9923 50.835 92.9143 50.9885C92.8364 51.142 92.7962 51.3065 92.7962 51.4726C92.7962 51.6388 92.8364 51.8033 92.9143 51.9567C92.9923 52.1102 93.1065 52.2497 93.2506 52.3672C93.3946 52.4846 93.5656 52.5778 93.7538 52.6414C93.942 52.705 94.1437 52.7377 94.3474 52.7377C96.1853 52.6115 97.9217 51.9972 99.2905 50.9889C100.659 49.9807 101.585 48.6342 101.925 47.1559C101.991 46.8353 101.905 46.5063 101.685 46.2352C101.466 45.9641 101.128 45.7712 100.74 45.6952C100.353 45.6193 99.9443 45.666 99.5973 45.8259C99.2503 45.9859 98.9906 46.2472 98.8706 46.5571H98.9061Z" fill="#75251C"/>
<path d="M95.9104 51.608C95.7288 51.512 95.5248 51.4478 95.3113 51.4194C95.0977 51.391 94.8793 51.3991 94.6698 51.4432C94.4602 51.4872 94.2642 51.5663 94.0941 51.6753C93.924 51.7844 93.7835 51.921 93.6815 52.0766C93.5795 52.2323 93.5183 52.4035 93.5016 52.5794C93.485 52.7554 93.5133 52.9322 93.5848 53.0988C93.6563 53.2653 93.7694 53.418 93.917 53.547C94.0646 53.676 94.2434 53.7787 94.4421 53.8485C102.34 56.2338 106.022 49.4544 101.677 50.0918C100.232 50.3139 99.3916 52.6027 95.9104 51.608Z" fill="#75251C"/>
<path fill-rule="evenodd" clip-rule="evenodd" d="M90.8425 50.0337C89.6584 50.0337 88.6046 51.3278 88.6046 52.9308C88.6046 54.5339 89.5992 55.828 90.8425 55.828C92.0858 55.828 93.0686 54.5339 93.0686 52.9308C93.0686 51.3278 92.074 50.0337 90.8425 50.0337Z" fill="white"/>
<path fill-rule="evenodd" clip-rule="evenodd" d="M37.4761 47.8223C41.0875 47.8223 44.024 51.5596 44.024 56.1854C44.024 60.8112 41.0875 64.5388 37.4761 64.5388C28.6784 63.6407 28.7021 48.73 37.4761 47.8223Z" fill="#75251C"/>
<path fill-rule="evenodd" clip-rule="evenodd" d="M37.4761 68.9233C44.0477 68.9233 49.3879 70.5651 49.3879 72.5737C49.3879 74.5824 44.0477 76.2145 37.4761 76.2145C21.5976 75.7606 21.5029 69.3965 37.4761 68.9233Z" fill="#EC6D58"/>
<path d="M31.0939 46.5573C31.0939 46.5573 32.2069 50.1594 35.6645 50.2077C35.8682 50.2077 36.0699 50.2404 36.258 50.304C36.4462 50.3675 36.6172 50.4607 36.7613 50.5782C36.9053 50.6957 37.0196 50.8351 37.0975 50.9886C37.1755 51.1421 37.2156 51.3066 37.2156 51.4728C37.2156 51.6389 37.1755 51.8034 37.0975 51.9569C37.0196 52.1104 36.9053 52.2498 36.7613 52.3673C36.6172 52.4848 36.4462 52.578 36.258 52.6415C36.0699 52.7051 35.8682 52.7378 35.6645 52.7378C33.828 52.6112 32.0933 51.9965 30.7265 50.9882C29.3597 49.9798 28.4364 48.6336 28.0982 47.156C28.0008 46.8269 28.0678 46.4797 28.2843 46.1908C28.5008 45.902 28.8491 45.6951 29.2527 45.6157C29.6562 45.5363 30.0819 45.5909 30.4361 45.7675C30.7903 45.944 31.0439 46.2281 31.1413 46.5573H31.0939Z" fill="#75251C"/>
<path d="M34.137 51.608C34.3185 51.512 34.5225 51.4478 34.7361 51.4194C34.9496 51.391 35.1681 51.3991 35.3776 51.4432C35.5871 51.4872 35.7831 51.5663 35.9532 51.6753C36.1234 51.7844 36.2639 51.921 36.3659 52.0766C36.4678 52.2323 36.5291 52.4035 36.5458 52.5794C36.5624 52.7554 36.5341 52.9322 36.4626 53.0988C36.3911 53.2653 36.278 53.418 36.1304 53.547C35.9828 53.676 35.804 53.7787 35.6052 53.8485C27.7074 56.2338 24.025 49.4544 28.3824 50.0918C29.8151 50.3139 30.6558 52.6027 34.137 51.608Z" fill="#75251C"/>
<path fill-rule="evenodd" clip-rule="evenodd" d="M39.1693 50.0337C40.3534 50.0337 41.3954 51.3278 41.3954 52.9308C41.3954 54.5339 40.4008 55.828 39.1693 55.828C37.9379 55.828 36.9314 54.5339 36.9314 52.9308C36.9314 51.3278 37.9379 50.0337 39.1693 50.0337Z" fill="white"/>
<path fill-rule="evenodd" clip-rule="evenodd" d="M73.626 69.1839C74.6206 70.3524 73.8392 75.7025 65.0059 76.9097C56.1609 75.7122 55.3794 70.3621 56.3858 69.1839C58.0317 67.2525 71.9683 67.2525 73.626 69.1839Z" fill="#75251C"/>
<path fill-rule="evenodd" clip-rule="evenodd" d="M61.2287 80.8113C61.2287 82.0571 61.7379 85.0508 65.0059 85.0508C68.274 85.0508 68.7358 82.0571 68.7713 80.8113C67.3131 80.1009 66.1341 79.0656 65.373 77.8273C65.229 77.5769 65.1064 77.3188 65.0059 77.0547C64.896 77.3174 64.7696 77.5752 64.627 77.8273C63.8765 79.0717 62.695 80.1092 61.2287 80.8113Z" fill="#EC6D58"/>
<path d="M79.8898 81.5837C79.2231 81.7961 78.5273 81.942 77.8177 82.0182C75.6957 82.2376 73.5412 81.9526 71.6131 81.1974H71.4828C71.452 81.1893 71.4189 81.1893 71.3881 81.1974C69.6019 80.5247 68.1252 79.405 67.1728 78.0009C66.7248 77.3359 66.4317 76.609 66.3084 75.857C66.3084 75.7314 66.3084 75.6252 66.3084 75.4997C66.3084 74.843 66.6518 72.5156 66.3084 72.3321C65.965 72.1486 65.3493 72.9695 65.1243 73.8096C64.8638 72.9695 64.4731 72.2162 63.9403 72.3321C63.4074 72.448 63.9403 74.843 63.8692 75.4997C63.8692 75.6252 63.8692 75.7314 63.8692 75.857C63.7529 76.5688 63.4843 77.2585 63.0759 77.8946C62.0942 79.3432 60.5423 80.4796 58.6711 81.1201C58.658 81.1156 58.6439 81.1133 58.6297 81.1133C58.6154 81.1133 58.6013 81.1156 58.5882 81.1201H58.4461C56.5186 81.8769 54.3635 82.162 52.2416 81.941C51.5322 81.8636 50.8366 81.7177 50.1694 81.5064L49.3287 81.207C48.7248 80.927 46.8066 79.6812 46.404 79.855C45.6107 80.4152 48.1802 82.1245 48.5354 82.3273C48.836 82.4959 49.1528 82.6444 49.4827 82.7715C50.2664 83.0721 51.0941 83.2896 51.9455 83.4185C54.3997 83.7648 56.9245 83.5128 59.2039 82.6942C59.2576 82.6793 59.3092 82.6599 59.3579 82.6363H59.4408H59.5473C61.6998 81.7915 63.4486 80.389 64.5205 78.6479C64.6909 78.3326 64.841 78.0102 64.9704 77.6822C65.0888 77.9912 65.2427 78.2906 65.4085 78.6479C66.4849 80.3896 68.2376 81.792 70.3935 82.6363H70.4882H70.5711C70.6198 82.6599 70.6714 82.6793 70.725 82.6942C73.0229 83.5544 75.584 83.8335 78.0782 83.4958C78.9301 83.3682 79.758 83.1507 80.541 82.8488C80.8709 82.7217 81.1877 82.5731 81.4883 82.4045C81.8435 82.2017 84.413 80.4731 83.6196 79.9323C83.2289 79.7585 81.3225 81.0042 80.695 81.2843L79.8543 81.5837H79.8898Z" fill="#75251C"/>
<path fill-rule="evenodd" clip-rule="evenodd" d="M116.928 43.322C116.516 41.9934 115.949 40.6999 115.235 39.4592C114.654 38.5417 113.719 36.8807 112.487 36.562C112.369 37.3056 113.802 39.7006 114.204 40.4249C114.714 41.323 117.934 51.0478 118.384 52.4191C119.324 55.271 120.001 58.1763 120.409 61.1106C120.634 62.5302 122.161 68.1893 123.334 68.9522C124.02 67.9865 123.168 65.6687 122.789 64.5775C122.327 63.0888 122.026 61.5701 121.889 60.0386C121.498 57.1037 120.829 54.1978 119.888 51.3472C118.964 48.6045 117.911 45.9971 116.928 43.2738V43.322ZM109.954 34.4471C110.581 34.7948 111.765 35.1135 111.623 34.1477C111.481 33.0082 107.929 31.6369 108.237 33.182C108.308 33.5297 109.539 34.1477 109.954 34.3988V34.4471Z" fill="#75251C"/>
</g>
<defs>
<clipPath id="clip0_330_251">
<rect width="130" height="100" fill="white"/>
</clipPath>
</defs>
</svg>
