<svg width="130" height="100" viewBox="0 0 130 100" fill="none" xmlns="http://www.w3.org/2000/svg">
<g clip-path="url(#clip0_330_79)">
<path fill-rule="evenodd" clip-rule="evenodd" d="M45.1804 49.2189C45.5126 35.5094 45.1804 20.7069 33.2209 7.85269C31.4081 5.80744 28.6971 3.94524 25.2479 2.376C9.91312 -3.78379 0.850463 3.21948 8.19704e-06 10.2346C-0.571391 20.7484 3.10948 27.8705 13.9262 37.1785C19.4409 41.8652 24.4506 46.5102 30.1513 51.1434C31.706 52.379 30.8024 51.981 35.8121 51.0187L45.114 49.2367L45.1804 49.2189Z" fill="white"/>
<path fill-rule="evenodd" clip-rule="evenodd" d="M40.5959 50.1633C40.1308 45.144 36.9815 12.3552 20.2514 13.7867C12.996 14.4045 12.6239 23.9916 13.2883 26.5161C14.6172 31.7077 21.9125 39.3941 26.2179 44.4906C28.5434 47.223 31.0549 49.9079 33.6328 52.5987C35.9716 51.7968 38.2705 50.983 40.5826 50.1633H40.5959Z" fill="#ED9376"/>
<path fill-rule="evenodd" clip-rule="evenodd" d="M83.7166 49.2189C83.4586 43.0255 84.4593 36.8343 86.7065 30.7218C88.9257 23.7601 89.6167 17.7191 94.055 10.8287C96.9385 6.43308 104.433 -1.64533 117.974 0.314872C132.591 3.07103 131.169 16.3113 127.9 22.0375C122.585 31.4167 112.778 39.2635 102.812 47.7518C101.669 48.7081 100.526 49.6526 99.3703 50.6089L98.6793 51.1435L97.7093 51.9216L83.7166 49.2189Z" fill="white"/>
<path fill-rule="evenodd" clip-rule="evenodd" d="M88.2081 50.1634C88.9124 42.3285 89.8958 38.7407 93.869 31.0484C95.1181 28.6249 101.403 11.9513 111.861 14.2976C118.24 15.7351 117.881 21.9068 117.004 24.6332C114.586 32.177 106.931 39.2516 100.912 46.4034C100.261 47.1696 99.583 47.924 98.9053 48.6784C97.6694 50.003 96.407 51.292 95.1048 52.5988L88.2081 50.1634Z" fill="#ED9376"/>
<path fill-rule="evenodd" clip-rule="evenodd" d="M13.8465 63.5878C24.9954 49.813 57.7911 41.194 88.8725 48.3161C100.221 50.9118 107.556 54.8501 112.619 60.0416C118.944 67.0449 129.668 84.0987 119.941 90.9772C104.978 100.743 62.8805 100.98 39.5727 99.0437C21.9258 97.5706 8.87663 93.8937 8.05276 85.2391C7.45478 78.7942 9.16898 69.7001 13.8465 63.5878Z" fill="white"/>
<path fill-rule="evenodd" clip-rule="evenodd" d="M68.6211 45.8866C78.2211 46.1085 87.4752 47.5613 95.2774 50.0715C103.08 52.5816 109.1 56.0429 112.619 60.0416C118.944 67.0449 129.694 84.1105 119.927 90.9831C110.599 97.5646 86.3743 99.5902 70.4283 99.9763C110.187 97.0716 115.396 82.0137 108.127 66.8845C107.397 65.352 106.506 63.9145 105.47 62.4236C95.5965 48.4111 69.724 45.9816 68.6211 45.8866Z" fill="#FFCFB5"/>
<path fill-rule="evenodd" clip-rule="evenodd" d="M90.2545 66.9855C86.7597 66.9855 83.9426 68.9694 83.9426 71.4108C84.7399 77.2973 95.7426 77.3508 96.5532 71.4108C96.5532 68.9694 93.7095 66.9855 90.2545 66.9855Z" fill="#75251C"/>
<path fill-rule="evenodd" clip-rule="evenodd" d="M78.9063 80.3861C84.2216 83.7719 110.333 81.5741 99.7823 79.0496C94.653 77.8319 77.6439 77.7428 78.9063 80.3861Z" fill="#EC6D58"/>
<path fill-rule="evenodd" clip-rule="evenodd" d="M88.6068 68.1675C87.4374 68.1675 86.4673 68.8446 86.4673 69.6762C86.4673 70.5078 87.4374 71.1909 88.6068 71.1909C89.7761 71.1909 90.7728 70.5138 90.7728 69.6762C90.7728 68.8387 89.8027 68.1675 88.6068 68.1675Z" fill="white"/>
<path fill-rule="evenodd" clip-rule="evenodd" d="M33.6062 72.0641C37.9914 79.7208 51.9309 74.161 45.5658 68.7674C41.4995 65.3519 32.2774 66.831 33.6062 72.0641Z" fill="#75251C"/>
<path fill-rule="evenodd" clip-rule="evenodd" d="M52.582 80.0712C50.5755 83.6352 20.69 81.7582 31.9186 78.8832C36.5961 77.6952 42.8682 77.9566 47.8647 78.4912C49.9244 78.7407 52.0239 79.0852 52.5687 80.0475L52.582 80.0712Z" fill="#EC6D58"/>
<path fill-rule="evenodd" clip-rule="evenodd" d="M35.8786 69.8545C37.6592 73.2522 43.6257 69.1774 38.802 68.1735C36.5961 67.7221 35.6792 68.9992 35.8786 69.8545Z" fill="white"/>
<path d="M20.2249 62.5483C16.5307 61.5444 35.0547 50.8524 38.1509 51.7315C40.4497 52.3909 35.4932 53.7393 34.1644 54.3095C28.9794 56.5409 24.865 59.2208 22.0719 62.186C22.0162 62.2679 21.9214 62.3435 21.7941 62.4075C21.6669 62.4715 21.5102 62.5225 21.3347 62.5569C21.1593 62.5913 20.9692 62.6084 20.7777 62.6069C20.5861 62.6054 20.3975 62.5854 20.2249 62.5483ZM43.3599 51.1435C43.0541 51.2162 42.6968 51.2327 42.3642 51.1895C42.0316 51.1462 41.75 51.0466 41.5793 50.9118C41.4113 50.7753 41.3701 50.6147 41.4645 50.4647C41.559 50.3147 41.7816 50.1873 42.0842 50.1099C42.7752 49.9436 43.413 49.7892 44.0908 49.6466C44.7685 49.504 45.4196 49.3793 46.1505 49.2427C46.4765 49.1839 46.8414 49.1853 47.1652 49.2465C47.4889 49.3078 47.7452 49.4239 47.8779 49.5694C48.0094 49.7151 48.0063 49.8782 47.8693 50.023C47.7323 50.1677 47.4726 50.2823 47.1471 50.3416C46.5092 50.4485 45.8182 50.5732 45.2203 50.7158C44.6223 50.8584 43.8914 51.0009 43.3599 51.1435Z" fill="white"/>
<path fill-rule="evenodd" clip-rule="evenodd" d="M65.6711 73.6561C71.8369 73.6561 76.8599 74.7194 76.8599 76.0321C76.8599 77.3449 71.8369 78.4081 65.6711 78.4081C59.5053 78.4081 54.4823 77.3092 54.4823 76.0321C54.4823 74.755 59.4787 73.6561 65.6578 73.6561H65.6711Z" fill="#75251C"/>
<path d="M64.0233 76.3587C64.0603 76.2042 64.2312 76.0623 64.4995 75.9635C64.7678 75.8646 65.1121 75.8168 65.4584 75.8301C65.6321 75.8382 65.8005 75.8616 65.9539 75.8988C66.1074 75.9361 66.2429 75.9865 66.3527 76.0472C66.4626 76.1079 66.5446 76.1776 66.5941 76.2525C66.6435 76.3274 66.6595 76.4058 66.6411 76.4835C66.6411 76.4835 65.5648 80.9444 56.7811 80.7543C56.4287 80.7465 56.0977 80.6763 55.861 80.5593C55.6242 80.4424 55.5011 80.2882 55.5188 80.1306C55.5364 79.9731 55.6933 79.8251 55.9549 79.7193C56.2166 79.6135 56.5616 79.5584 56.914 79.5663C63.2127 79.7089 64.0233 76.3528 64.0233 76.3468V76.3587Z" fill="#75251C"/>
<path d="M64.0233 76.4835C63.9863 76.3259 64.0908 76.1683 64.3138 76.0452C64.5369 75.9221 64.8602 75.8437 65.2126 75.8271C65.565 75.8106 65.9177 75.8573 66.1931 75.957C66.4685 76.0567 66.644 76.2012 66.681 76.3588C66.681 76.3588 67.4783 79.7208 73.777 79.5782C73.9515 79.5747 74.1258 79.5866 74.29 79.6132C74.4543 79.6398 74.6052 79.6806 74.7341 79.7333C74.863 79.786 74.9675 79.8495 75.0416 79.9202C75.1156 79.991 75.1577 80.0675 75.1656 80.1455C75.1734 80.2235 75.1468 80.3014 75.0873 80.3749C75.0278 80.4483 74.9365 80.5157 74.8187 80.5734C74.7008 80.631 74.5587 80.6777 74.4005 80.7108C74.2423 80.7439 74.0711 80.7627 73.8965 80.7662C65.1129 80.9563 64.0632 76.5132 64.0632 76.4954L64.0233 76.4835Z" fill="#75251C"/>
</g>
<defs>
<clipPath id="clip0_330_79">
<rect width="130" height="100" fill="white"/>
</clipPath>
</defs>
</svg>
