<svg width="130" height="100" viewBox="0 0 130 100" fill="none" xmlns="http://www.w3.org/2000/svg">
<g clip-path="url(#clip0_330_190)">
<path d="M94.406 19.3137C95.6952 19.8409 96.8812 20.4329 98.0672 21.0434C100.494 22.2953 102.802 23.6611 104.977 25.1318C113.91 31.3778 120.82 38.9566 125.217 47.3314C129.394 55.2863 131.122 63.7406 129.239 71.381C126.339 83.526 112.751 91.8139 95.476 96.1983C84.4965 98.8985 72.927 100.152 61.3259 99.8983C49.9127 99.7921 38.6375 98.0924 28.1297 94.8941C13.1753 90.2137 2.1787 82.0553 0.476993 70.4098C-1.12158 59.3655 1.36652 48.9686 7.45141 40.1721C13.4917 31.3355 23.3864 24.1548 35.6327 19.7207C39.3969 18.3342 43.3012 17.153 47.3126 16.1872C50.6524 15.3806 54.0748 14.7621 57.5486 14.3373C59.3792 9.46259 63.6464 0.601242 70.5563 0.0555015C71.6449 -0.0550268 72.753 -0.0110276 73.8179 0.184999C74.6844 0.341144 75.4978 0.621632 76.2091 1.00954C76.9203 1.39744 77.5146 1.88472 77.9562 2.44196C78.7144 3.41247 79.1759 4.48772 79.3098 5.59615C79.409 6.24723 79.4391 6.90277 79.4 7.55712C79.6724 7.4541 79.9521 7.36147 80.238 7.27962C87.0319 5.13366 100.555 0.869487 105.931 5.65165C106.658 6.27218 107.19 6.9978 107.491 7.77912C108.046 9.28527 107.778 10.8866 106.743 12.256C105.612 13.7605 104.053 15.0778 102.167 16.1225C99.8137 17.4453 97.209 18.52 94.4318 19.3137H94.406Z" fill="#75251C"/>
<path d="M60.8489 15.7247C60.8306 15.806 60.8047 15.8864 60.7715 15.9652C60.3461 17.2324 60.1269 18.0464 60.1269 18.0649C60.03 18.4016 59.7566 18.6988 59.3632 18.895C58.9698 19.0912 58.4863 19.1716 58.0127 19.1194C57.7691 19.0926 57.5354 19.031 57.3256 18.9383C57.1157 18.8456 56.9339 18.7236 56.7908 18.5796C56.6478 18.4356 56.5465 18.2724 56.4929 18.0998C56.4392 17.9272 56.4344 17.7487 56.4786 17.5747C56.4786 17.5747 56.4786 17.4267 56.5817 17.1954C53.8349 17.5928 51.123 18.1055 48.4599 18.7309C44.627 19.6562 40.8954 20.7847 37.2957 22.1071C25.777 26.2852 16.4648 33.0381 10.7646 41.3468C4.80874 50.3029 2.51979 60.2885 4.16402 70.1415C5.71103 80.7141 15.7666 88.1602 29.6123 92.5539C39.6767 95.6111 50.4748 97.2323 61.4032 97.3268C72.5612 97.5582 83.6854 96.3391 94.2384 93.7286C110.314 89.6124 122.897 81.9906 125.591 70.9832C127.344 63.7869 125.707 55.8228 121.724 48.2749C117.524 40.2726 110.922 33.0314 102.386 27.065C100.365 25.6701 98.2115 24.3782 95.9401 23.1986C93.7672 22.0795 91.4788 21.0807 89.0946 20.2109C88.8539 20.1331 88.6401 20.0182 88.4685 19.8743C88.2969 19.7304 88.1717 19.5611 88.1019 19.3784C88.0336 19.2102 88.0129 19.0338 88.041 18.8598C88.0691 18.6857 88.1455 18.5174 88.2656 18.3648C88.3858 18.2123 88.5472 18.0785 88.7405 17.9714C88.9338 17.8643 89.155 17.786 89.3911 17.7412C93.1945 17.0157 96.7607 15.7583 99.885 14.0412C101.334 13.2445 102.54 12.2435 103.43 11.0998C104.047 10.323 104.227 9.40641 103.933 8.53759C103.752 8.10542 103.454 7.70308 103.056 7.35361C99.4595 4.15317 87.5863 7.8716 81.7077 9.74007C79.3872 10.4708 77.7628 10.9795 76.8217 10.8038C76.5481 10.7869 76.2842 10.7228 76.0526 10.6169C75.8211 10.5109 75.6287 10.3664 75.4919 10.1955C75.3551 10.0246 75.2779 9.83257 75.2671 9.63568C75.2562 9.43878 75.3119 9.24293 75.4294 9.06483C75.7249 8.02105 75.7901 6.95045 75.6228 5.89214C75.5577 5.15879 75.2672 4.44488 74.7719 3.80167C74.5705 3.54677 74.2984 3.32416 73.9725 3.14758C73.6466 2.971 73.2737 2.84418 72.8768 2.77494C72.2525 2.66562 71.6047 2.64364 70.9689 2.71019C65.8122 3.12644 62.2927 11.5623 60.8489 15.7525V15.7247Z" fill="#FFBD52"/>
<path d="M56.6333 18.3888C56.4666 18.132 56.4126 17.8448 56.4786 17.5655C56.4786 17.5655 56.4786 17.4175 56.5817 17.1863C53.8349 17.5836 51.123 18.0963 48.4599 18.7218C44.627 19.647 40.8954 20.7756 37.2957 22.0979C25.775 26.2784 16.4626 33.0347 10.7646 41.3469C4.80874 50.303 2.51979 60.2885 4.16402 70.1416C5.38873 78.6237 12.1956 85.0986 21.9159 89.6125C21.8128 89.52 10.3134 80.0944 8.2378 70.5208C6.16224 60.9473 9.70746 44.3993 23.5016 33.2995C32.359 26.19 43.8488 21.0319 56.6333 18.4258V18.3888Z" fill="white"/>
<path d="M87.1093 95.2734C89.5458 94.8201 91.9308 94.2929 94.2384 93.7102C110.314 89.594 122.897 81.9721 125.591 70.9648C127.344 63.7684 125.707 55.8043 121.724 48.2565C117.524 40.2542 110.922 33.013 102.386 27.0466C100.365 25.6517 98.2115 24.3597 95.9401 23.1801C93.7672 22.0611 91.4788 21.0623 89.0946 20.1924C88.8539 20.1147 88.6401 19.9998 88.4685 19.8559C88.2969 19.712 88.1717 19.5426 88.1019 19.36C88.0336 19.1917 88.0129 19.0154 88.041 18.8413C88.0691 18.6672 88.1455 18.499 88.2656 18.3464C88.3858 18.1938 88.5472 18.0601 88.7405 17.953C88.9338 17.8458 89.155 17.7676 89.3911 17.7227C93.1945 16.9973 96.7607 15.7399 99.885 14.0228C101.331 13.2315 102.538 12.2369 103.43 11.0999C104.047 10.323 104.227 9.40647 103.933 8.53765C103.752 8.10547 103.454 7.70314 103.056 7.35367C101.664 6.11419 99.0341 5.9107 95.9788 6.24369C96.8812 6.77093 97.3582 7.87166 93.929 9.94363C88.3469 13.3568 74.4367 16.9458 72.3096 19.064C70.1825 21.1822 91.9566 22.4864 106.215 43.391C116.786 58.8753 116.799 85.2651 87.1093 95.2734Z" fill="#F49E3B"/>
<path d="M60.8489 15.7247C60.8306 15.806 60.8047 15.8864 60.7715 15.9652C60.3461 17.2325 60.1269 18.0464 60.1269 18.0649C60.03 18.4016 59.7566 18.6988 59.3632 18.895C58.9698 19.0912 58.4863 19.1716 58.0127 19.1194C57.7691 19.0926 57.5354 19.031 57.3256 18.9383C57.1157 18.8456 56.9339 18.7236 56.7908 18.5796C56.6478 18.4356 56.5465 18.2724 56.4929 18.0998C56.4392 17.9272 56.4344 17.7487 56.4786 17.5747C56.4786 17.5747 56.4786 17.4267 56.5817 17.1955C53.8349 17.5928 51.123 18.1055 48.4599 18.7309C44.627 19.6562 40.8953 20.7847 37.2957 22.1071C25.777 26.2852 16.4648 33.0381 10.7646 41.3468C4.80874 50.303 2.51979 60.2885 4.16402 70.1415C5.71103 80.7141 15.7666 88.1602 29.6123 92.5539C39.6767 95.6111 50.4748 97.2323 61.4032 97.3268C72.5612 97.5582 83.6854 96.3392 94.2384 93.7286C110.314 89.6124 122.897 81.9906 125.591 70.9833C127.344 63.7869 125.707 55.8228 121.724 48.2749C117.524 40.2726 110.922 33.0314 102.386 27.065C100.365 25.6701 98.2115 24.3782 95.9401 23.1986C93.7672 22.0795 91.4788 21.0807 89.0946 20.2109C88.8539 20.1332 88.6401 20.0182 88.4685 19.8743C88.2969 19.7304 88.1717 19.5611 88.1019 19.3784C88.0336 19.2102 88.0129 19.0338 88.041 18.8598C88.0691 18.6857 88.1455 18.5174 88.2656 18.3649C88.3858 18.2123 88.5472 18.0785 88.7405 17.9714C88.9338 17.8643 89.155 17.786 89.3911 17.7412C93.1945 17.0157 96.7607 15.7583 99.885 14.0413C101.334 13.2445 102.54 12.2435 103.43 11.0998C104.047 10.323 104.227 9.40643 103.933 8.5376C103.752 8.10543 103.454 7.70309 103.056 7.35362C99.4595 4.15318 87.5863 7.87161 81.7077 9.74008C79.3872 10.4708 77.7628 10.9796 76.8217 10.8038C76.5481 10.7869 76.2842 10.7228 76.0526 10.6169C75.8211 10.5109 75.6287 10.3664 75.4919 10.1955C75.3551 10.0247 75.2779 9.83258 75.2671 9.63569C75.2562 9.4388 75.3119 9.24294 75.4294 9.06484C75.7249 8.02106 75.7902 6.95046 75.6228 5.89215C75.5577 5.1588 75.2672 4.44489 74.7719 3.80169C74.5705 3.54678 74.2984 3.32417 73.9725 3.14759C73.6466 2.97101 73.2737 2.84419 72.8768 2.77495C72.2525 2.66563 71.6047 2.64365 70.9689 2.71021C65.8122 3.12645 62.2927 11.5623 60.8489 15.7525V15.7247ZM94.3673 19.3044C95.6565 19.8317 96.8425 20.4236 98.0286 21.0341C100.455 22.2861 102.763 23.6519 104.939 25.1226C113.871 31.3685 120.781 38.9473 125.179 47.3222C129.355 55.277 131.083 63.7314 129.201 71.3718C126.339 83.526 112.751 91.8139 95.476 96.1983C84.4965 98.8985 72.927 100.152 61.3259 99.8983C49.9127 99.7921 38.6375 98.0924 28.1297 94.8941C13.1753 90.2137 2.1787 82.0553 0.476993 70.4098C-1.12158 59.3655 1.36652 48.9686 7.45141 40.1721C13.4917 31.3355 23.3864 24.1548 35.6327 19.7207C39.3969 18.3342 43.3012 17.153 47.3126 16.1872C50.6524 15.3806 54.0748 14.7621 57.5486 14.3373C59.3792 9.46259 63.6464 0.601242 70.5563 0.0555015C71.6449 -0.0550268 72.753 -0.0110276 73.8179 0.184999C74.6844 0.341144 75.4978 0.621632 76.2091 1.00954C76.9203 1.39744 77.5146 1.88472 77.9562 2.44196C78.7144 3.41247 79.1759 4.48772 79.3098 5.59615C79.409 6.24723 79.4391 6.90277 79.4 7.55712C79.6724 7.4541 79.9521 7.36147 80.238 7.27962C87.0319 5.13366 100.555 0.869487 105.931 5.65165C106.658 6.27218 107.19 6.9978 107.491 7.77912C108.046 9.28527 107.778 10.8866 106.743 12.256C105.612 13.7605 104.053 15.0778 102.167 16.1225C99.8137 17.4453 97.209 18.52 94.4318 19.3137L94.3673 19.3044Z" fill="#75251C"/>
<path fill-rule="evenodd" clip-rule="evenodd" d="M95.3987 47.7754C91.7245 47.7754 88.7594 51.1146 88.7594 55.2493C88.7594 59.3839 91.7245 62.7324 95.3987 62.7324C104.346 61.9184 104.333 48.5801 95.3987 47.7754Z" fill="#75251C"/>
<path fill-rule="evenodd" clip-rule="evenodd" d="M95.3987 66.6543C88.695 66.6543 83.2933 68.1158 83.2933 69.9195C83.2933 71.7232 88.695 73.1847 95.3987 73.1847C111.552 72.7684 111.655 67.0613 95.3987 66.6543Z" fill="#EC6D58"/>
<path d="M101.845 46.6378C101.845 46.6378 100.736 49.866 97.2035 49.903C96.9841 49.8888 96.763 49.9075 96.5543 49.9579C96.3455 50.0084 96.1537 50.0895 95.9911 50.1961C95.8285 50.3028 95.6986 50.4325 95.6097 50.5771C95.5209 50.7217 95.475 50.878 95.475 51.0361C95.475 51.1941 95.5209 51.3505 95.6097 51.4951C95.6986 51.6397 95.8285 51.7694 95.9911 51.876C96.1537 51.9826 96.3455 52.0638 96.5543 52.1142C96.763 52.1647 96.9841 52.1834 97.2035 52.1692C99.0757 52.056 100.845 51.5067 102.241 50.6049C103.638 49.703 104.585 48.4983 104.939 47.1743C104.995 46.8916 104.903 46.6039 104.68 46.3674C104.457 46.1309 104.119 45.9627 103.732 45.8956C103.345 45.8285 102.937 45.8674 102.588 46.0047C102.239 46.1419 101.974 46.3677 101.845 46.6378Z" fill="#75251C"/>
<path d="M98.7892 51.1517C98.42 51.0322 98.0015 51.0177 97.6181 51.1111C97.2346 51.2045 96.9148 51.3988 96.7234 51.6548C96.5319 51.9108 96.4829 52.2094 96.5864 52.4903C96.6899 52.7712 96.9381 53.0134 97.2808 53.1681C105.299 55.2863 109.064 49.2277 104.642 49.8012C103.172 49.9954 102.334 52.0489 98.7892 51.1517Z" fill="#75251C"/>
<path fill-rule="evenodd" clip-rule="evenodd" d="M93.6583 49.7549C92.3691 49.7549 91.3893 50.9019 91.3893 52.3171C91.3893 53.7323 92.4207 54.87 93.6583 54.87C94.8959 54.87 95.9401 53.7231 95.9401 52.3171C95.9401 50.9111 94.9217 49.7549 93.6583 49.7549Z" fill="white"/>
<path fill-rule="evenodd" clip-rule="evenodd" d="M35.8905 47.7754C39.5647 47.7754 42.5298 51.1146 42.5298 55.2493C42.5298 59.3839 39.5647 62.7324 35.8905 62.7324C26.9308 61.9184 26.9566 48.5801 35.8905 47.7754Z" fill="#75251C"/>
<path fill-rule="evenodd" clip-rule="evenodd" d="M35.8905 66.6543C42.5684 66.6543 47.9958 68.1158 47.9958 69.9195C47.9958 71.7232 42.5426 73.1847 35.8905 73.1847C19.7243 72.7684 19.6341 67.0613 35.8905 66.6543Z" fill="#EC6D58"/>
<path d="M29.3931 46.6377C29.3931 46.6377 30.5018 49.8659 34.0341 49.9029C34.2535 49.8886 34.4746 49.9073 34.6833 49.9578C34.8921 50.0083 35.0839 50.0894 35.2465 50.196C35.4091 50.3026 35.539 50.4324 35.6279 50.577C35.7167 50.7216 35.7626 50.8779 35.7626 51.036C35.7626 51.194 35.7167 51.3503 35.6279 51.4949C35.539 51.6396 35.4091 51.7693 35.2465 51.8759C35.0839 51.9825 34.8921 52.0636 34.6833 52.1141C34.4746 52.1646 34.2535 52.1833 34.0341 52.1691C32.1612 52.0574 30.3909 51.5085 28.994 50.6065C27.597 49.7044 26.6505 48.4988 26.2991 47.1741C26.2144 46.8824 26.2914 46.5784 26.5137 46.3266C26.7361 46.0748 27.0862 45.895 27.4901 45.8253C27.8939 45.7556 28.3198 45.8014 28.6774 45.953C29.035 46.1046 29.2963 46.3502 29.406 46.6377H29.3931Z" fill="#75251C"/>
<path d="M32.4871 51.1517C32.8614 51.0155 33.2946 50.9886 33.6959 51.0766C34.0973 51.1645 34.4356 51.3605 34.64 51.6234C34.7386 51.7562 34.7994 51.9018 34.819 52.0516C34.8386 52.2014 34.8166 52.3525 34.7542 52.4962C34.6919 52.6398 34.5904 52.7732 34.4558 52.8885C34.3211 53.0039 34.1559 53.0989 33.9697 53.1681C25.951 55.2863 22.1995 49.2277 26.6214 49.8012C28.1039 49.9954 28.9419 52.0489 32.4871 51.1517Z" fill="#75251C"/>
<path fill-rule="evenodd" clip-rule="evenodd" d="M37.5922 49.7549C38.8814 49.7549 39.8741 50.9019 39.8741 52.3171C39.8741 53.7323 38.8556 54.87 37.5922 54.87C36.3288 54.87 35.3362 53.7231 35.3362 52.3171C35.3362 50.9111 36.3546 49.7549 37.5922 49.7549Z" fill="white"/>
<path fill-rule="evenodd" clip-rule="evenodd" d="M65.2707 63.824C65.2707 63.824 54.3901 67.7182 54.1452 70.9279C53.9002 74.1376 61.3903 80.6032 65.3094 81.6854C69.2285 82.7677 77.2085 72.6483 77.4018 70.9001C77.5952 69.1519 72.2451 63.602 65.2192 63.787L65.2707 63.824Z" fill="#F09833"/>
<path d="M65.6059 64.7489C63.9816 65.3501 55.718 68.5598 55.5762 70.937C55.4988 72.195 56.9814 74.2115 58.9538 76.1077C61.1969 78.2721 64.0202 80.2239 65.838 80.7326C65.8715 80.7248 65.9076 80.7248 65.9411 80.7326C67.14 80.7881 69.1511 79.2249 71.0978 77.3379C72.9631 75.4939 74.541 73.5088 75.8033 71.418C75.9225 71.2113 76.0174 70.9978 76.0869 70.7798C75.6147 69.4892 74.6346 68.3235 73.2636 67.4221C71.445 65.9737 68.9597 65.0443 66.2634 64.8044C66.053 64.7957 65.8421 64.7957 65.6317 64.8044L65.6059 64.7489ZM52.856 70.8908C53.0752 67.0798 64.6519 62.9082 64.6906 62.8989C64.8681 62.8389 65.0616 62.8074 65.2578 62.8064C65.6868 62.7807 66.118 62.7807 66.547 62.8064C69.9369 63.0723 73.0714 64.2249 75.352 66.0439C77.1828 67.2862 78.442 68.8996 78.9617 70.6688C78.9766 70.7548 78.9766 70.8418 78.9617 70.9278C78.8562 71.3536 78.6605 71.7653 78.3816 72.1487C77.0311 74.395 75.3361 76.5264 73.328 78.5034C70.9044 80.9361 68.0682 82.8971 65.7477 82.7676C65.4478 82.7458 65.1531 82.696 64.8711 82.6196C62.5506 81.9813 59.3019 79.7614 56.7235 77.3287C54.4159 75.1179 52.6884 72.6482 52.856 70.8538V70.8908Z" fill="#75251C"/>
<path fill-rule="evenodd" clip-rule="evenodd" d="M116.451 76.2834C117.74 76.1817 118.526 75.1642 119.184 74.4335C122.11 71.1128 122.355 66.8856 122.355 63.1209C122.355 61.6779 120.421 51.9286 118.307 51.8176C118.011 53.0848 119.197 56.313 119.596 57.6913C122.794 70.641 116.902 74.4612 116.515 76.2927L116.451 76.2834ZM13.4203 43.5205C13.098 43.8535 12.6726 44.1032 12.6854 44.5102C12.6983 44.9172 13.33 45.1022 14.0649 45.0097C14.7997 44.9172 15.715 43.5298 13.4203 43.5205ZM98.0801 10.5541C100.065 10.9796 101.032 9.58285 100.233 8.98161C99.6916 8.58386 99.047 8.98161 98.6216 9.30535C98.345 9.43711 98.1402 9.63322 98.0415 9.86067C97.9429 10.0881 97.9565 10.333 98.0801 10.5541ZM117.418 46.7857C116.038 46.7857 115.987 47.0909 116.335 48.0807C116.528 48.5802 116.915 49.3664 117.547 49.5052C119.7 49.9399 118.049 47.2389 117.418 46.7857ZM9.7977 56.4703C10.7646 55.9523 10.7775 52.9276 11.0869 51.8454C11.3963 50.7631 12.6339 48.0992 12.4534 47.3499C11.5639 47.1834 11.3576 47.4609 10.9966 47.8772C8.7019 50.6521 7.87683 56.128 9.7977 56.4703ZM96.0046 11.7381C95.2568 11.5438 94.7154 12.0433 94.2384 12.3023C93.7614 12.5613 92.9492 12.8758 92.3046 13.1625C89.5071 14.3558 85.3044 15.808 82.2233 16.8625C81.5916 17.0752 80.1993 17.473 81.1146 18.0927C82.0299 18.7124 97.2422 13.7453 96.0046 11.7566V11.7381Z" fill="#75251C"/>
</g>
<defs>
<clipPath id="clip0_330_190">
<rect width="130" height="100" fill="white"/>
</clipPath>
</defs>
</svg>
