<svg width="130" height="100" viewBox="0 0 130 100" fill="none" xmlns="http://www.w3.org/2000/svg">
<g clip-path="url(#clip0_330_325)">
<path d="M17.2712 48.8163C18.8798 46.6986 20.7582 44.6813 22.885 42.7875C5.49429 31.6655 -0.33445 20.389 -1.4473e-05 12.3018C0.0498235 9.80913 0.863475 7.35109 2.38881 5.08509C3.60836 3.24037 5.67497 1.71559 8.27727 0.740448C9.8946 0.189648 11.6974 -0.059132 13.5019 0.0194787C15.3065 0.0980894 17.0481 0.501278 18.5492 1.18793C23.7808 3.31144 27.7821 7.76185 30.8039 12.8794C34.9844 19.9578 37.3612 28.3379 38.5198 33.5124C38.9259 33.3497 39.344 33.2032 39.7142 33.0486C47.6514 30.2324 56.5071 28.8328 65.4539 28.9806C74.3115 29.0889 83.0131 30.5868 90.8829 33.3578C91.086 33.4229 91.289 33.5043 91.4921 33.5775C92.6865 28.4355 95.0753 20.0066 99.1961 12.912C102.23 7.76185 106.231 3.31144 111.451 1.18793C112.956 0.500642 114.702 0.0971791 116.51 0.0185793C118.319 -0.0600206 120.125 0.189047 121.747 0.740448C124.339 1.71928 126.396 3.24349 127.611 5.08509C129.154 7.34713 129.968 9.8077 130 12.3018C130.358 20.3076 124.649 31.4458 107.664 42.462C109.901 44.2972 111.846 46.288 113.469 48.4013C118.032 54.7804 121.272 61.5601 123.096 68.5462C124.804 75.1526 124.852 81.1489 122.702 84.8182V84.8589C117.996 91.9779 105.98 96.1599 91.7907 98.259C73.337 100.993 51.1806 100.236 37.2896 97.8847C30.4934 96.7294 22.6341 95.0208 16.3754 92.4173C9.8539 89.708 5.05236 86.0549 4.78959 81.0757C4.61042 77.9026 6.11538 72.4108 8.2295 66.8457C10.7139 60.2474 14.0821 53.405 16.5904 49.8984L17.2832 48.8895L17.2712 48.8163Z" fill="#75251C"/>
<path d="M91.9699 36.1565H91.8863C91.086 35.831 90.2977 35.5381 89.4974 35.2452C82.0712 32.6291 73.8607 31.2121 65.5017 31.104C57.0595 30.9613 48.7017 32.2768 41.2073 34.9279C32.0668 38.2852 24.6741 43.4858 20.0423 49.8169L19.3495 50.8095C16.9607 54.2266 13.688 60.9063 11.2514 67.3663C9.19698 72.793 7.72785 78.0326 7.89507 80.9942C8.12201 85.1191 12.3144 88.2352 17.9879 90.5947C23.9599 93.0355 31.4967 94.7034 38.0301 95.818C51.5509 98.1124 73.134 98.8446 91.1338 96.1678C104.392 94.1989 115.607 90.3831 119.8 83.9638C121.723 80.7094 121.615 75.1199 120.003 68.9121C118.239 62.1248 115.091 55.5387 110.65 49.345C106.344 43.8517 99.8751 39.2846 91.9699 36.1565Z" fill="#FFEADE"/>
<path d="M50.0937 32.479C47.0182 33.0862 44.0409 33.904 41.2073 34.9198C32.0668 38.2771 24.6741 43.4776 20.0423 49.8088L19.3495 50.8014C16.9607 54.2185 13.688 60.8982 11.2514 67.3582C9.19698 72.7931 7.72785 78.0327 7.89507 80.9942C8.12201 84.9727 12.0158 88.0156 17.4504 90.3425C15.1666 87.777 13.6221 84.9383 12.8997 81.9786C11.4664 73.8914 18.0834 57.7658 25.2618 48.1409C32.4403 38.5159 50.0459 32.4871 50.0937 32.479Z" fill="white"/>
<path d="M91.9699 36.1565H91.8863C91.086 35.831 90.2977 35.5381 89.4974 35.2452C83.7788 33.2345 77.5845 31.9263 71.199 31.3806C71.8559 31.4457 92.8418 33.6506 104.523 54.0069C111.761 66.7154 113.469 82.8248 104.595 93.2389C111.654 91.0666 117.16 88.0481 119.847 83.9882C121.77 80.7338 121.663 75.1443 120.051 68.9366C118.287 62.1492 115.139 55.5632 110.698 49.3694C106.384 43.8627 99.8976 39.2865 91.9699 36.1565Z" fill="#FCB187"/>
<path d="M101.8 38.3696C113.266 28.4355 116.754 22.0975 116.611 18.5583C116.633 17.7895 116.331 17.0326 115.739 16.3779C115.542 16.1862 115.291 16.0238 114.999 15.9007C114.707 15.7776 114.382 15.6963 114.043 15.6619C113.275 15.6387 112.51 15.7419 111.814 15.9629C111.117 16.1838 110.509 16.516 110.041 16.9311C108.262 18.2898 106.386 20.934 104.631 23.9606C102.158 28.2483 99.9724 33.2439 98.6586 36.6203C99.7455 37.1736 100.809 37.7594 101.848 38.3696H101.8Z" fill="#ED9376"/>
<path d="M96.5684 35.6277C97.9778 32.235 100.152 27.4917 102.445 23.4237C104.284 20.2425 106.303 17.4274 108.286 15.9141C109.01 15.3002 109.944 14.8163 111.005 14.5043C112.067 14.1923 113.224 14.0618 114.377 14.1242C115.024 14.1837 115.645 14.3328 116.204 14.5623C116.763 14.7918 117.247 15.0968 117.626 15.4585C118.513 16.3626 118.972 17.4304 118.94 18.5176C119.119 22.3416 115.476 29.0945 103.52 39.4679C104.237 39.9236 104.917 40.3954 105.586 40.8755C121.759 30.3556 127.205 19.8682 126.871 12.3993C126.847 10.2101 126.138 8.04948 124.792 6.06138C123.887 4.62857 122.318 3.437 120.325 2.66865C119.174 2.28996 117.896 2.12514 116.62 2.19086C115.345 2.25657 114.118 2.5505 113.063 3.04291C108.501 4.88165 104.893 8.94967 102.099 13.6767C97.7986 20.9991 95.4576 29.7616 94.3945 34.6758C95.1351 34.9768 95.8517 35.3023 96.5684 35.6277Z" fill="#FFEADE"/>
<path d="M26.7788 39.7119C14.5957 29.2246 10.905 22.3659 11.0603 18.5094C11.0403 17.4246 11.5025 16.361 12.3861 15.4584C12.765 15.0917 13.2494 14.7815 13.81 14.5465C14.3706 14.3115 14.9956 14.1567 15.6468 14.0915C16.7977 14.0291 17.9535 14.1596 19.0133 14.4717C20.0731 14.7837 21.0046 15.2677 21.7264 15.8815C23.7091 17.3948 25.7157 20.2098 27.5671 23.391C29.9559 27.516 32.07 32.3407 33.5391 35.7334C34.2439 35.3835 34.9605 35.0418 35.6772 34.7164C34.638 29.8348 32.285 20.9828 27.9732 13.6847C25.0827 8.94957 21.4995 4.88155 16.9607 3.01026C15.9035 2.51792 14.6744 2.22409 13.3974 2.15839C12.1204 2.09268 10.8405 2.25742 9.6867 2.636C7.70132 3.4131 6.13209 4.60174 5.20765 6.02873C3.86733 8.01811 3.1591 10.1779 3.12937 12.3667C2.79493 19.9251 8.3609 30.5345 24.8558 41.152C25.4888 40.6638 26.1457 40.1838 26.7788 39.7119Z" fill="#FFEADE"/>
<path d="M31.4728 36.7749C30.1112 33.4066 27.8896 28.3053 25.3932 23.9606C23.6375 20.934 21.81 18.2654 19.9706 16.9311C19.5026 16.516 18.8946 16.1838 18.198 15.9629C17.5015 15.7419 16.7369 15.6387 15.9693 15.6619C15.6297 15.692 15.3035 15.7715 15.0129 15.8951C14.7223 16.0186 14.4741 16.1833 14.2852 16.3779C13.6737 17.0275 13.3617 17.7869 13.3894 18.5583C13.2461 22.0975 16.8054 28.525 28.4509 38.5811C29.4423 37.9465 30.4456 37.3444 31.4728 36.7749Z" fill="#ED9376"/>
<path d="M17.2712 48.8163C18.8798 46.6986 20.7582 44.6813 22.885 42.7875C5.49429 31.6655 -0.33445 20.389 -1.4473e-05 12.3018C0.0498235 9.80913 0.863475 7.35109 2.38881 5.08509C3.60836 3.24037 5.67497 1.71559 8.27727 0.740448C9.8946 0.189648 11.6974 -0.059132 13.5019 0.0194787C15.3065 0.0980894 17.0481 0.501278 18.5492 1.18793C23.7808 3.31144 27.7821 7.76185 30.8039 12.8794C34.9844 19.9578 37.3612 28.3379 38.5198 33.5124C38.9259 33.3497 39.344 33.2032 39.7142 33.0486C47.6514 30.2324 56.5071 28.8328 65.4539 28.9806C74.3115 29.0889 83.0131 30.5868 90.8829 33.3578C91.086 33.4229 91.289 33.5043 91.4921 33.5775C92.6865 28.4355 95.0753 20.0066 99.1961 12.912C102.23 7.76185 106.231 3.31144 111.451 1.18793C112.956 0.500642 114.702 0.0971791 116.51 0.0185793C118.319 -0.0600206 120.125 0.189047 121.747 0.740448C124.339 1.71928 126.396 3.24349 127.611 5.08509C129.154 7.34713 129.968 9.8077 130 12.3018C130.358 20.3076 124.649 31.4458 107.664 42.462C109.901 44.2972 111.846 46.288 113.469 48.4013C118.032 54.7804 121.272 61.5601 123.096 68.5462C124.804 75.1526 124.852 81.1489 122.702 84.8182V84.8589C117.996 91.9779 105.98 96.1599 91.7907 98.259C73.337 100.993 51.1806 100.236 37.2896 97.8847C30.4934 96.7294 22.6341 95.0208 16.3754 92.4173C9.8539 89.708 5.05236 86.0549 4.78959 81.0757C4.61042 77.9026 6.11538 72.4108 8.2295 66.8457C10.7139 60.2474 14.0821 53.405 16.5904 49.8984L17.2832 48.8895L17.2712 48.8163ZM31.4728 36.7749C30.1112 33.4066 27.8895 28.3053 25.3932 23.9607C23.6374 20.9341 21.81 18.2655 19.9706 16.9312C19.5026 16.516 18.8946 16.1839 18.198 15.9629C17.5014 15.742 16.7369 15.6387 15.9693 15.6619C15.6296 15.6921 15.3035 15.7716 15.0129 15.8951C14.7223 16.0186 14.4741 16.1833 14.2852 16.3779C13.6737 17.0275 13.3617 17.7869 13.3894 18.5584C13.246 22.0975 16.8054 28.525 28.4509 38.5811C29.4423 37.9465 30.4456 37.3445 31.4728 36.7749ZM26.7787 39.7121C14.5957 29.2247 10.905 22.366 11.0603 18.5095C11.0403 17.4247 11.5025 16.3612 12.3861 15.4585C12.7649 15.0919 13.2494 14.7816 13.81 14.5466C14.3706 14.3116 14.9956 14.1568 15.6468 14.0917C16.7977 14.0293 17.9535 14.1598 19.0133 14.4718C20.073 14.7838 21.0045 15.2678 21.7264 15.8816C23.7091 17.3949 25.7157 20.21 27.5671 23.3912C29.9559 27.5161 32.07 32.3408 33.5391 35.7335C34.2438 35.3837 34.9605 35.042 35.6771 34.7165C34.638 29.8349 32.285 20.9829 27.9732 13.6849C25.0827 8.94971 21.4994 4.88169 16.9607 3.0104C15.9035 2.51806 14.6744 2.22423 13.3974 2.15853C12.1204 2.09282 10.8405 2.25756 9.68668 2.63614C7.7013 3.41324 6.13207 4.60188 5.20763 6.02887C3.86731 8.01825 3.15908 10.1781 3.12935 12.3668C2.79491 19.9252 8.36088 30.5346 24.8557 41.1521C25.4888 40.664 26.1457 40.1839 26.7787 39.7121ZM96.5683 35.644C97.9777 32.2513 100.152 27.508 102.445 23.44C104.284 20.2588 106.303 17.4437 108.286 15.9304C109.01 15.3165 109.944 14.8326 111.005 14.5206C112.067 14.2086 113.224 14.0782 114.377 14.1405C115.022 14.198 115.642 14.3446 116.201 14.5713C116.76 14.7979 117.245 15.0998 117.626 15.4585C118.513 16.3626 118.972 17.4304 118.94 18.5177C119.119 22.3416 115.476 29.0945 103.52 39.468C104.236 39.9236 104.917 40.3955 105.586 40.8755C121.759 30.3556 127.205 19.8683 126.871 12.3994C126.847 10.2102 126.138 8.04952 124.792 6.06141C123.887 4.62861 122.318 3.43704 120.325 2.66869C119.174 2.29 117.896 2.12518 116.62 2.1909C115.345 2.25661 114.118 2.55054 113.063 3.04295C108.501 4.88169 104.893 8.94971 102.098 13.6767C97.7986 20.9992 95.4575 29.7617 94.3945 34.6758C95.135 34.9769 95.8517 35.3023 96.5683 35.6278V35.644ZM101.8 38.3859C113.266 28.4518 116.754 22.1138 116.611 18.5746C116.633 17.8059 116.331 17.0489 115.739 16.3942C115.542 16.2025 115.291 16.0401 114.999 15.917C114.707 15.7939 114.382 15.7126 114.043 15.6782C113.275 15.655 112.51 15.7583 111.814 15.9792C111.117 16.2002 110.509 16.5323 110.041 16.9474C108.262 18.3061 106.386 20.9504 104.631 23.977C102.158 28.2647 99.9724 33.2602 98.6586 36.6366C99.7455 37.1899 100.809 37.7757 101.848 38.3859H101.8ZM91.9698 36.1566H91.8862C91.086 35.8312 90.2977 35.5383 89.4974 35.2454C82.0712 32.6293 73.8607 31.2123 65.5016 31.1041C57.0595 30.9615 48.7017 32.277 41.2073 34.9281C32.0668 38.2854 24.6741 43.4859 20.0422 49.817L19.3495 50.8096C16.9607 54.2267 13.688 60.9064 11.2514 67.3664C9.19697 72.7932 7.72784 78.0328 7.89506 80.9943C8.122 85.1193 12.3144 88.2354 17.9879 90.5948C23.9599 93.0356 31.4967 94.7035 38.0301 95.8181C51.5509 98.1125 73.1339 98.8447 91.1338 96.168C104.392 94.1991 115.607 90.3833 119.8 83.9639C121.723 80.7095 121.615 75.1201 120.003 68.9123C118.239 62.125 115.091 55.5389 110.65 49.3451C106.344 43.8518 99.8751 39.2848 91.9698 36.1566Z" fill="#75251C"/>
<path fill-rule="evenodd" clip-rule="evenodd" d="M89.9035 57.3428C86.5711 57.3428 83.9315 60.2148 83.9315 63.7621C83.9315 67.3094 86.6189 70.1896 89.9035 70.1896C98.0017 69.498 97.9778 58.0425 89.9035 57.3428Z" fill="#75251C"/>
<path fill-rule="evenodd" clip-rule="evenodd" d="M89.9035 73.5579C83.8479 73.5579 78.9388 74.8108 78.9388 76.3567C78.9388 77.9025 83.8479 79.1636 89.9035 79.1636C104.523 78.8137 104.595 73.924 89.9035 73.5579Z" fill="#EC6D58"/>
<path d="M95.7801 56.3665C95.7801 56.3665 94.7767 59.1409 91.5877 59.1735C91.3927 59.1744 91.2 59.2022 91.0212 59.2552C90.8425 59.3082 90.6812 59.3853 90.5473 59.4818C90.4134 59.5783 90.3096 59.6923 90.2421 59.8169C90.1745 59.9415 90.1447 60.0741 90.1544 60.2067C90.1638 60.4643 90.3222 60.7088 90.5951 60.8871C90.8681 61.0654 91.2334 61.163 91.6115 61.1587C93.303 61.0627 94.9015 60.5913 96.1616 59.8167C97.4217 59.0422 98.2737 58.0073 98.5869 56.871C98.6607 56.6216 98.5898 56.3624 98.3892 56.1478C98.1886 55.9332 97.8738 55.7799 97.5108 55.7199C97.1478 55.6599 96.7649 55.698 96.4422 55.8261C96.1196 55.9543 95.8823 56.1625 95.7801 56.4072V56.3665Z" fill="#75251C"/>
<path d="M92.9732 60.2472C92.8062 60.1806 92.6211 60.1376 92.4291 60.121C92.2371 60.1044 92.0422 60.1144 91.856 60.1505C91.6699 60.1866 91.4964 60.248 91.346 60.331C91.1956 60.414 91.0715 60.5169 90.9811 60.6335C90.8907 60.75 90.8359 60.8779 90.82 61.0093C90.8041 61.1407 90.8274 61.2729 90.8885 61.398C90.9497 61.5231 91.0474 61.6384 91.1757 61.7371C91.3041 61.8358 91.4605 61.9157 91.6354 61.9721C98.8855 63.7945 102.278 58.5956 98.2764 59.0838C96.9506 59.2546 96.1861 61.012 92.9732 60.2472Z" fill="#75251C"/>
<path fill-rule="evenodd" clip-rule="evenodd" d="M88.3866 59.0432C87.2639 59.0432 86.3442 60.0358 86.3442 61.2399C86.3442 62.4441 87.1922 63.4611 88.3866 63.4611C89.581 63.4611 90.453 62.4685 90.453 61.2562C90.453 60.0439 89.5333 59.0595 88.3866 59.0595V59.0432Z" fill="white"/>
<path fill-rule="evenodd" clip-rule="evenodd" d="M39.2485 57.3428C42.5809 57.3428 45.2205 60.2148 45.2205 63.7621C45.2205 67.3094 42.5331 70.1896 39.2485 70.1896C31.1623 69.498 31.1742 58.0425 39.2485 57.3428Z" fill="#75251C"/>
<path fill-rule="evenodd" clip-rule="evenodd" d="M39.2484 73.5579C45.3041 73.5579 50.1654 74.8515 50.1654 76.3567C50.1654 77.8618 45.2563 79.1636 39.2007 79.1636C24.593 78.8137 24.5094 73.924 39.2007 73.5579H39.2484Z" fill="#EC6D58"/>
<path d="M33.4436 56.3665C33.4436 56.3665 34.4469 59.1409 37.636 59.1735C38.0173 59.1882 38.3746 59.3051 38.6298 59.4987C38.8849 59.6924 39.0172 59.9469 38.9976 60.2068C38.9945 60.3346 38.9543 60.4608 38.8792 60.578C38.8041 60.6952 38.6957 60.8011 38.5603 60.8896C38.4248 60.9781 38.2649 61.0474 38.0899 61.0936C37.9148 61.1398 37.7281 61.1619 37.5404 61.1587C35.8503 61.0601 34.2539 60.5877 32.9945 59.8136C31.7352 59.0395 30.882 58.0061 30.5651 56.871C30.4669 56.611 30.5243 56.335 30.7248 56.1039C30.9253 55.8727 31.2523 55.7053 31.6341 55.6384C32.0158 55.5715 32.4209 55.6106 32.7602 55.7472C33.0996 55.8837 33.3454 56.1065 33.4436 56.3665Z" fill="#75251C"/>
<path d="M36.1907 60.2472C36.5245 60.1397 36.9062 60.124 37.2565 60.2034C37.6068 60.2829 37.8986 60.4513 38.071 60.6737C38.2435 60.8961 38.2833 61.1552 38.1823 61.3971C38.0812 61.6389 37.847 61.8449 37.5285 61.9721C30.2664 63.7945 26.8743 58.5956 30.8756 59.0838C32.2133 59.2546 32.9778 61.012 36.1907 60.2472Z" fill="#75251C"/>
<path fill-rule="evenodd" clip-rule="evenodd" d="M40.8131 59.0432C41.9359 59.0432 42.8675 60.0358 42.8675 61.2399C42.8675 62.4441 41.9359 63.4611 40.8131 63.4611C39.6904 63.4611 38.7468 62.4685 38.7468 61.2562C38.7468 60.0439 39.6784 59.0595 40.8131 59.0595V59.0432Z" fill="white"/>
<path fill-rule="evenodd" clip-rule="evenodd" d="M72.5129 73.7612C73.4326 74.6562 72.7159 78.773 64.582 79.6842C56.448 78.773 55.7194 74.6562 56.6511 73.7612C58.168 72.313 70.984 72.313 72.5129 73.7612Z" fill="#75251C"/>
<path d="M59.5415 83.2642C59.5412 83.1251 59.6189 82.9911 59.7588 82.8898C59.8987 82.7884 60.0902 82.7274 60.294 82.7191C60.3975 82.718 60.5004 82.7308 60.5966 82.7568C60.6929 82.7828 60.7806 82.8215 60.855 82.8706C60.9293 82.9197 60.9887 82.9783 61.0297 83.043C61.0708 83.1078 61.0927 83.1774 61.0943 83.2479C61.1488 84.047 61.3006 84.8416 61.5481 85.6236C61.7443 86.2727 62.0531 86.9036 62.4678 87.503L62.6828 87.5681C63.253 87.7489 63.87 87.8512 64.4983 87.8692C65.1626 87.9026 65.8292 87.8302 66.4452 87.6576C66.6262 87.6049 66.7771 87.5135 66.8752 87.3973C67.2928 86.7488 67.6245 86.0763 67.8666 85.3877C68.1295 84.7002 68.2975 83.9974 68.3682 83.2886C68.368 83.2184 68.389 83.149 68.4297 83.0846C68.4705 83.0202 68.5302 82.9622 68.6053 82.9141C68.6803 82.8661 68.769 82.829 68.8658 82.8053C68.9627 82.7815 69.0657 82.7716 69.1685 82.776C69.2688 82.7759 69.3682 82.7897 69.4604 82.8166C69.5527 82.8435 69.636 82.8828 69.7052 82.9323C69.7745 82.9817 69.8283 83.0403 69.8633 83.1043C69.8983 83.1684 69.9139 83.2366 69.909 83.3049C69.8466 84.0931 69.6706 84.8752 69.3835 85.6399C69.12 86.3968 68.752 87.135 68.2846 87.8448C68.0452 88.206 67.6205 88.4953 67.0902 88.6584C66.2475 88.9062 65.3308 89.0149 64.4147 88.9757C63.567 88.9578 62.7303 88.8394 61.9423 88.6258C61.5378 88.5157 61.2007 88.3148 60.9868 88.0563C60.5103 87.3783 60.1612 86.6621 59.9476 85.9247C59.6644 85.0775 59.5004 84.2139 59.4579 83.3455L59.5415 83.2642Z" fill="#75251C"/>
<path d="M78.2819 83.2885C77.663 83.4416 77.0226 83.5506 76.3708 83.614C74.4187 83.7914 72.4331 83.5735 70.6615 82.9875H70.5421H70.4585C70.4392 82.9825 70.418 82.9825 70.3987 82.9875C68.7515 82.4811 67.3896 81.6247 66.5169 80.5467C66.1413 80.0598 65.8985 79.5305 65.8002 78.9846C65.8002 78.8869 65.8002 78.8056 65.8002 78.7079C65.8002 78.2035 66.1108 76.4136 65.8002 76.2671C65.4897 76.1207 64.9164 76.7553 64.6894 77.398C64.4506 76.7553 64.0803 76.1695 63.5786 76.2671C63.077 76.3648 63.5786 78.1954 63.5786 78.7079C63.5786 78.8056 63.5786 78.8869 63.5786 78.9846C63.4707 79.5301 63.2241 80.0587 62.85 80.5467C61.9804 81.6234 60.6229 82.4796 58.9801 82.9875H58.9085H58.8368H58.5263C56.7553 83.5749 54.7691 83.7928 52.817 83.614C52.1654 83.5498 51.5251 83.4407 50.9059 83.2885L50.1415 83.0526C49.5682 82.841 47.7527 81.881 47.454 82.0193C46.7135 82.4424 49.0784 83.7604 49.4129 83.915C49.6909 84.0432 49.9824 84.1574 50.2848 84.2567C51.0093 84.4854 51.7711 84.6548 52.5542 84.7612C54.8478 85.0153 57.2006 84.8001 59.3146 84.1428C59.3598 84.1233 59.4079 84.107 59.4579 84.094H59.5296H59.6251C61.6043 83.4399 63.2151 82.3626 64.2117 81.0267C64.3669 80.7664 64.5103 80.5304 64.6178 80.3026C64.7253 80.5304 64.8686 80.7664 65.0239 81.0267C66.0176 82.3641 67.6291 83.4418 69.6104 84.094H69.706H69.7776L69.921 84.1428C72.0347 84.8006 74.3877 85.0158 76.6814 84.7612C77.464 84.6535 78.2256 84.4842 78.9507 84.2567C79.2518 84.1556 79.543 84.0415 79.8227 83.915C80.1452 83.7604 82.5101 82.4424 81.7815 82.0193C81.4232 81.881 79.6674 82.8329 79.0821 83.0526L78.3177 83.2885H78.2819Z" fill="#75251C"/>
<path fill-rule="evenodd" clip-rule="evenodd" d="M110.053 52.6808C109.396 51.3791 106.804 48.1653 105.61 47.6609C105.443 48.3687 107.999 51.6475 108.859 53.3561C109.802 55.3901 110.376 57.4811 111.51 59.4825C112.645 61.484 114.282 63.0949 115.094 65.0151C116.061 67.407 115.906 71.3856 116.575 71.9063C117.375 71.5808 117.172 68.8308 117.124 68.1311C117.162 65.8759 116.339 63.6526 114.735 61.6793C112.347 58.4737 111.737 55.8295 110.089 52.6401L110.053 52.6808Z" fill="#75251C"/>
<path fill-rule="evenodd" clip-rule="evenodd" d="M124.613 16.3534V12.6027C123.992 11.667 124.231 8.82755 122.224 8.85196C122.245 9.72735 122.413 10.5982 122.726 11.4474C123.204 14.2624 122.463 18.9244 122.726 19.4939C123.598 19.4939 123.729 19.2173 124.076 18.1515C124.159 17.5426 124.327 16.9406 124.577 16.3534H124.613Z" fill="#75251C"/>
<path fill-rule="evenodd" clip-rule="evenodd" d="M101.442 45.2281C101.442 45.9115 104.022 46.9041 104.093 45.9115C104.093 45.2444 101.394 44.1948 101.442 45.2281Z" fill="#75251C"/>
<path d="M121.555 6.59838C121.451 6.44039 121.31 6.29482 121.137 6.16717C120.983 6.07298 120.81 5.9936 120.624 5.93122C120.503 5.90212 120.372 5.89738 120.247 5.91758C120.122 5.93778 120.008 5.98206 119.919 6.04513C119.668 6.18344 119.525 6.30548 119.632 6.52516C119.736 6.67199 119.873 6.80659 120.039 6.92382C120.203 7.01143 120.375 7.09291 120.552 7.1679C120.675 7.20663 120.813 7.21803 120.946 7.20051C121.078 7.18299 121.2 7.13742 121.293 7.07027C121.357 7.05096 121.415 7.02311 121.463 6.98837C121.511 6.95362 121.548 6.91269 121.573 6.86796C121.597 6.82323 121.608 6.77562 121.605 6.72793C121.602 6.68023 121.585 6.63342 121.555 6.59024V6.59838Z" fill="#323334"/>
<path fill-rule="evenodd" clip-rule="evenodd" d="M64.1758 80.9779C63.4559 81.9479 62.4029 82.7852 61.1062 83.4187C61.1712 84.1602 61.3189 84.8973 61.5481 85.6235C61.7443 86.2726 62.053 86.9035 62.4678 87.503L62.6828 87.568C63.253 87.7488 63.87 87.8511 64.4983 87.8691C65.1626 87.9025 65.8292 87.8301 66.4452 87.6575C66.6262 87.6048 66.7771 87.5134 66.8752 87.3972C67.6313 86.1917 68.1223 84.9169 68.3324 83.6139C66.8857 82.9675 65.7155 82.0722 64.9403 81.0185C64.785 80.7582 64.6417 80.5222 64.5342 80.2944C64.4267 80.5222 64.2833 80.7582 64.1281 81.0185L64.1758 80.9779Z" fill="white"/>
</g>
<defs>
<clipPath id="clip0_330_325">
<rect width="130" height="100" fill="white"/>
</clipPath>
</defs>
</svg>
