<svg width="130" height="100" viewBox="0 0 130 100" fill="none" xmlns="http://www.w3.org/2000/svg">
<g clip-path="url(#clip0_330_20)">
<path fill-rule="evenodd" clip-rule="evenodd" d="M13.7518 34.3254C27.7534 12.4766 48.2116 4.03071 83.0832 11.8852C100.012 15.6992 110.895 22.8343 118.014 33.7242C127.838 49.6008 132.898 71.4792 128.309 80.743C116.631 101.508 61.7719 102.572 34.9601 97.1814C20.076 94.1854 0.573843 88.2921 0.000248407 76.2688C-0.411563 67.3992 7.97174 44.1312 12.9429 35.6558L13.7518 34.3254Z" fill="#F09833"/>
<path fill-rule="evenodd" clip-rule="evenodd" d="M118.028 33.7242C127.838 49.6008 132.897 71.4792 128.323 80.743C122.279 92.8353 97.4375 99.2411 71.3169 100C119.087 95.4272 121.323 61.4467 110.145 37.6958C103.394 24.3224 89.716 13.8858 69.1255 9.66784C65.728 8.97798 80.9798 11.3925 83.6565 12.0035C100.276 15.8371 111.057 23.0117 118.072 33.6848L118.028 33.7242Z" fill="#E67920"/>
<path fill-rule="evenodd" clip-rule="evenodd" d="M93.2458 47.7974C89.3925 47.7974 86.2745 51.0693 86.2745 55.1197C86.2745 59.1702 89.3925 62.4519 93.2458 62.4519C97.0992 62.4519 100.232 59.18 100.232 55.1197C100.232 51.0594 97.0698 47.7974 93.2458 47.7974Z" fill="#75251C"/>
<path fill-rule="evenodd" clip-rule="evenodd" d="M93.2458 66.2954C86.2451 66.2954 80.5532 67.7343 80.5532 69.4885C80.5532 71.2427 86.2451 72.6914 93.2458 72.6914C100.247 72.6914 105.894 71.2525 105.894 69.4885C105.894 67.7244 100.203 66.2954 93.187 66.2954H93.2458Z" fill="#EC6D58"/>
<path d="M103.276 47.2357C103.33 47.092 103.342 46.9426 103.31 46.796C103.278 46.6495 103.203 46.5085 103.089 46.3813C102.976 46.2541 102.826 46.1431 102.649 46.0547C102.472 45.9662 102.27 45.902 102.056 45.8658C101.841 45.8296 101.618 45.822 101.4 45.8435C101.181 45.865 100.97 45.9151 100.781 45.9911C100.591 46.067 100.425 46.1673 100.293 46.2862C100.161 46.405 100.065 46.5401 100.011 46.6838C100.011 46.6838 98.8347 49.8473 95.1431 49.8867C94.7312 49.9128 94.3486 50.0408 94.0701 50.2459C93.7917 50.4509 93.6373 50.7182 93.6373 50.9954C93.6373 51.2726 93.7917 51.5399 94.0701 51.7449C94.3486 51.95 94.7312 52.0781 95.1431 52.1041C101.423 52.0351 103.188 47.2455 103.188 47.2357H103.276Z" fill="#75251C"/>
<path d="M104.424 51.6508C104.573 51.544 104.69 51.4185 104.767 51.2815C104.845 51.1445 104.881 50.9986 104.874 50.8522C104.867 50.7057 104.818 50.5617 104.728 50.4281C104.638 50.2946 104.509 50.1743 104.35 50.074C104.191 49.9737 104.003 49.8954 103.799 49.8436C103.594 49.7918 103.377 49.7675 103.158 49.772C102.94 49.7766 102.725 49.81 102.525 49.8702C102.326 49.9305 102.147 50.0165 101.997 50.1232C101.997 50.1232 99.3789 52.0253 96.8051 51.1088C96.4144 50.9724 95.9593 50.9446 95.5382 51.0312C95.1172 51.1179 94.7639 51.3121 94.5548 51.5719C94.4501 51.701 94.3849 51.8428 94.363 51.989C94.3411 52.1352 94.3631 52.2828 94.4274 52.4232C94.4918 52.5637 94.5974 52.6941 94.738 52.8068C94.8785 52.9196 95.0513 53.0124 95.2461 53.0798C100.085 54.8044 104.424 51.6508 104.424 51.6508Z" fill="#75251C"/>
<path fill-rule="evenodd" clip-rule="evenodd" d="M91.4662 49.7388C90.1278 49.7388 89.0689 50.8623 89.0689 52.2519C89.0689 53.6415 90.1278 54.7551 91.4662 54.7551C92.8046 54.7551 93.8341 53.6316 93.8341 52.2322C93.8341 50.8327 92.7605 49.7191 91.4662 49.7191V49.7388Z" fill="white"/>
<path fill-rule="evenodd" clip-rule="evenodd" d="M38.8867 47.7974C35.0187 47.7974 31.9007 51.0693 31.9007 55.1197C31.9007 59.1702 35.0187 62.4519 38.8867 62.4519C42.7548 62.4519 45.8581 59.18 45.8581 55.1197C45.8581 51.0594 42.7401 47.7974 38.8867 47.7974Z" fill="#75251C"/>
<path fill-rule="evenodd" clip-rule="evenodd" d="M38.8868 66.2954C45.8875 66.2954 51.5794 67.7343 51.5794 69.4885C51.5794 71.2427 45.8875 72.6914 38.8868 72.6914C21.3848 72.2676 21.8848 66.6995 38.8868 66.2954Z" fill="#EC6D58"/>
<path d="M28.8415 47.2356C28.7874 47.0939 28.7755 46.9464 28.8065 46.8017C28.8375 46.6569 28.9107 46.5176 29.022 46.3917C29.1333 46.2659 29.2805 46.156 29.4552 46.0683C29.6299 45.9806 29.8287 45.9168 30.0402 45.8805C30.2516 45.8443 30.4717 45.8363 30.6878 45.8571C30.9039 45.8778 31.1118 45.9269 31.2996 46.0015C31.4873 46.0761 31.6514 46.1747 31.7823 46.2918C31.9132 46.4088 32.0084 46.542 32.0624 46.6837C32.0624 46.6837 33.2243 49.8472 36.9306 49.8867C37.3426 49.9127 37.7251 50.0408 38.0036 50.2458C38.2821 50.4509 38.4364 50.7181 38.4364 50.9954C38.4364 51.2726 38.2821 51.5399 38.0036 51.7449C37.7251 51.9499 37.3426 52.078 36.9306 52.1041C30.6652 52.0351 28.8856 47.2455 28.8856 47.2356H28.8415Z" fill="#75251C"/>
<path d="M27.6796 51.6508C27.5299 51.544 27.4131 51.4185 27.3358 51.2815C27.2585 51.1445 27.2222 50.9986 27.229 50.8522C27.2358 50.7057 27.2856 50.5617 27.3756 50.4281C27.4655 50.2946 27.5938 50.1743 27.7531 50.074C27.9125 49.9737 28.0997 49.8954 28.3042 49.8436C28.5087 49.7918 28.7265 49.7675 28.945 49.772C29.1635 49.7766 29.3785 49.81 29.5778 49.8702C29.7771 49.9305 29.9567 50.0165 30.1063 50.1232C30.1063 50.1232 32.739 52.0253 35.3128 51.1088C35.5048 51.0401 35.7151 50.9977 35.9317 50.9839C36.1483 50.97 36.3668 50.9851 36.5747 51.0281C36.7825 51.0712 36.9756 51.1414 37.1427 51.2348C37.3098 51.3281 37.4477 51.4427 37.5484 51.5719C37.6557 51.7001 37.7233 51.8414 37.7473 51.9875C37.7713 52.1336 37.7511 52.2814 37.688 52.4221C37.6248 52.5629 37.52 52.6936 37.3798 52.8066C37.2396 52.9196 37.0668 53.0125 36.8718 53.0798C32.0477 54.8044 27.6943 51.6508 27.6796 51.6508Z" fill="#75251C"/>
<path fill-rule="evenodd" clip-rule="evenodd" d="M37.063 49.7389C35.7688 49.7389 34.6951 50.8624 34.6951 52.2519C34.6951 53.6415 35.7688 54.7552 37.063 54.7552C38.3573 54.7552 39.4603 53.6317 39.4603 52.2519C39.4603 50.8722 38.3867 49.7389 37.063 49.7389Z" fill="white"/>
<path d="M22.5761 37.0652C22.5474 37.2043 22.4747 37.3378 22.3627 37.4566C22.2508 37.5754 22.1022 37.6768 21.927 37.754C21.7518 37.8312 21.554 37.8824 21.3468 37.9041C21.1396 37.9259 20.9279 37.9177 20.7259 37.8801C20.5238 37.8426 20.3361 37.7765 20.1753 37.6863C20.0144 37.5961 19.8843 37.484 19.7934 37.3573C19.7026 37.2307 19.6533 37.0925 19.6487 36.952C19.6441 36.8115 19.6844 36.672 19.7669 36.5428C22.179 30.8663 28.4003 22.6077 34.5774 18.2813C35.6658 17.5126 38.725 17.9265 35.4746 20.4001C29.9593 24.6378 24.8557 31.7532 22.5761 37.0652ZM39.7104 16.2708C39.0044 14.4673 48.3143 12.0725 46.5641 14.7827C46.5641 14.7827 40.8134 17.8871 39.7104 16.2708Z" fill="white"/>
<path fill-rule="evenodd" clip-rule="evenodd" d="M66.8605 58.6281C66.6399 58.6281 60.6539 58.5296 59.2714 59.5447C59.0846 59.8578 58.9946 60.1931 59.0067 60.5302C58.9069 61.7133 59.0454 62.9 59.4185 64.0583C60.2441 63.6599 61.1378 63.3291 62.0805 63.0728C65.1295 62.2712 68.5179 62.2712 71.5669 63.0728C72.5098 63.3354 73.4073 63.6659 74.2437 64.0583C74.6331 62.8815 74.7864 61.6751 74.6996 60.4711C74.7185 60.1326 74.623 59.7957 74.4202 59.4855C73.0524 58.5 67.0664 58.5592 66.8605 58.569V58.6281Z" fill="#F09833"/>
<path fill-rule="evenodd" clip-rule="evenodd" d="M70.7286 64.1273C68.2177 63.4704 65.4298 63.4704 62.9189 64.1273C61.8536 64.3919 60.86 64.7714 59.9774 65.2508C60.6032 66.7756 61.8035 68.167 63.4631 69.2914C64.3646 69.8588 65.5253 70.206 66.7576 70.2769C67.9956 70.2097 69.1626 69.8621 70.0667 69.2914C71.7263 68.167 72.9266 66.7756 73.5524 65.2508C72.6676 64.7736 71.6746 64.3943 70.6109 64.1273H70.7286Z" fill="#EC6A53"/>
<path d="M66.8605 58.8252C66.6546 58.8252 61.1099 58.7365 59.845 59.6728C59.6748 59.9613 59.5899 60.2692 59.595 60.5794C59.5119 61.6943 59.6554 62.8116 60.0215 63.9006C60.7911 63.5418 61.6203 63.2442 62.4924 63.0137C63.9017 62.6547 65.3969 62.471 66.9046 62.4716C68.412 62.4732 69.9067 62.6568 71.3169 63.0137C72.1873 63.24 73.0123 63.5379 73.7731 63.9006C74.1404 62.8116 74.2936 61.6951 74.229 60.5794C74.2299 60.2676 74.1348 59.9589 73.9495 59.6728C72.6847 58.7365 67.1252 58.8252 66.9635 58.8252H66.8605ZM60.5363 65.3789C61.1253 66.7903 62.2385 68.0788 63.7719 69.1238C64.6007 69.6549 65.6742 69.9815 66.8164 70.0502C67.9643 69.9853 69.0442 69.6583 69.8756 69.1238C71.4142 68.0814 72.5283 66.792 73.1112 65.3789C72.3006 64.9443 71.3986 64.5923 70.4344 64.3342C68.1067 63.73 65.5261 63.73 63.1983 64.3342C62.2421 64.5968 61.3459 64.9485 60.5363 65.3789ZM66.9193 71.4792H66.7134C65.0663 71.3901 63.512 70.9318 62.3012 70.1783C60.3237 68.8523 58.9251 67.1893 58.2566 65.369C57.5665 63.7692 57.2636 62.1056 57.3594 60.4415C57.3506 59.8207 57.6337 59.2139 58.1684 58.707C60.0362 57.2977 66.331 57.3765 66.7576 57.3864C67.1841 57.3962 73.4789 57.2977 75.3615 58.707C75.8962 59.2139 76.1792 59.8207 76.1704 60.4415C76.2693 62.107 75.9562 63.772 75.2438 65.369C74.5809 67.1886 73.1872 68.8518 71.2139 70.1783C70.0083 70.9371 68.4511 71.3962 66.8017 71.4792H66.9193Z" fill="#75251C"/>
<path fill-rule="evenodd" clip-rule="evenodd" d="M52.2118 1.62612C57.9477 1.28119 56.1828 4.77976 56.977 6.55368C59.6097 5.07541 76.4792 -4.00116 77.847 2.0696C78.6412 5.5189 69.0225 7.06615 73.7878 6.72122C79.5531 6.29745 94.4813 5.13455 94.3783 11.2447C94.2754 17.7491 76.0233 17.9561 69.199 17.5914C67.0223 17.483 47.5936 16.4679 47.1377 15.5021C45.3875 11.5601 44.2991 4.92759 50.0792 2.29627L52.2118 1.62612Z" fill="#F09833"/>
</g>
<defs>
<clipPath id="clip0_330_20">
<rect width="130" height="100" fill="white"/>
</clipPath>
</defs>
</svg>
