<svg width="130" height="100" viewBox="0 0 130 100" fill="none" xmlns="http://www.w3.org/2000/svg">
<g clip-path="url(#clip0_330_96)">
<path fill-rule="evenodd" clip-rule="evenodd" d="M44.1016 24.9389L34.5477 23.3699C34.5477 23.3699 11.2515 24.9389 1.40024 38.7813C-8.45106 52.6237 36.6667 40.5247 36.6667 40.5247L44.1016 24.9389Z" fill="#F39800"/>
<path fill-rule="evenodd" clip-rule="evenodd" d="M44.1016 24.939C44.1016 24.939 37.2367 15.8386 37.6952 12.5349C38.1537 9.23116 39.653 2.14434 30.4957 0.217912C21.3383 -1.70852 13.9901 9.80648 22.689 13.9034C31.3879 18.0003 31.2763 16.318 35.5142 25.4097C39.7522 34.5014 44.1016 24.939 44.1016 24.939Z" fill="#75251C"/>
<path fill-rule="evenodd" clip-rule="evenodd" d="M85.886 24.9389L95.4151 23.3699C95.4151 23.3699 118.724 24.9389 128.563 38.7813C138.401 52.6237 93.3086 40.5247 93.3086 40.5247L85.886 24.9389Z" fill="#E47D00"/>
<path fill-rule="evenodd" clip-rule="evenodd" d="M85.886 24.939C85.886 24.939 92.7633 15.8386 92.3048 12.5349C91.8463 9.23116 90.347 2.14434 99.5043 0.217912C108.662 -1.70852 115.985 9.80648 107.286 13.9034C98.5874 18.0003 98.7113 16.318 94.4734 25.4097C90.2354 34.5014 85.886 24.939 85.886 24.939Z" fill="#75251C"/>
<path fill-rule="evenodd" clip-rule="evenodd" d="M96.3197 23.8319C103.371 27.7807 107.807 32.3134 111.524 38.2322C117.311 48.3002 127.633 74.3549 120.074 84.4926C104.994 103.103 51.4002 101.987 27.5836 95.4933C4.72119 89.2695 7.55886 75.061 10.9789 60.251C12.8253 52.1618 16.0099 42.2332 21.2516 34.9721C37.4473 13.7726 70.0496 9.64955 96.3197 23.8319Z" fill="#F39800"/>
<path fill-rule="evenodd" clip-rule="evenodd" d="M96.3197 23.832C97.5589 24.512 98.6493 25.2006 99.7274 25.9241C103.385 28.4942 106.52 31.407 109.046 34.58C109.938 35.7306 110.768 36.9422 111.524 38.2323C114.485 43.5877 116.916 49.0808 118.798 54.6724C121.4 62.6047 123.024 71.0078 122.515 77.8244C122.302 80.1381 121.461 82.4016 120.037 84.4928C112.045 94.369 93.197 98.6926 73.7175 99.5991C101.76 95.3889 110.161 81.9387 109.467 62.2822C109.149 55.3869 107.481 48.5554 104.511 41.9806C99.3061 30.9537 87.0508 19.4562 70.632 15.8735C80.0191 16.9422 88.8619 19.6818 96.3197 23.832Z" fill="#E47D00"/>
<path fill-rule="evenodd" clip-rule="evenodd" d="M50.347 64.7229C55.2288 63.9577 60.2153 63.5719 65.2168 63.5723C81.202 63.7205 105.328 68.3317 110.867 81.067C112.379 84.5538 111.896 91.3704 106.976 93.2707C84.4734 101.682 52.912 101.743 29.3432 95.816C26.8484 95.1878 24.4216 94.4332 22.0818 93.5583C19.8885 92.0067 18.7237 87.0555 19.0335 84.702C20.4957 73.71 37.4349 66.9457 50.347 64.6532V64.7229Z" fill="#FFEADE"/>
<path fill-rule="evenodd" clip-rule="evenodd" d="M107.893 76.5864C109.176 77.9754 110.177 79.4834 110.867 81.0669C112.379 84.5536 111.896 91.3702 106.976 93.2705C96.7162 97.0972 84.5725 99.198 72.1685 99.7907C93.7918 96.8967 104.201 88.7116 107.893 76.5515V76.5864Z" fill="#FFCFB5"/>
<path fill-rule="evenodd" clip-rule="evenodd" d="M97.1004 47.7859C93.6679 47.7859 90.9046 50.8455 90.9046 54.6286C90.9046 58.4118 93.6803 61.4627 97.1004 61.4627C100.52 61.4627 103.296 58.403 103.296 54.6286C103.296 50.8542 100.52 47.7859 97.1004 47.7859Z" fill="#75251C"/>
<path fill-rule="evenodd" clip-rule="evenodd" d="M97.1004 65.0366C90.9046 65.0366 85.7992 66.379 85.7992 68.0178C87.8686 73.7448 116.976 70.1883 106.208 66.2744C103.47 65.2633 100.099 65.1151 97.1004 65.0453V65.0366Z" fill="#EC6D58"/>
<path fill-rule="evenodd" clip-rule="evenodd" d="M95.4895 49.5991C94.3247 49.5991 93.3705 50.6364 93.3705 51.9352C93.3705 53.2341 94.3247 54.2801 95.4895 54.2801C96.6543 54.2801 97.6084 53.2253 97.6084 51.9352C97.6084 50.6451 96.6543 49.5991 95.4895 49.5991Z" fill="white"/>
<path fill-rule="evenodd" clip-rule="evenodd" d="M33.8538 47.7859C30.4213 47.7859 27.658 50.8455 27.658 54.6286C27.658 58.4118 30.4337 61.4627 33.8538 61.4627C37.2739 61.4627 40.0496 58.403 40.0496 54.6286C40.0496 50.8542 37.2862 47.7859 33.8538 47.7859Z" fill="#75251C"/>
<path fill-rule="evenodd" clip-rule="evenodd" d="M33.8538 65.0366C40.0496 65.0366 45.1301 66.379 45.1301 68.0177C42.9492 74.1196 12.4164 69.395 25.8736 65.8908C28.449 65.298 31.1442 65.0036 33.8538 65.0191V65.0366Z" fill="#EC6D58"/>
<path fill-rule="evenodd" clip-rule="evenodd" d="M32.2181 49.5991C30.9789 49.5991 30.0991 50.6364 30.0991 51.9352C30.0991 53.2341 31.0285 54.2801 32.2181 54.2801C33.4077 54.2801 34.3371 53.2253 34.3371 51.9352C34.3371 50.6451 33.4573 49.5991 32.2181 49.5991Z" fill="white"/>
<path d="M24.5477 41.7538C24.4557 41.985 24.2369 42.181 23.9394 42.2987C23.642 42.4164 23.2902 42.4461 22.9616 42.3814C22.6329 42.3167 22.3543 42.1627 22.187 41.9535C22.0197 41.7443 21.9774 41.4968 22.0694 41.2656C24.6781 35.4005 29.4649 30.1314 35.9356 26.0024C38.8476 24.1195 39.653 26.0547 38.4139 26.8741C32.1066 31.0407 27.0012 35.7827 24.5725 41.7451L24.5477 41.7538ZM41.6853 23.7622C41.1896 22.3762 47.4969 20.04 48.0297 21.6527C48.3767 22.69 42.9492 24.6687 42.0322 24.1108C41.8774 24.0166 41.7582 23.8968 41.6853 23.7622Z" fill="white"/>
<path fill-rule="evenodd" clip-rule="evenodd" d="M65.8117 67.8173C55.5514 67.8173 53.3333 62.0467 65.8117 62.0728C77.9678 62.0728 75.886 67.7824 65.8117 67.8173Z" fill="#75251C"/>
<path d="M48.8724 82.6272C48.5993 82.4554 48.4242 82.2197 48.3797 81.9639C48.3351 81.7081 48.4241 81.4497 48.6301 81.2366C48.8361 81.0235 49.1451 80.8702 49.4996 80.8054C49.8541 80.7405 50.2301 80.7684 50.5576 80.8838C50.5576 80.8838 63.6803 87.282 81.0161 80.8228C81.3712 80.6942 81.7843 80.6696 82.1651 80.7546C82.5459 80.8395 82.8634 81.027 83.0483 81.2761C83.1415 81.3985 83.1993 81.5327 83.2186 81.6709C83.2379 81.8091 83.2181 81.9486 83.1606 82.0814C83.103 82.2142 83.0087 82.3377 82.8831 82.4449C82.7576 82.552 82.6031 82.6406 82.4287 82.7057C63.482 89.7663 48.9715 82.7057 48.8724 82.6534V82.6272Z" fill="#75251C"/>
<path fill-rule="evenodd" clip-rule="evenodd" d="M96.3197 23.832C101.33 26.6093 105.497 30.0655 108.575 33.9958C106.097 40.3766 100.012 41.4313 95.7373 41.135C90.5824 40.7863 75.0186 38.2671 72.0446 32.1479C70.4709 28.9313 71.4374 21.984 72.7014 16.1001C81.3176 17.3444 89.4038 19.9826 96.3197 23.8058V23.832ZM58.7732 24.7734C58.7732 24.7734 48.86 29.28 48.6865 33.2288C48.513 37.1775 58.9839 38.7814 62.0818 39.4265C65.1797 40.0715 67.3482 37.0991 67.5836 35.3208C67.8191 33.5426 66.2082 27.9986 65.2912 26.4645C64.3742 24.9303 61.0533 23.4048 58.7732 24.7734Z" fill="#75251C"/>
</g>
<defs>
<clipPath id="clip0_330_96">
<rect width="130" height="100" fill="white"/>
</clipPath>
</defs>
</svg>
