<svg width="128" height="128" viewBox="0 0 128 128" fill="none" xmlns="http://www.w3.org/2000/svg">
<path fill-rule="evenodd" clip-rule="evenodd" d="M99.9336 98.6252C99.9336 105.488 84.0365 111.017 64.4368 111.017C44.837 111.017 28.9399 105.438 28.9399 98.6252C28.9399 91.7628 44.837 86.2334 64.4368 86.2334C84.0365 86.2334 99.9336 91.7628 99.9336 98.6252V98.6252V98.6252Z" fill="#9EDCF2"/>
<mask id="mask0_408_72" style="mask-type:luminance" maskUnits="userSpaceOnUse" x="44" y="94" width="40" height="34">
<path fill-rule="evenodd" clip-rule="evenodd" d="M49.1819 120.841C49.9718 124.544 51.8972 126.716 53.8226 128H74.1136C76.582 126.321 79.0999 123.162 79.0999 117.237V101.933C79.0999 101.933 79.3961 98.1311 82.9014 96.8969C82.9014 96.8969 84.9255 95.4652 82.7532 94.6753C82.7532 94.6753 73.1262 93.8853 73.1262 101.784V113.436C73.1262 113.436 73.5211 117.731 71.2501 119.508V105.092C71.2501 105.092 71.3982 100.501 73.768 98.7729C73.768 98.7729 75.3478 95.9589 71.8919 96.6994C71.8919 96.6994 65.2764 97.6374 64.9802 105.388L64.832 120.199H63.2522L63.1041 105.388C62.8079 97.6868 56.1924 96.6994 56.1924 96.6994C52.7365 95.9095 54.3163 98.7729 54.3163 98.7729C56.6861 100.501 56.8342 105.092 56.8342 105.092V119.656C54.5632 118.027 54.9581 113.436 54.9581 113.436V101.784C54.9581 93.8853 45.331 94.6753 45.331 94.6753C43.1094 95.4652 45.1829 96.8969 45.1829 96.8969C48.6388 98.1805 48.9844 101.933 48.9844 101.933V112.646L49.1819 120.841V120.841Z" fill="white"/>
</mask>
<g mask="url(#mask0_408_72)">
<path fill-rule="evenodd" clip-rule="evenodd" d="M99.9341 98.6247C99.9341 105.487 84.037 111.017 64.4372 111.017C44.8375 111.017 28.9404 105.438 28.9404 98.6247C28.9404 91.7623 44.8375 86.2329 64.4372 86.2329C84.037 86.2329 99.9341 91.7623 99.9341 98.6247V98.6247V98.6247Z" fill="#7DBCE7"/>
</g>
<path fill-rule="evenodd" clip-rule="evenodd" d="M23.9043 62.1406L22.8675 65.6952C22.8675 65.6952 22.6207 66.9789 23.8056 67.2257C25.0892 67.1763 24.9904 65.9915 24.8917 65.6459L23.9043 62.1406V62.1406V62.1406Z" fill="#9EDCF2"/>
<path fill-rule="evenodd" clip-rule="evenodd" d="M127.038 47.1818L127.136 46.7375C116.719 44.664 106.056 44.6146 99.5881 44.9108C100.625 41.1093 100.97 36.6661 100.97 31.7785C100.97 24.7186 98.3045 19.0905 94.0587 14.8447C94.7993 12.4255 95.7867 7.04425 93.0713 0.181861C93.0713 0.181861 88.2331 -1.3486 77.2237 6.00748C72.9285 4.92135 68.3371 4.37828 63.7457 4.37828C58.71 4.37828 53.6249 5.02009 48.8361 6.3037C37.4811 -1.44734 32.4947 0.132491 32.4947 0.132491C29.2363 8.27849 31.2605 14.351 31.8529 15.8321C28.0021 19.9791 25.6817 25.2617 25.6817 31.7291C25.6817 36.6167 26.2248 41.0106 27.6071 44.8121C21.0903 44.5652 10.8214 44.664 0.75 46.6881L0.848739 47.1324C10.9202 45.1083 21.2878 45.0589 27.7552 45.3058C28.0514 46.0957 28.397 46.8856 28.7426 47.6261C22.3246 47.8236 11.4139 48.6629 0.947479 51.6251L1.09559 52.0694C11.6607 49.1072 22.6701 48.3173 29.0388 48.1198C32.8897 55.2291 40.3939 59.8698 53.8224 61.3015C51.897 62.5852 49.9716 64.7574 49.1817 68.4601C46.5651 69.6944 38.3697 72.7553 33.4327 64.2637C33.4327 64.2637 30.668 59.228 25.3855 58.8331C25.3855 58.8331 20.251 58.7343 25.0399 62.0421C25.0399 62.0421 28.4464 63.6713 30.8161 69.7438C30.8161 69.7438 33.9264 80.1114 48.7867 76.7543V87.3687C48.7867 87.3687 48.4905 91.1702 44.9852 92.4044C44.9852 92.4044 42.9117 93.8362 45.1334 94.6261C45.1334 94.6261 54.7604 95.416 54.7604 87.5169V75.8656C54.7604 75.8656 54.3655 71.2249 56.6365 69.645V88.8005C56.6365 88.8005 56.4884 93.3918 54.1186 95.1198C54.1186 95.1198 52.5388 97.9339 55.9947 97.1933C55.9947 97.1933 62.6102 96.2553 62.9064 88.5042L63.0546 69.102H64.6344L64.7825 88.5042C65.0787 96.2059 71.6943 97.1933 71.6943 97.1933C75.1501 97.9832 73.5703 95.1198 73.5703 95.1198C71.2006 93.3918 71.0524 88.8005 71.0524 88.8005V69.7931C73.3235 71.5704 72.9285 75.8656 72.9285 75.8656V87.5169C72.9285 95.416 82.5556 94.6261 82.5556 94.6261C84.7772 93.8362 82.7037 92.4044 82.7037 92.4044C79.2478 91.1208 78.9022 87.3687 78.9022 87.3687V72.0641C78.9022 66.0904 76.3844 62.9307 73.9159 61.3015C88.2331 59.8698 95.0955 55.2784 98.2551 48.0705C104.525 48.2186 115.831 49.0085 126.593 52.0694L126.741 51.6251C116.028 48.6135 104.821 47.8236 98.4526 47.6261C98.7489 46.8856 98.9957 46.145 99.2425 45.3551C105.858 45.1083 116.571 45.1083 127.038 47.1818V47.1818V47.1818Z" fill="#010101"/>
<path fill-rule="evenodd" clip-rule="evenodd" d="M86.9497 31.4327C90.0107 34.2468 91.8373 37.6039 91.8373 41.2079C91.8373 58.1911 79.1987 58.6354 63.5979 58.6354C47.997 58.6354 35.3584 56.2657 35.3584 41.2079C35.3584 37.6039 37.1357 34.2468 40.1966 31.4821C45.2817 26.8413 53.872 29.3098 63.5979 29.3098C73.3237 29.3098 81.8647 26.792 86.9497 31.4327V31.4327V31.4327Z" fill="#F5CCB3"/>
<path fill-rule="evenodd" clip-rule="evenodd" d="M54.2173 42.0965C54.2173 46.7866 51.6007 50.5387 48.3423 50.5387C45.0839 50.5387 42.4673 46.7373 42.4673 42.0965C42.4673 37.4064 45.0839 33.6543 48.3423 33.6543C51.6007 33.6049 54.2173 37.4064 54.2173 42.0965V42.0965V42.0965Z" fill="white"/>
<path fill-rule="evenodd" clip-rule="evenodd" d="M52.3414 42.1955C52.3414 45.3058 50.5641 47.8237 48.4412 47.8237C46.269 47.8237 44.541 45.3058 44.541 42.1955C44.541 39.0852 46.3183 36.5674 48.4412 36.5674C50.5641 36.5674 52.3414 39.0852 52.3414 42.1955V42.1955V42.1955Z" fill="#AF5C51"/>
<path fill-rule="evenodd" clip-rule="evenodd" d="M85.7646 42.0965C85.7646 46.7866 83.148 50.5387 79.8896 50.5387C76.6312 50.5387 74.0146 46.7373 74.0146 42.0965C74.0146 37.4064 76.6312 33.6543 79.8896 33.6543C83.0987 33.6049 85.7646 37.4064 85.7646 42.0965V42.0965V42.0965Z" fill="white"/>
<path fill-rule="evenodd" clip-rule="evenodd" d="M83.839 42.1955C83.839 45.3058 82.0617 47.8237 79.9388 47.8237C77.7665 47.8237 76.0386 45.3058 76.0386 42.1955C76.0386 39.0852 77.8159 36.5674 79.9388 36.5674C82.111 36.5674 83.839 39.0852 83.839 42.1955V42.1955V42.1955Z" fill="#AF5C51"/>
<path fill-rule="evenodd" clip-rule="evenodd" d="M65.1775 49.6007C65.1775 50.3906 64.5357 51.0818 63.6964 51.0818C62.9065 51.0818 62.2153 50.44 62.2153 49.6007C62.2153 48.7614 62.8571 48.1196 63.6964 48.1196C64.4863 48.1196 65.1775 48.7614 65.1775 49.6007V49.6007V49.6007Z" fill="#AF5C51"/>
<path fill-rule="evenodd" clip-rule="evenodd" d="M60.2897 53.3035C60.191 53.0567 60.3391 52.8098 60.5859 52.7111C60.8328 52.6124 61.0796 52.7605 61.1784 53.0073C61.5733 54.0935 62.5607 54.7846 63.6962 54.7846C64.8317 54.7846 65.8191 54.0441 66.2141 53.0073C66.3128 52.7605 66.5597 52.6124 66.8065 52.7111C67.0534 52.8098 67.2015 53.0567 67.1027 53.3035C66.609 54.7353 65.2267 55.7227 63.6962 55.7227C62.1658 55.7227 60.7834 54.7353 60.2897 53.3035V53.3035V53.3035Z" fill="#AF5C51"/>
<path fill-rule="evenodd" clip-rule="evenodd" d="M27.6565 60.0178C27.6565 60.4128 27.2122 60.709 26.6198 60.709C26.0767 60.709 25.583 60.4128 25.583 60.0178C25.583 59.6229 26.0273 59.3267 26.6198 59.3267C27.2122 59.3267 27.6565 59.6229 27.6565 60.0178V60.0178V60.0178Z" fill="#C4E5D9"/>
<path fill-rule="evenodd" clip-rule="evenodd" d="M30.5198 61.5979C30.5198 61.9929 30.0755 62.2891 29.4831 62.2891C28.94 62.2891 28.4463 61.9929 28.4463 61.5979C28.4463 61.203 28.8906 60.9067 29.4831 60.9067C30.0755 60.9067 30.5198 61.203 30.5198 61.5979V61.5979V61.5979Z" fill="#C4E5D9"/>
<path fill-rule="evenodd" clip-rule="evenodd" d="M32.2478 63.6715C32.2478 64.0664 31.8035 64.3627 31.2111 64.3627C30.668 64.3627 30.1743 64.0664 30.1743 63.6715C30.1743 63.2765 30.6186 62.9803 31.2111 62.9803C31.8035 62.9309 32.2478 63.2765 32.2478 63.6715V63.6715V63.6715Z" fill="#C4E5D9"/>
<path fill-rule="evenodd" clip-rule="evenodd" d="M33.8279 66.0411C33.8279 66.4361 33.3836 66.7323 32.7912 66.7323C32.2481 66.7323 31.7544 66.4361 31.7544 66.0411C31.7544 65.6461 32.1987 65.3499 32.7912 65.3499C33.3836 65.3006 33.8279 65.6461 33.8279 66.0411V66.0411V66.0411Z" fill="#C4E5D9"/>
<path fill-rule="evenodd" clip-rule="evenodd" d="M35.5555 68.2132C35.5555 68.6081 35.1111 68.9043 34.5187 68.9043C33.9756 68.9043 33.4819 68.6081 33.4819 68.2132C33.4819 67.8182 33.9263 67.522 34.5187 67.522C35.1111 67.522 35.5555 67.8182 35.5555 68.2132V68.2132V68.2132Z" fill="#C4E5D9"/>
<path fill-rule="evenodd" clip-rule="evenodd" d="M37.9256 70.1388C37.9256 70.5337 37.4813 70.8299 36.8888 70.8299C36.3457 70.8299 35.8521 70.5337 35.8521 70.1388C35.8521 69.7438 36.2964 69.4476 36.8888 69.4476C37.4813 69.3982 37.9256 69.7438 37.9256 70.1388V70.1388V70.1388Z" fill="#C4E5D9"/>
<path fill-rule="evenodd" clip-rule="evenodd" d="M41.2332 71.3728C41.2332 71.7678 40.7889 72.064 40.1964 72.064C39.6534 72.064 39.1597 71.7678 39.1597 71.3728C39.1597 70.9779 39.604 70.6816 40.1964 70.6816C40.7889 70.6816 41.2332 70.9779 41.2332 71.3728V71.3728V71.3728Z" fill="#C4E5D9"/>
<path fill-rule="evenodd" clip-rule="evenodd" d="M44.5408 71.3728C44.5408 71.7678 44.0965 72.064 43.504 72.064C42.961 72.064 42.4673 71.7678 42.4673 71.3728C42.4673 70.9779 42.9116 70.6816 43.504 70.6816C44.0965 70.6816 44.5408 70.9779 44.5408 71.3728V71.3728V71.3728Z" fill="#C4E5D9"/>
<path fill-rule="evenodd" clip-rule="evenodd" d="M47.8982 70.8298C47.8982 71.2248 47.4539 71.521 46.8615 71.521C46.3184 71.521 45.8247 71.2248 45.8247 70.8298C45.8247 70.4349 46.269 70.1387 46.8615 70.1387C47.4045 70.1387 47.8982 70.4349 47.8982 70.8298V70.8298V70.8298Z" fill="#C4E5D9"/>
</svg>
