<svg width="128" height="128" viewBox="0 0 128 128" fill="none" xmlns="http://www.w3.org/2000/svg">
<path fill-rule="evenodd" clip-rule="evenodd" d="M64.0005 3C29.487 3 1.5 30.9818 1.5 65.5005C1.5 93.1149 19.4083 116.543 44.2417 124.807C47.3652 125.386 48.512 123.451 48.512 121.8C48.512 120.31 48.454 115.387 48.4271 110.164C31.0394 113.945 27.3704 102.79 27.3704 102.79C24.5273 95.5657 20.4309 93.6448 20.4309 93.6448C14.7602 89.7657 20.8583 89.8454 20.8583 89.8454C27.1344 90.2863 30.4391 96.2861 30.4391 96.2861C36.0136 105.841 45.0603 103.079 48.6269 101.482C49.1878 97.4421 50.8076 94.685 52.595 93.1242C38.7128 91.5438 24.1195 86.1846 24.1195 62.2362C24.1195 55.4125 26.5611 49.8371 30.5592 45.4602C29.9103 43.8859 27.771 37.5291 31.1647 28.9201C31.1647 28.9201 36.4131 27.2403 48.3568 35.3266C53.3423 33.9418 58.689 33.2474 64.0005 33.2236C69.312 33.2474 74.6629 33.9418 79.6577 35.3266C91.5869 27.2403 96.8281 28.9201 96.8281 28.9201C100.23 37.5291 98.0897 43.8859 97.4408 45.4602C101.448 49.8371 103.873 55.4125 103.873 62.2362C103.873 86.2416 89.252 91.5272 75.3346 93.0745C77.5764 95.0141 79.5739 98.8176 79.5739 104.649C79.5739 113.011 79.5014 119.742 79.5014 121.8C79.5014 123.464 80.6265 125.413 83.7946 124.799C108.614 116.525 126.5 93.1056 126.5 65.5005C126.5 30.9818 98.5172 3 64.0005 3ZM24.9085 92.0333C24.7708 92.3438 24.2823 92.437 23.8373 92.2237C23.3839 92.0199 23.1293 91.5965 23.2763 91.285C23.4109 90.9652 23.9004 90.8762 24.3527 91.0904C24.807 91.2943 25.0658 91.7218 24.9085 92.0333ZM27.9828 94.7765C27.6847 95.0528 27.102 94.9245 26.7067 94.4877C26.2979 94.052 26.2213 93.4693 26.5235 93.1888C26.8309 92.9125 27.396 93.0419 27.8058 93.4776C28.2146 93.9185 28.2943 94.497 27.9828 94.7765ZM30.0919 98.2863C29.709 98.5523 29.0828 98.3029 28.6957 97.7471C28.3128 97.1913 28.3128 96.5248 28.704 96.2577C29.0921 95.9907 29.709 96.2308 30.1012 96.7825C30.4831 97.3476 30.4831 98.0141 30.0919 98.2863ZM33.6589 102.351C33.3163 102.729 32.5866 102.628 32.0526 102.112C31.5061 101.608 31.354 100.893 31.6976 100.515C32.0443 100.136 32.7781 100.243 33.3163 100.754C33.8586 101.257 34.0242 101.978 33.6589 102.351ZM38.2688 103.723C38.1177 104.213 37.4149 104.435 36.707 104.227C36.0001 104.013 35.5375 103.44 35.6803 102.945C35.8273 102.452 36.5331 102.221 37.2462 102.443C37.9521 102.656 38.4158 103.226 38.2688 103.723ZM43.5151 104.305C43.5327 104.821 42.9324 105.248 42.1893 105.258C41.442 105.274 40.8376 104.857 40.8293 104.35C40.8293 103.829 41.4162 103.406 42.1634 103.394C42.9065 103.379 43.5151 103.793 43.5151 104.305ZM48.669 104.108C48.758 104.611 48.2416 105.127 47.5036 105.265C46.7781 105.398 46.1064 105.087 46.0143 104.588C45.9242 104.073 46.45 103.556 47.1745 103.423C47.9135 103.294 48.5748 103.597 48.669 104.108Z" fill="#161614"/>
</svg>
