<svg width="128" height="128" viewBox="0 0 128 128" fill="none" xmlns="http://www.w3.org/2000/svg">
<path fill-rule="evenodd" clip-rule="evenodd" d="M113.854 54.7619V50.7537C113.854 46.3678 110.266 42.7787 105.879 42.7787H22.0813C17.6954 42.7787 14.1062 46.3678 14.1062 50.7537V54.7619C12.2497 55.9011 11 57.9434 11 60.2695V70.9916C11 73.3176 12.2497 75.3609 14.1062 76.5002V80.6601C14.1062 85.046 17.6954 88.6351 22.0813 88.6351H105.879C110.266 88.6351 113.854 85.046 113.854 80.6601V76.5002C115.712 75.3609 116.96 73.3176 116.96 70.9916V60.2695C116.96 57.9434 115.712 55.9001 113.854 54.7619ZM64.2938 1.5C41.7093 1.5 23.0781 18.3747 20.2877 40.2008H108.3C105.51 18.3747 86.8784 1.5 64.2938 1.5ZM50.7225 99.6937H76.921L79.5959 102.791L83.6195 99.316L79.3544 94.377H48.288L44.0229 99.316L48.0466 102.791L50.7225 99.6937ZM96.0867 90.2491V107.213C96.0867 111.875 92.2715 115.69 87.6091 115.69H82.9951V115.674C81.9849 115.674 81.0932 115.201 80.4988 114.476H80.4875L74.9706 107.428L74.9644 107.433C74.3751 106.67 73.4629 106.168 72.4257 106.161C72.4185 106.161 72.4123 106.159 72.4051 106.159C72.3989 106.159 72.3927 106.161 72.3855 106.161H56.4127C56.4055 106.161 56.3993 106.159 56.3931 106.159C56.3859 106.159 56.3797 106.161 56.3725 106.161C55.4117 106.167 54.5603 106.6 53.9701 107.268L53.9587 107.263L48.3128 114.476H48.3046C47.7101 115.201 46.8185 115.674 45.8082 115.674V115.69H41.1902C36.5278 115.69 32.7126 111.875 32.7126 107.213V90.2491H22.3516V107.261C22.3516 117.622 30.8292 126.1 41.1902 126.1H87.6122C97.9741 126.1 106.451 117.622 106.451 107.261V90.2491H96.0867Z" fill="#0A0B09"/>
<path fill-rule="evenodd" clip-rule="evenodd" d="M98.2454 70.8787H29.7157C26.4791 70.8787 23.8311 68.2307 23.8311 64.994C23.8311 61.7574 26.4791 59.1094 29.7157 59.1094H98.2454C101.481 59.1094 104.129 61.7574 104.129 64.994C104.129 68.2307 101.481 70.8787 98.2454 70.8787Z" fill="#D7252C"/>
</svg>
