<svg width="128" height="128" viewBox="0 0 128 128" fill="none" xmlns="http://www.w3.org/2000/svg">
<path d="M117.29 98.1L66.24 127V104.49L98 87L117.29 98.1V98.1ZM120.79 94.94V34.55L102.11 45.35V84.16L120.78 94.93L120.79 94.94ZM10.71 98.1L61.71 126.98V104.49L29.94 87L10.71 98.1ZM7.20996 94.94V34.55L25.89 45.35V84.16L7.20996 94.94ZM9.39996 30.64L61.76 1V22.76L28.21 41.21L27.94 41.36L9.39996 30.64ZM118.58 30.64L66.24 1V22.76L99.79 41.2L100.06 41.35L118.6 30.64H118.58Z" fill="#8ED6FB"/>
<path d="M61.7601 99.3702L30.3701 82.1002V47.9202L61.7601 66.0002V99.3702ZM66.2401 99.3702L97.6301 82.1202V47.9202L66.2401 66.0002V99.3702ZM32.5001 44.0002L64.0001 26.6602L95.5001 44.0002L64.0001 62.1602L32.5001 44.0002Z" fill="#1C78C0"/>
</svg>
