<svg width="30" height="30" viewBox="0 0 30 30" fill="none" xmlns="http://www.w3.org/2000/svg">
<path d="M12.5002 3.75H15.0002V5.40239C15.7954 5.35397 16.5661 5.40027 17.2587 5.54647C14.3209 6.70275 12.9693 9.67425 12.748 10.1609L12.7344 10.1907C12.0165 10.0817 11.2387 9.99106 10.5028 9.99781C9.74444 10.0624 9.00862 10.1745 7.79681 10.8571C7.62594 10.9778 7.39556 11.1759 7.0825 11.4779C7.05975 11.4615 7.03537 11.4463 7.0035 11.4264C6.978 11.4104 6.94756 11.3915 6.90931 11.3665C6.73625 11.2534 6.48356 11.1004 6.17544 10.9476C5.5407 10.6327 4.76208 10.3641 3.99902 10.3641V7.94019C5.31843 7.94019 6.50469 8.38812 7.31419 8.78975C7.595 8.92906 7.84144 9.06831 8.04537 9.19206C8.22581 8.80694 8.46387 8.44875 8.7485 8.1185L7.37562 5.9642L9.57625 4.53511L10.8428 6.52269C11.3644 6.25369 11.9239 6.03048 12.5002 5.85505V3.75Z" fill="#3F3F3F"/>
<path d="M19.223 9.18188C18.3119 9.60419 17.5233 10.2984 16.8123 11.6346C16.8123 11.6346 15.2348 10.9133 13.9551 10.5383C14.9373 8.54707 16.0802 7.42669 17.7656 6.64544C19.396 5.88971 21.341 5.69621 23.6516 5.77605L23.5422 8.75007C21.4103 8.67638 20.189 8.73407 19.223 9.18188Z" fill="#3F3F3F"/>
<path d="M8.30062 12.0122C3.76145 16.061 10.2459 26.1828 15.4336 26.1828C20.6212 26.1828 27.7645 16.07 22.5666 11.4338C22.4467 11.3268 22.3417 11.2306 22.2442 11.1412C21.8146 10.7473 21.5286 10.4851 20.7359 10.0138C19.1407 10.0138 18.1794 11.6095 17.7417 12.5816C17.7195 12.631 17.6921 12.677 17.6603 12.7193L16.6514 15.5259L16.2879 16.831C16.2495 16.9688 16.2595 17.1156 16.3163 17.2469L16.7409 18.2283L18.9397 17.9731L19.0838 19.2147L17.0159 19.4548L17.1502 21.4246L15.9032 21.5097L15.7355 19.0523L15.1691 17.7433C14.9987 17.3494 14.9686 16.909 15.0837 16.4956L15.0946 16.4566L13.8233 17.0315L12.9921 19.1326L11.8297 18.6728L12.4881 17.0088L10.4815 16.536L10.7681 15.3193L13.2716 15.9091L15.5569 14.8756L16.3254 12.7378C14.3454 11.8075 10.2793 10.2473 8.30062 12.0122Z" fill="#3F3F3F"/>
</svg>
