<svg width="33" height="31" viewBox="0 0 33 31" fill="none" xmlns="http://www.w3.org/2000/svg">
<path d="M21.0802 19.4233C19.8824 20.532 18.2581 21.1549 16.5645 21.1549C14.8709 21.1549 13.2466 20.532 12.0488 19.4233M11.7742 12.2851H11.7902M21.3548 12.2851H21.3708M30.9355 15.2421C30.9355 16.9895 30.5638 18.7199 29.8416 20.3343C29.1193 21.9487 28.0608 23.4156 26.7263 24.6513C25.3919 25.8869 23.8076 26.8671 22.064 27.5358C20.3205 28.2045 18.4517 28.5487 16.5645 28.5487C14.6773 28.5487 12.8085 28.2045 11.065 27.5358C9.32141 26.8671 7.73717 25.8869 6.4027 24.6513C5.06823 23.4156 4.00968 21.9487 3.28747 20.3343C2.56526 18.7199 2.19354 16.9895 2.19354 15.2421C2.19354 11.713 3.70762 8.32837 6.4027 5.8329C9.09778 3.33743 12.7531 1.93549 16.5645 1.93549C20.3759 1.93549 24.0312 3.33743 26.7263 5.8329C29.4214 8.32837 30.9355 11.713 30.9355 15.2421Z" stroke="#4857EC" stroke-width="3" stroke-linecap="round" stroke-linejoin="round"/>
</svg>
