<svg width="100" height="100" viewBox="0 0 100 100" fill="none" xmlns="http://www.w3.org/2000/svg">
<path d="M16.7222 1.61108L20.4999 5.38886L16.7222 9.16664" stroke="black" stroke-width="2" stroke-linecap="round" stroke-linejoin="round"/>
<path d="M3.5 11.0553V9.16645C3.5 8.16452 3.89801 7.20363 4.60649 6.49516C5.31496 5.78669 6.27585 5.38867 7.27778 5.38867H20.5" stroke="black" stroke-width="2" stroke-linecap="round" stroke-linejoin="round"/>
<path d="M7.27778 22.3891L3.5 18.6113L7.27778 14.8335" stroke="black" stroke-width="2" stroke-linecap="round" stroke-linejoin="round"/>
<path d="M20.5 12.9443V14.8332C20.5 15.8352 20.102 16.796 19.3935 17.5045C18.685 18.213 17.7242 18.611 16.7222 18.611H3.5" stroke="black" stroke-width="2" stroke-linecap="round" stroke-linejoin="round"/>
<path d="M43 20L33 12L43 4L43 20Z" fill="black" stroke="black" stroke-width="2" stroke-linecap="round" stroke-linejoin="round"/>
<path d="M29 19L29 5" stroke="black" stroke-width="2" stroke-linecap="round" stroke-linejoin="round"/>
<path d="M56 43L56 29" stroke="white" stroke-width="3" stroke-linecap="round" stroke-linejoin="round"/>
<path d="M53 4L63 12L53 20V4Z" fill="black" stroke="black" stroke-width="2" stroke-linecap="round" stroke-linejoin="round"/>
<path d="M32 28L42 36L32 44V28Z" fill="white" stroke="white" stroke-width="2" stroke-linecap="round" stroke-linejoin="round"/>
<path d="M67 5V19" stroke="black" stroke-width="2" stroke-linecap="round" stroke-linejoin="round"/>
<path d="M65 29V43" stroke="white" stroke-width="3" stroke-linecap="round" stroke-linejoin="round"/>
<path d="M74 20.15L76.347 14.45M87.3 20.15L84.953 14.45M84.953 14.45L83.975 12.075L80.65 4L77.325 12.075L76.347 14.45M84.953 14.45H76.3465M85.4 4.95H93M87.3 9.7H93M89.2 14.45H93M91.1 19.2H93" stroke="black" stroke-width="2" stroke-linecap="round" stroke-linejoin="round"/>
<path d="M17.2222 26L20.9999 29.7778L17.2222 33.5556" stroke="black" stroke-width="2" stroke-linecap="round" stroke-linejoin="round"/>
<path d="M4 35.4443V33.5554C4 32.5534 4.39801 31.5925 5.10649 30.8841C5.81496 30.1756 6.77585 29.7776 7.77778 29.7776H21" stroke="black" stroke-width="2" stroke-linecap="round" stroke-linejoin="round"/>
<path d="M7.77778 46.778L4 43.0002L7.77778 39.2224" stroke="black" stroke-width="2" stroke-linecap="round" stroke-linejoin="round"/>
<path d="M21 37.3333V39.2221C21 40.2241 20.602 41.185 19.8935 41.8934C19.185 42.6019 18.2242 42.9999 17.2222 42.9999H4" stroke="black" stroke-width="2" stroke-linecap="round" stroke-linejoin="round"/>
<path d="M13.3097 32.1162V39.3889H12.429V33.0395H12.3864L10.6108 34.2185V33.3236L12.429 32.1162H13.3097Z" fill="black"/>
<path d="M19 67.9998L22 64.9998L19 61.9998" stroke="black" stroke-width="2" stroke-linecap="round" stroke-linejoin="round"/>
<path d="M19 52L22 55L19 58" stroke="black" stroke-width="2" stroke-linecap="round" stroke-linejoin="round"/>
<path d="M22 55H18C16.8744 55 15.8357 55.3719 15 55.9996M4 65H8C9.12561 65 10.1643 64.6281 11 64.0004" stroke="black" stroke-width="2" stroke-linecap="round" stroke-linejoin="round"/>
<path d="M4 55H8C10.7614 55 13 57.2386 13 60C13 62.7614 15.2386 65 18 65H22" stroke="black" stroke-width="2" stroke-linecap="round" stroke-linejoin="round"/>
</svg>
