<svg width="500" height="500" viewBox="0 0 500 500" fill="none" xmlns="http://www.w3.org/2000/svg">
<path d="M24.2222 10L27.9999 13.7778L24.2222 17.5556" stroke="black" stroke-width="2" stroke-linecap="round" stroke-linejoin="round"/>
<path d="M11 19.4443V17.5554C11 16.5534 11.398 15.5925 12.1065 14.8841C12.815 14.1756 13.7758 13.7776 14.7778 13.7776H28" stroke="black" stroke-width="2" stroke-linecap="round" stroke-linejoin="round"/>
<path d="M14.7778 30.778L11 27.0002L14.7778 23.2224" stroke="black" stroke-width="2" stroke-linecap="round" stroke-linejoin="round"/>
<path d="M28 21.3333V23.2221C28 24.2241 27.602 25.185 26.8935 25.8934C26.185 26.6019 25.2242 26.9999 24.2222 26.9999H11" stroke="black" stroke-width="2" stroke-linecap="round" stroke-linejoin="round"/>
<path d="M67 27L57 19L67 11L67 27Z" fill="black" stroke="black" stroke-width="2" stroke-linecap="round" stroke-linejoin="round"/>
<path d="M53 26L53 12" stroke="black" stroke-width="2" stroke-linecap="round" stroke-linejoin="round"/>
<path d="M93 11L103 19L93 27V11Z" fill="black" stroke="black" stroke-width="2" stroke-linecap="round" stroke-linejoin="round"/>
<path d="M107 12V26" stroke="black" stroke-width="2" stroke-linecap="round" stroke-linejoin="round"/>
<path d="M130 27.15L132.347 21.45M143.3 27.15L140.953 21.45M140.953 21.45L139.975 19.075L136.65 11L133.325 19.075L132.347 21.45M140.953 21.45H132.346M141.4 11.95H149M143.3 16.7H149M145.2 21.45H149M147.1 26.2H149" stroke="black" stroke-width="2" stroke-linecap="round" stroke-linejoin="round"/>
<path d="M24.2222 50L27.9999 53.7778L24.2222 57.5556" stroke="black" stroke-width="2" stroke-linecap="round" stroke-linejoin="round"/>
<path d="M11 59.4443V57.5554C11 56.5534 11.398 55.5925 12.1065 54.8841C12.815 54.1756 13.7758 53.7776 14.7778 53.7776H28" stroke="black" stroke-width="2" stroke-linecap="round" stroke-linejoin="round"/>
<path d="M14.7778 70.778L11 67.0002L14.7778 63.2224" stroke="black" stroke-width="2" stroke-linecap="round" stroke-linejoin="round"/>
<path d="M28 61.3333V63.2221C28 64.2241 27.602 65.185 26.8935 65.8934C26.185 66.6019 25.2242 66.9999 24.2222 66.9999H11" stroke="black" stroke-width="2" stroke-linecap="round" stroke-linejoin="round"/>
<path d="M20.3097 56.1162V63.3889H19.429V57.0395H19.3864L17.6108 58.2185V57.3236L19.429 56.1162H20.3097Z" fill="black"/>
<path d="M26 108L29 105L26 102" stroke="black" stroke-width="2" stroke-linecap="round" stroke-linejoin="round"/>
<path d="M26 92L29 95L26 98" stroke="black" stroke-width="2" stroke-linecap="round" stroke-linejoin="round"/>
<path d="M29 95H25C23.8744 95 22.8357 95.3719 22 95.9996M11 105H15C16.1256 105 17.1643 104.628 18 104" stroke="black" stroke-width="2" stroke-linecap="round" stroke-linejoin="round"/>
<path d="M11 95H15C17.7614 95 20 97.2386 20 100C20 102.761 22.2386 105 25 105H29" stroke="black" stroke-width="2" stroke-linecap="round" stroke-linejoin="round"/>
<path d="M57 52L67 60L57 68V52Z" fill="white" stroke="white" stroke-width="2" stroke-linecap="round" stroke-linejoin="round"/>
<path d="M96 67L96 53" stroke="white" stroke-width="3" stroke-linecap="round" stroke-linejoin="round"/>
<path d="M105 53V67" stroke="white" stroke-width="3" stroke-linecap="round" stroke-linejoin="round"/>
</svg>
